G75*
%MOIN*%
%OFA0B0*%
%FSLAX25Y25*%
%IPPOS*%
%LPD*%
%AMOC8*
5,1,8,0,0,1.08239X$1,22.5*
%
%ADD10C,0.00000*%
%ADD11C,0.00600*%
%ADD12C,0.00400*%
%ADD13C,0.00300*%
%ADD14C,0.00800*%
%ADD15C,0.01000*%
%ADD16C,0.00500*%
%ADD17C,0.02000*%
%ADD18R,0.07500X0.05000*%
%ADD19R,0.07000X0.03000*%
%ADD20R,0.03000X0.05000*%
%ADD21R,0.03400X0.02400*%
D10*
X0026300Y0001000D02*
X0026300Y0197850D01*
X0420001Y0197850D01*
X0420001Y0001000D01*
X0026300Y0001000D01*
X0030788Y0011000D02*
X0030790Y0011148D01*
X0030796Y0011296D01*
X0030806Y0011444D01*
X0030820Y0011591D01*
X0030838Y0011738D01*
X0030859Y0011884D01*
X0030885Y0012030D01*
X0030915Y0012175D01*
X0030948Y0012319D01*
X0030986Y0012462D01*
X0031027Y0012604D01*
X0031072Y0012745D01*
X0031120Y0012885D01*
X0031173Y0013024D01*
X0031229Y0013161D01*
X0031289Y0013296D01*
X0031352Y0013430D01*
X0031419Y0013562D01*
X0031490Y0013692D01*
X0031564Y0013820D01*
X0031641Y0013946D01*
X0031722Y0014070D01*
X0031806Y0014192D01*
X0031893Y0014311D01*
X0031984Y0014428D01*
X0032078Y0014543D01*
X0032174Y0014655D01*
X0032274Y0014765D01*
X0032376Y0014871D01*
X0032482Y0014975D01*
X0032590Y0015076D01*
X0032701Y0015174D01*
X0032814Y0015270D01*
X0032930Y0015362D01*
X0033048Y0015451D01*
X0033169Y0015536D01*
X0033292Y0015619D01*
X0033417Y0015698D01*
X0033544Y0015774D01*
X0033673Y0015846D01*
X0033804Y0015915D01*
X0033937Y0015980D01*
X0034072Y0016041D01*
X0034208Y0016099D01*
X0034345Y0016154D01*
X0034484Y0016204D01*
X0034625Y0016251D01*
X0034766Y0016294D01*
X0034909Y0016334D01*
X0035053Y0016369D01*
X0035197Y0016401D01*
X0035343Y0016428D01*
X0035489Y0016452D01*
X0035636Y0016472D01*
X0035783Y0016488D01*
X0035930Y0016500D01*
X0036078Y0016508D01*
X0036226Y0016512D01*
X0036374Y0016512D01*
X0036522Y0016508D01*
X0036670Y0016500D01*
X0036817Y0016488D01*
X0036964Y0016472D01*
X0037111Y0016452D01*
X0037257Y0016428D01*
X0037403Y0016401D01*
X0037547Y0016369D01*
X0037691Y0016334D01*
X0037834Y0016294D01*
X0037975Y0016251D01*
X0038116Y0016204D01*
X0038255Y0016154D01*
X0038392Y0016099D01*
X0038528Y0016041D01*
X0038663Y0015980D01*
X0038796Y0015915D01*
X0038927Y0015846D01*
X0039056Y0015774D01*
X0039183Y0015698D01*
X0039308Y0015619D01*
X0039431Y0015536D01*
X0039552Y0015451D01*
X0039670Y0015362D01*
X0039786Y0015270D01*
X0039899Y0015174D01*
X0040010Y0015076D01*
X0040118Y0014975D01*
X0040224Y0014871D01*
X0040326Y0014765D01*
X0040426Y0014655D01*
X0040522Y0014543D01*
X0040616Y0014428D01*
X0040707Y0014311D01*
X0040794Y0014192D01*
X0040878Y0014070D01*
X0040959Y0013946D01*
X0041036Y0013820D01*
X0041110Y0013692D01*
X0041181Y0013562D01*
X0041248Y0013430D01*
X0041311Y0013296D01*
X0041371Y0013161D01*
X0041427Y0013024D01*
X0041480Y0012885D01*
X0041528Y0012745D01*
X0041573Y0012604D01*
X0041614Y0012462D01*
X0041652Y0012319D01*
X0041685Y0012175D01*
X0041715Y0012030D01*
X0041741Y0011884D01*
X0041762Y0011738D01*
X0041780Y0011591D01*
X0041794Y0011444D01*
X0041804Y0011296D01*
X0041810Y0011148D01*
X0041812Y0011000D01*
X0041810Y0010852D01*
X0041804Y0010704D01*
X0041794Y0010556D01*
X0041780Y0010409D01*
X0041762Y0010262D01*
X0041741Y0010116D01*
X0041715Y0009970D01*
X0041685Y0009825D01*
X0041652Y0009681D01*
X0041614Y0009538D01*
X0041573Y0009396D01*
X0041528Y0009255D01*
X0041480Y0009115D01*
X0041427Y0008976D01*
X0041371Y0008839D01*
X0041311Y0008704D01*
X0041248Y0008570D01*
X0041181Y0008438D01*
X0041110Y0008308D01*
X0041036Y0008180D01*
X0040959Y0008054D01*
X0040878Y0007930D01*
X0040794Y0007808D01*
X0040707Y0007689D01*
X0040616Y0007572D01*
X0040522Y0007457D01*
X0040426Y0007345D01*
X0040326Y0007235D01*
X0040224Y0007129D01*
X0040118Y0007025D01*
X0040010Y0006924D01*
X0039899Y0006826D01*
X0039786Y0006730D01*
X0039670Y0006638D01*
X0039552Y0006549D01*
X0039431Y0006464D01*
X0039308Y0006381D01*
X0039183Y0006302D01*
X0039056Y0006226D01*
X0038927Y0006154D01*
X0038796Y0006085D01*
X0038663Y0006020D01*
X0038528Y0005959D01*
X0038392Y0005901D01*
X0038255Y0005846D01*
X0038116Y0005796D01*
X0037975Y0005749D01*
X0037834Y0005706D01*
X0037691Y0005666D01*
X0037547Y0005631D01*
X0037403Y0005599D01*
X0037257Y0005572D01*
X0037111Y0005548D01*
X0036964Y0005528D01*
X0036817Y0005512D01*
X0036670Y0005500D01*
X0036522Y0005492D01*
X0036374Y0005488D01*
X0036226Y0005488D01*
X0036078Y0005492D01*
X0035930Y0005500D01*
X0035783Y0005512D01*
X0035636Y0005528D01*
X0035489Y0005548D01*
X0035343Y0005572D01*
X0035197Y0005599D01*
X0035053Y0005631D01*
X0034909Y0005666D01*
X0034766Y0005706D01*
X0034625Y0005749D01*
X0034484Y0005796D01*
X0034345Y0005846D01*
X0034208Y0005901D01*
X0034072Y0005959D01*
X0033937Y0006020D01*
X0033804Y0006085D01*
X0033673Y0006154D01*
X0033544Y0006226D01*
X0033417Y0006302D01*
X0033292Y0006381D01*
X0033169Y0006464D01*
X0033048Y0006549D01*
X0032930Y0006638D01*
X0032814Y0006730D01*
X0032701Y0006826D01*
X0032590Y0006924D01*
X0032482Y0007025D01*
X0032376Y0007129D01*
X0032274Y0007235D01*
X0032174Y0007345D01*
X0032078Y0007457D01*
X0031984Y0007572D01*
X0031893Y0007689D01*
X0031806Y0007808D01*
X0031722Y0007930D01*
X0031641Y0008054D01*
X0031564Y0008180D01*
X0031490Y0008308D01*
X0031419Y0008438D01*
X0031352Y0008570D01*
X0031289Y0008704D01*
X0031229Y0008839D01*
X0031173Y0008976D01*
X0031120Y0009115D01*
X0031072Y0009255D01*
X0031027Y0009396D01*
X0030986Y0009538D01*
X0030948Y0009681D01*
X0030915Y0009825D01*
X0030885Y0009970D01*
X0030859Y0010116D01*
X0030838Y0010262D01*
X0030820Y0010409D01*
X0030806Y0010556D01*
X0030796Y0010704D01*
X0030790Y0010852D01*
X0030788Y0011000D01*
X0053505Y0011000D02*
X0053507Y0011148D01*
X0053513Y0011296D01*
X0053523Y0011444D01*
X0053537Y0011591D01*
X0053555Y0011738D01*
X0053576Y0011884D01*
X0053602Y0012030D01*
X0053632Y0012175D01*
X0053665Y0012319D01*
X0053703Y0012462D01*
X0053744Y0012604D01*
X0053789Y0012745D01*
X0053837Y0012885D01*
X0053890Y0013024D01*
X0053946Y0013161D01*
X0054006Y0013296D01*
X0054069Y0013430D01*
X0054136Y0013562D01*
X0054207Y0013692D01*
X0054281Y0013820D01*
X0054358Y0013946D01*
X0054439Y0014070D01*
X0054523Y0014192D01*
X0054610Y0014311D01*
X0054701Y0014428D01*
X0054795Y0014543D01*
X0054891Y0014655D01*
X0054991Y0014765D01*
X0055093Y0014871D01*
X0055199Y0014975D01*
X0055307Y0015076D01*
X0055418Y0015174D01*
X0055531Y0015270D01*
X0055647Y0015362D01*
X0055765Y0015451D01*
X0055886Y0015536D01*
X0056009Y0015619D01*
X0056134Y0015698D01*
X0056261Y0015774D01*
X0056390Y0015846D01*
X0056521Y0015915D01*
X0056654Y0015980D01*
X0056789Y0016041D01*
X0056925Y0016099D01*
X0057062Y0016154D01*
X0057201Y0016204D01*
X0057342Y0016251D01*
X0057483Y0016294D01*
X0057626Y0016334D01*
X0057770Y0016369D01*
X0057914Y0016401D01*
X0058060Y0016428D01*
X0058206Y0016452D01*
X0058353Y0016472D01*
X0058500Y0016488D01*
X0058647Y0016500D01*
X0058795Y0016508D01*
X0058943Y0016512D01*
X0059091Y0016512D01*
X0059239Y0016508D01*
X0059387Y0016500D01*
X0059534Y0016488D01*
X0059681Y0016472D01*
X0059828Y0016452D01*
X0059974Y0016428D01*
X0060120Y0016401D01*
X0060264Y0016369D01*
X0060408Y0016334D01*
X0060551Y0016294D01*
X0060692Y0016251D01*
X0060833Y0016204D01*
X0060972Y0016154D01*
X0061109Y0016099D01*
X0061245Y0016041D01*
X0061380Y0015980D01*
X0061513Y0015915D01*
X0061644Y0015846D01*
X0061773Y0015774D01*
X0061900Y0015698D01*
X0062025Y0015619D01*
X0062148Y0015536D01*
X0062269Y0015451D01*
X0062387Y0015362D01*
X0062503Y0015270D01*
X0062616Y0015174D01*
X0062727Y0015076D01*
X0062835Y0014975D01*
X0062941Y0014871D01*
X0063043Y0014765D01*
X0063143Y0014655D01*
X0063239Y0014543D01*
X0063333Y0014428D01*
X0063424Y0014311D01*
X0063511Y0014192D01*
X0063595Y0014070D01*
X0063676Y0013946D01*
X0063753Y0013820D01*
X0063827Y0013692D01*
X0063898Y0013562D01*
X0063965Y0013430D01*
X0064028Y0013296D01*
X0064088Y0013161D01*
X0064144Y0013024D01*
X0064197Y0012885D01*
X0064245Y0012745D01*
X0064290Y0012604D01*
X0064331Y0012462D01*
X0064369Y0012319D01*
X0064402Y0012175D01*
X0064432Y0012030D01*
X0064458Y0011884D01*
X0064479Y0011738D01*
X0064497Y0011591D01*
X0064511Y0011444D01*
X0064521Y0011296D01*
X0064527Y0011148D01*
X0064529Y0011000D01*
X0064527Y0010852D01*
X0064521Y0010704D01*
X0064511Y0010556D01*
X0064497Y0010409D01*
X0064479Y0010262D01*
X0064458Y0010116D01*
X0064432Y0009970D01*
X0064402Y0009825D01*
X0064369Y0009681D01*
X0064331Y0009538D01*
X0064290Y0009396D01*
X0064245Y0009255D01*
X0064197Y0009115D01*
X0064144Y0008976D01*
X0064088Y0008839D01*
X0064028Y0008704D01*
X0063965Y0008570D01*
X0063898Y0008438D01*
X0063827Y0008308D01*
X0063753Y0008180D01*
X0063676Y0008054D01*
X0063595Y0007930D01*
X0063511Y0007808D01*
X0063424Y0007689D01*
X0063333Y0007572D01*
X0063239Y0007457D01*
X0063143Y0007345D01*
X0063043Y0007235D01*
X0062941Y0007129D01*
X0062835Y0007025D01*
X0062727Y0006924D01*
X0062616Y0006826D01*
X0062503Y0006730D01*
X0062387Y0006638D01*
X0062269Y0006549D01*
X0062148Y0006464D01*
X0062025Y0006381D01*
X0061900Y0006302D01*
X0061773Y0006226D01*
X0061644Y0006154D01*
X0061513Y0006085D01*
X0061380Y0006020D01*
X0061245Y0005959D01*
X0061109Y0005901D01*
X0060972Y0005846D01*
X0060833Y0005796D01*
X0060692Y0005749D01*
X0060551Y0005706D01*
X0060408Y0005666D01*
X0060264Y0005631D01*
X0060120Y0005599D01*
X0059974Y0005572D01*
X0059828Y0005548D01*
X0059681Y0005528D01*
X0059534Y0005512D01*
X0059387Y0005500D01*
X0059239Y0005492D01*
X0059091Y0005488D01*
X0058943Y0005488D01*
X0058795Y0005492D01*
X0058647Y0005500D01*
X0058500Y0005512D01*
X0058353Y0005528D01*
X0058206Y0005548D01*
X0058060Y0005572D01*
X0057914Y0005599D01*
X0057770Y0005631D01*
X0057626Y0005666D01*
X0057483Y0005706D01*
X0057342Y0005749D01*
X0057201Y0005796D01*
X0057062Y0005846D01*
X0056925Y0005901D01*
X0056789Y0005959D01*
X0056654Y0006020D01*
X0056521Y0006085D01*
X0056390Y0006154D01*
X0056261Y0006226D01*
X0056134Y0006302D01*
X0056009Y0006381D01*
X0055886Y0006464D01*
X0055765Y0006549D01*
X0055647Y0006638D01*
X0055531Y0006730D01*
X0055418Y0006826D01*
X0055307Y0006924D01*
X0055199Y0007025D01*
X0055093Y0007129D01*
X0054991Y0007235D01*
X0054891Y0007345D01*
X0054795Y0007457D01*
X0054701Y0007572D01*
X0054610Y0007689D01*
X0054523Y0007808D01*
X0054439Y0007930D01*
X0054358Y0008054D01*
X0054281Y0008180D01*
X0054207Y0008308D01*
X0054136Y0008438D01*
X0054069Y0008570D01*
X0054006Y0008704D01*
X0053946Y0008839D01*
X0053890Y0008976D01*
X0053837Y0009115D01*
X0053789Y0009255D01*
X0053744Y0009396D01*
X0053703Y0009538D01*
X0053665Y0009681D01*
X0053632Y0009825D01*
X0053602Y0009970D01*
X0053576Y0010116D01*
X0053555Y0010262D01*
X0053537Y0010409D01*
X0053523Y0010556D01*
X0053513Y0010704D01*
X0053507Y0010852D01*
X0053505Y0011000D01*
X0285788Y0011000D02*
X0285790Y0011148D01*
X0285796Y0011296D01*
X0285806Y0011444D01*
X0285820Y0011591D01*
X0285838Y0011738D01*
X0285859Y0011884D01*
X0285885Y0012030D01*
X0285915Y0012175D01*
X0285948Y0012319D01*
X0285986Y0012462D01*
X0286027Y0012604D01*
X0286072Y0012745D01*
X0286120Y0012885D01*
X0286173Y0013024D01*
X0286229Y0013161D01*
X0286289Y0013296D01*
X0286352Y0013430D01*
X0286419Y0013562D01*
X0286490Y0013692D01*
X0286564Y0013820D01*
X0286641Y0013946D01*
X0286722Y0014070D01*
X0286806Y0014192D01*
X0286893Y0014311D01*
X0286984Y0014428D01*
X0287078Y0014543D01*
X0287174Y0014655D01*
X0287274Y0014765D01*
X0287376Y0014871D01*
X0287482Y0014975D01*
X0287590Y0015076D01*
X0287701Y0015174D01*
X0287814Y0015270D01*
X0287930Y0015362D01*
X0288048Y0015451D01*
X0288169Y0015536D01*
X0288292Y0015619D01*
X0288417Y0015698D01*
X0288544Y0015774D01*
X0288673Y0015846D01*
X0288804Y0015915D01*
X0288937Y0015980D01*
X0289072Y0016041D01*
X0289208Y0016099D01*
X0289345Y0016154D01*
X0289484Y0016204D01*
X0289625Y0016251D01*
X0289766Y0016294D01*
X0289909Y0016334D01*
X0290053Y0016369D01*
X0290197Y0016401D01*
X0290343Y0016428D01*
X0290489Y0016452D01*
X0290636Y0016472D01*
X0290783Y0016488D01*
X0290930Y0016500D01*
X0291078Y0016508D01*
X0291226Y0016512D01*
X0291374Y0016512D01*
X0291522Y0016508D01*
X0291670Y0016500D01*
X0291817Y0016488D01*
X0291964Y0016472D01*
X0292111Y0016452D01*
X0292257Y0016428D01*
X0292403Y0016401D01*
X0292547Y0016369D01*
X0292691Y0016334D01*
X0292834Y0016294D01*
X0292975Y0016251D01*
X0293116Y0016204D01*
X0293255Y0016154D01*
X0293392Y0016099D01*
X0293528Y0016041D01*
X0293663Y0015980D01*
X0293796Y0015915D01*
X0293927Y0015846D01*
X0294056Y0015774D01*
X0294183Y0015698D01*
X0294308Y0015619D01*
X0294431Y0015536D01*
X0294552Y0015451D01*
X0294670Y0015362D01*
X0294786Y0015270D01*
X0294899Y0015174D01*
X0295010Y0015076D01*
X0295118Y0014975D01*
X0295224Y0014871D01*
X0295326Y0014765D01*
X0295426Y0014655D01*
X0295522Y0014543D01*
X0295616Y0014428D01*
X0295707Y0014311D01*
X0295794Y0014192D01*
X0295878Y0014070D01*
X0295959Y0013946D01*
X0296036Y0013820D01*
X0296110Y0013692D01*
X0296181Y0013562D01*
X0296248Y0013430D01*
X0296311Y0013296D01*
X0296371Y0013161D01*
X0296427Y0013024D01*
X0296480Y0012885D01*
X0296528Y0012745D01*
X0296573Y0012604D01*
X0296614Y0012462D01*
X0296652Y0012319D01*
X0296685Y0012175D01*
X0296715Y0012030D01*
X0296741Y0011884D01*
X0296762Y0011738D01*
X0296780Y0011591D01*
X0296794Y0011444D01*
X0296804Y0011296D01*
X0296810Y0011148D01*
X0296812Y0011000D01*
X0296810Y0010852D01*
X0296804Y0010704D01*
X0296794Y0010556D01*
X0296780Y0010409D01*
X0296762Y0010262D01*
X0296741Y0010116D01*
X0296715Y0009970D01*
X0296685Y0009825D01*
X0296652Y0009681D01*
X0296614Y0009538D01*
X0296573Y0009396D01*
X0296528Y0009255D01*
X0296480Y0009115D01*
X0296427Y0008976D01*
X0296371Y0008839D01*
X0296311Y0008704D01*
X0296248Y0008570D01*
X0296181Y0008438D01*
X0296110Y0008308D01*
X0296036Y0008180D01*
X0295959Y0008054D01*
X0295878Y0007930D01*
X0295794Y0007808D01*
X0295707Y0007689D01*
X0295616Y0007572D01*
X0295522Y0007457D01*
X0295426Y0007345D01*
X0295326Y0007235D01*
X0295224Y0007129D01*
X0295118Y0007025D01*
X0295010Y0006924D01*
X0294899Y0006826D01*
X0294786Y0006730D01*
X0294670Y0006638D01*
X0294552Y0006549D01*
X0294431Y0006464D01*
X0294308Y0006381D01*
X0294183Y0006302D01*
X0294056Y0006226D01*
X0293927Y0006154D01*
X0293796Y0006085D01*
X0293663Y0006020D01*
X0293528Y0005959D01*
X0293392Y0005901D01*
X0293255Y0005846D01*
X0293116Y0005796D01*
X0292975Y0005749D01*
X0292834Y0005706D01*
X0292691Y0005666D01*
X0292547Y0005631D01*
X0292403Y0005599D01*
X0292257Y0005572D01*
X0292111Y0005548D01*
X0291964Y0005528D01*
X0291817Y0005512D01*
X0291670Y0005500D01*
X0291522Y0005492D01*
X0291374Y0005488D01*
X0291226Y0005488D01*
X0291078Y0005492D01*
X0290930Y0005500D01*
X0290783Y0005512D01*
X0290636Y0005528D01*
X0290489Y0005548D01*
X0290343Y0005572D01*
X0290197Y0005599D01*
X0290053Y0005631D01*
X0289909Y0005666D01*
X0289766Y0005706D01*
X0289625Y0005749D01*
X0289484Y0005796D01*
X0289345Y0005846D01*
X0289208Y0005901D01*
X0289072Y0005959D01*
X0288937Y0006020D01*
X0288804Y0006085D01*
X0288673Y0006154D01*
X0288544Y0006226D01*
X0288417Y0006302D01*
X0288292Y0006381D01*
X0288169Y0006464D01*
X0288048Y0006549D01*
X0287930Y0006638D01*
X0287814Y0006730D01*
X0287701Y0006826D01*
X0287590Y0006924D01*
X0287482Y0007025D01*
X0287376Y0007129D01*
X0287274Y0007235D01*
X0287174Y0007345D01*
X0287078Y0007457D01*
X0286984Y0007572D01*
X0286893Y0007689D01*
X0286806Y0007808D01*
X0286722Y0007930D01*
X0286641Y0008054D01*
X0286564Y0008180D01*
X0286490Y0008308D01*
X0286419Y0008438D01*
X0286352Y0008570D01*
X0286289Y0008704D01*
X0286229Y0008839D01*
X0286173Y0008976D01*
X0286120Y0009115D01*
X0286072Y0009255D01*
X0286027Y0009396D01*
X0285986Y0009538D01*
X0285948Y0009681D01*
X0285915Y0009825D01*
X0285885Y0009970D01*
X0285859Y0010116D01*
X0285838Y0010262D01*
X0285820Y0010409D01*
X0285806Y0010556D01*
X0285796Y0010704D01*
X0285790Y0010852D01*
X0285788Y0011000D01*
X0400788Y0011000D02*
X0400790Y0011148D01*
X0400796Y0011296D01*
X0400806Y0011444D01*
X0400820Y0011591D01*
X0400838Y0011738D01*
X0400859Y0011884D01*
X0400885Y0012030D01*
X0400915Y0012175D01*
X0400948Y0012319D01*
X0400986Y0012462D01*
X0401027Y0012604D01*
X0401072Y0012745D01*
X0401120Y0012885D01*
X0401173Y0013024D01*
X0401229Y0013161D01*
X0401289Y0013296D01*
X0401352Y0013430D01*
X0401419Y0013562D01*
X0401490Y0013692D01*
X0401564Y0013820D01*
X0401641Y0013946D01*
X0401722Y0014070D01*
X0401806Y0014192D01*
X0401893Y0014311D01*
X0401984Y0014428D01*
X0402078Y0014543D01*
X0402174Y0014655D01*
X0402274Y0014765D01*
X0402376Y0014871D01*
X0402482Y0014975D01*
X0402590Y0015076D01*
X0402701Y0015174D01*
X0402814Y0015270D01*
X0402930Y0015362D01*
X0403048Y0015451D01*
X0403169Y0015536D01*
X0403292Y0015619D01*
X0403417Y0015698D01*
X0403544Y0015774D01*
X0403673Y0015846D01*
X0403804Y0015915D01*
X0403937Y0015980D01*
X0404072Y0016041D01*
X0404208Y0016099D01*
X0404345Y0016154D01*
X0404484Y0016204D01*
X0404625Y0016251D01*
X0404766Y0016294D01*
X0404909Y0016334D01*
X0405053Y0016369D01*
X0405197Y0016401D01*
X0405343Y0016428D01*
X0405489Y0016452D01*
X0405636Y0016472D01*
X0405783Y0016488D01*
X0405930Y0016500D01*
X0406078Y0016508D01*
X0406226Y0016512D01*
X0406374Y0016512D01*
X0406522Y0016508D01*
X0406670Y0016500D01*
X0406817Y0016488D01*
X0406964Y0016472D01*
X0407111Y0016452D01*
X0407257Y0016428D01*
X0407403Y0016401D01*
X0407547Y0016369D01*
X0407691Y0016334D01*
X0407834Y0016294D01*
X0407975Y0016251D01*
X0408116Y0016204D01*
X0408255Y0016154D01*
X0408392Y0016099D01*
X0408528Y0016041D01*
X0408663Y0015980D01*
X0408796Y0015915D01*
X0408927Y0015846D01*
X0409056Y0015774D01*
X0409183Y0015698D01*
X0409308Y0015619D01*
X0409431Y0015536D01*
X0409552Y0015451D01*
X0409670Y0015362D01*
X0409786Y0015270D01*
X0409899Y0015174D01*
X0410010Y0015076D01*
X0410118Y0014975D01*
X0410224Y0014871D01*
X0410326Y0014765D01*
X0410426Y0014655D01*
X0410522Y0014543D01*
X0410616Y0014428D01*
X0410707Y0014311D01*
X0410794Y0014192D01*
X0410878Y0014070D01*
X0410959Y0013946D01*
X0411036Y0013820D01*
X0411110Y0013692D01*
X0411181Y0013562D01*
X0411248Y0013430D01*
X0411311Y0013296D01*
X0411371Y0013161D01*
X0411427Y0013024D01*
X0411480Y0012885D01*
X0411528Y0012745D01*
X0411573Y0012604D01*
X0411614Y0012462D01*
X0411652Y0012319D01*
X0411685Y0012175D01*
X0411715Y0012030D01*
X0411741Y0011884D01*
X0411762Y0011738D01*
X0411780Y0011591D01*
X0411794Y0011444D01*
X0411804Y0011296D01*
X0411810Y0011148D01*
X0411812Y0011000D01*
X0411810Y0010852D01*
X0411804Y0010704D01*
X0411794Y0010556D01*
X0411780Y0010409D01*
X0411762Y0010262D01*
X0411741Y0010116D01*
X0411715Y0009970D01*
X0411685Y0009825D01*
X0411652Y0009681D01*
X0411614Y0009538D01*
X0411573Y0009396D01*
X0411528Y0009255D01*
X0411480Y0009115D01*
X0411427Y0008976D01*
X0411371Y0008839D01*
X0411311Y0008704D01*
X0411248Y0008570D01*
X0411181Y0008438D01*
X0411110Y0008308D01*
X0411036Y0008180D01*
X0410959Y0008054D01*
X0410878Y0007930D01*
X0410794Y0007808D01*
X0410707Y0007689D01*
X0410616Y0007572D01*
X0410522Y0007457D01*
X0410426Y0007345D01*
X0410326Y0007235D01*
X0410224Y0007129D01*
X0410118Y0007025D01*
X0410010Y0006924D01*
X0409899Y0006826D01*
X0409786Y0006730D01*
X0409670Y0006638D01*
X0409552Y0006549D01*
X0409431Y0006464D01*
X0409308Y0006381D01*
X0409183Y0006302D01*
X0409056Y0006226D01*
X0408927Y0006154D01*
X0408796Y0006085D01*
X0408663Y0006020D01*
X0408528Y0005959D01*
X0408392Y0005901D01*
X0408255Y0005846D01*
X0408116Y0005796D01*
X0407975Y0005749D01*
X0407834Y0005706D01*
X0407691Y0005666D01*
X0407547Y0005631D01*
X0407403Y0005599D01*
X0407257Y0005572D01*
X0407111Y0005548D01*
X0406964Y0005528D01*
X0406817Y0005512D01*
X0406670Y0005500D01*
X0406522Y0005492D01*
X0406374Y0005488D01*
X0406226Y0005488D01*
X0406078Y0005492D01*
X0405930Y0005500D01*
X0405783Y0005512D01*
X0405636Y0005528D01*
X0405489Y0005548D01*
X0405343Y0005572D01*
X0405197Y0005599D01*
X0405053Y0005631D01*
X0404909Y0005666D01*
X0404766Y0005706D01*
X0404625Y0005749D01*
X0404484Y0005796D01*
X0404345Y0005846D01*
X0404208Y0005901D01*
X0404072Y0005959D01*
X0403937Y0006020D01*
X0403804Y0006085D01*
X0403673Y0006154D01*
X0403544Y0006226D01*
X0403417Y0006302D01*
X0403292Y0006381D01*
X0403169Y0006464D01*
X0403048Y0006549D01*
X0402930Y0006638D01*
X0402814Y0006730D01*
X0402701Y0006826D01*
X0402590Y0006924D01*
X0402482Y0007025D01*
X0402376Y0007129D01*
X0402274Y0007235D01*
X0402174Y0007345D01*
X0402078Y0007457D01*
X0401984Y0007572D01*
X0401893Y0007689D01*
X0401806Y0007808D01*
X0401722Y0007930D01*
X0401641Y0008054D01*
X0401564Y0008180D01*
X0401490Y0008308D01*
X0401419Y0008438D01*
X0401352Y0008570D01*
X0401289Y0008704D01*
X0401229Y0008839D01*
X0401173Y0008976D01*
X0401120Y0009115D01*
X0401072Y0009255D01*
X0401027Y0009396D01*
X0400986Y0009538D01*
X0400948Y0009681D01*
X0400915Y0009825D01*
X0400885Y0009970D01*
X0400859Y0010116D01*
X0400838Y0010262D01*
X0400820Y0010409D01*
X0400806Y0010556D01*
X0400796Y0010704D01*
X0400790Y0010852D01*
X0400788Y0011000D01*
X0400788Y0186000D02*
X0400790Y0186148D01*
X0400796Y0186296D01*
X0400806Y0186444D01*
X0400820Y0186591D01*
X0400838Y0186738D01*
X0400859Y0186884D01*
X0400885Y0187030D01*
X0400915Y0187175D01*
X0400948Y0187319D01*
X0400986Y0187462D01*
X0401027Y0187604D01*
X0401072Y0187745D01*
X0401120Y0187885D01*
X0401173Y0188024D01*
X0401229Y0188161D01*
X0401289Y0188296D01*
X0401352Y0188430D01*
X0401419Y0188562D01*
X0401490Y0188692D01*
X0401564Y0188820D01*
X0401641Y0188946D01*
X0401722Y0189070D01*
X0401806Y0189192D01*
X0401893Y0189311D01*
X0401984Y0189428D01*
X0402078Y0189543D01*
X0402174Y0189655D01*
X0402274Y0189765D01*
X0402376Y0189871D01*
X0402482Y0189975D01*
X0402590Y0190076D01*
X0402701Y0190174D01*
X0402814Y0190270D01*
X0402930Y0190362D01*
X0403048Y0190451D01*
X0403169Y0190536D01*
X0403292Y0190619D01*
X0403417Y0190698D01*
X0403544Y0190774D01*
X0403673Y0190846D01*
X0403804Y0190915D01*
X0403937Y0190980D01*
X0404072Y0191041D01*
X0404208Y0191099D01*
X0404345Y0191154D01*
X0404484Y0191204D01*
X0404625Y0191251D01*
X0404766Y0191294D01*
X0404909Y0191334D01*
X0405053Y0191369D01*
X0405197Y0191401D01*
X0405343Y0191428D01*
X0405489Y0191452D01*
X0405636Y0191472D01*
X0405783Y0191488D01*
X0405930Y0191500D01*
X0406078Y0191508D01*
X0406226Y0191512D01*
X0406374Y0191512D01*
X0406522Y0191508D01*
X0406670Y0191500D01*
X0406817Y0191488D01*
X0406964Y0191472D01*
X0407111Y0191452D01*
X0407257Y0191428D01*
X0407403Y0191401D01*
X0407547Y0191369D01*
X0407691Y0191334D01*
X0407834Y0191294D01*
X0407975Y0191251D01*
X0408116Y0191204D01*
X0408255Y0191154D01*
X0408392Y0191099D01*
X0408528Y0191041D01*
X0408663Y0190980D01*
X0408796Y0190915D01*
X0408927Y0190846D01*
X0409056Y0190774D01*
X0409183Y0190698D01*
X0409308Y0190619D01*
X0409431Y0190536D01*
X0409552Y0190451D01*
X0409670Y0190362D01*
X0409786Y0190270D01*
X0409899Y0190174D01*
X0410010Y0190076D01*
X0410118Y0189975D01*
X0410224Y0189871D01*
X0410326Y0189765D01*
X0410426Y0189655D01*
X0410522Y0189543D01*
X0410616Y0189428D01*
X0410707Y0189311D01*
X0410794Y0189192D01*
X0410878Y0189070D01*
X0410959Y0188946D01*
X0411036Y0188820D01*
X0411110Y0188692D01*
X0411181Y0188562D01*
X0411248Y0188430D01*
X0411311Y0188296D01*
X0411371Y0188161D01*
X0411427Y0188024D01*
X0411480Y0187885D01*
X0411528Y0187745D01*
X0411573Y0187604D01*
X0411614Y0187462D01*
X0411652Y0187319D01*
X0411685Y0187175D01*
X0411715Y0187030D01*
X0411741Y0186884D01*
X0411762Y0186738D01*
X0411780Y0186591D01*
X0411794Y0186444D01*
X0411804Y0186296D01*
X0411810Y0186148D01*
X0411812Y0186000D01*
X0411810Y0185852D01*
X0411804Y0185704D01*
X0411794Y0185556D01*
X0411780Y0185409D01*
X0411762Y0185262D01*
X0411741Y0185116D01*
X0411715Y0184970D01*
X0411685Y0184825D01*
X0411652Y0184681D01*
X0411614Y0184538D01*
X0411573Y0184396D01*
X0411528Y0184255D01*
X0411480Y0184115D01*
X0411427Y0183976D01*
X0411371Y0183839D01*
X0411311Y0183704D01*
X0411248Y0183570D01*
X0411181Y0183438D01*
X0411110Y0183308D01*
X0411036Y0183180D01*
X0410959Y0183054D01*
X0410878Y0182930D01*
X0410794Y0182808D01*
X0410707Y0182689D01*
X0410616Y0182572D01*
X0410522Y0182457D01*
X0410426Y0182345D01*
X0410326Y0182235D01*
X0410224Y0182129D01*
X0410118Y0182025D01*
X0410010Y0181924D01*
X0409899Y0181826D01*
X0409786Y0181730D01*
X0409670Y0181638D01*
X0409552Y0181549D01*
X0409431Y0181464D01*
X0409308Y0181381D01*
X0409183Y0181302D01*
X0409056Y0181226D01*
X0408927Y0181154D01*
X0408796Y0181085D01*
X0408663Y0181020D01*
X0408528Y0180959D01*
X0408392Y0180901D01*
X0408255Y0180846D01*
X0408116Y0180796D01*
X0407975Y0180749D01*
X0407834Y0180706D01*
X0407691Y0180666D01*
X0407547Y0180631D01*
X0407403Y0180599D01*
X0407257Y0180572D01*
X0407111Y0180548D01*
X0406964Y0180528D01*
X0406817Y0180512D01*
X0406670Y0180500D01*
X0406522Y0180492D01*
X0406374Y0180488D01*
X0406226Y0180488D01*
X0406078Y0180492D01*
X0405930Y0180500D01*
X0405783Y0180512D01*
X0405636Y0180528D01*
X0405489Y0180548D01*
X0405343Y0180572D01*
X0405197Y0180599D01*
X0405053Y0180631D01*
X0404909Y0180666D01*
X0404766Y0180706D01*
X0404625Y0180749D01*
X0404484Y0180796D01*
X0404345Y0180846D01*
X0404208Y0180901D01*
X0404072Y0180959D01*
X0403937Y0181020D01*
X0403804Y0181085D01*
X0403673Y0181154D01*
X0403544Y0181226D01*
X0403417Y0181302D01*
X0403292Y0181381D01*
X0403169Y0181464D01*
X0403048Y0181549D01*
X0402930Y0181638D01*
X0402814Y0181730D01*
X0402701Y0181826D01*
X0402590Y0181924D01*
X0402482Y0182025D01*
X0402376Y0182129D01*
X0402274Y0182235D01*
X0402174Y0182345D01*
X0402078Y0182457D01*
X0401984Y0182572D01*
X0401893Y0182689D01*
X0401806Y0182808D01*
X0401722Y0182930D01*
X0401641Y0183054D01*
X0401564Y0183180D01*
X0401490Y0183308D01*
X0401419Y0183438D01*
X0401352Y0183570D01*
X0401289Y0183704D01*
X0401229Y0183839D01*
X0401173Y0183976D01*
X0401120Y0184115D01*
X0401072Y0184255D01*
X0401027Y0184396D01*
X0400986Y0184538D01*
X0400948Y0184681D01*
X0400915Y0184825D01*
X0400885Y0184970D01*
X0400859Y0185116D01*
X0400838Y0185262D01*
X0400820Y0185409D01*
X0400806Y0185556D01*
X0400796Y0185704D01*
X0400790Y0185852D01*
X0400788Y0186000D01*
X0285788Y0186000D02*
X0285790Y0186148D01*
X0285796Y0186296D01*
X0285806Y0186444D01*
X0285820Y0186591D01*
X0285838Y0186738D01*
X0285859Y0186884D01*
X0285885Y0187030D01*
X0285915Y0187175D01*
X0285948Y0187319D01*
X0285986Y0187462D01*
X0286027Y0187604D01*
X0286072Y0187745D01*
X0286120Y0187885D01*
X0286173Y0188024D01*
X0286229Y0188161D01*
X0286289Y0188296D01*
X0286352Y0188430D01*
X0286419Y0188562D01*
X0286490Y0188692D01*
X0286564Y0188820D01*
X0286641Y0188946D01*
X0286722Y0189070D01*
X0286806Y0189192D01*
X0286893Y0189311D01*
X0286984Y0189428D01*
X0287078Y0189543D01*
X0287174Y0189655D01*
X0287274Y0189765D01*
X0287376Y0189871D01*
X0287482Y0189975D01*
X0287590Y0190076D01*
X0287701Y0190174D01*
X0287814Y0190270D01*
X0287930Y0190362D01*
X0288048Y0190451D01*
X0288169Y0190536D01*
X0288292Y0190619D01*
X0288417Y0190698D01*
X0288544Y0190774D01*
X0288673Y0190846D01*
X0288804Y0190915D01*
X0288937Y0190980D01*
X0289072Y0191041D01*
X0289208Y0191099D01*
X0289345Y0191154D01*
X0289484Y0191204D01*
X0289625Y0191251D01*
X0289766Y0191294D01*
X0289909Y0191334D01*
X0290053Y0191369D01*
X0290197Y0191401D01*
X0290343Y0191428D01*
X0290489Y0191452D01*
X0290636Y0191472D01*
X0290783Y0191488D01*
X0290930Y0191500D01*
X0291078Y0191508D01*
X0291226Y0191512D01*
X0291374Y0191512D01*
X0291522Y0191508D01*
X0291670Y0191500D01*
X0291817Y0191488D01*
X0291964Y0191472D01*
X0292111Y0191452D01*
X0292257Y0191428D01*
X0292403Y0191401D01*
X0292547Y0191369D01*
X0292691Y0191334D01*
X0292834Y0191294D01*
X0292975Y0191251D01*
X0293116Y0191204D01*
X0293255Y0191154D01*
X0293392Y0191099D01*
X0293528Y0191041D01*
X0293663Y0190980D01*
X0293796Y0190915D01*
X0293927Y0190846D01*
X0294056Y0190774D01*
X0294183Y0190698D01*
X0294308Y0190619D01*
X0294431Y0190536D01*
X0294552Y0190451D01*
X0294670Y0190362D01*
X0294786Y0190270D01*
X0294899Y0190174D01*
X0295010Y0190076D01*
X0295118Y0189975D01*
X0295224Y0189871D01*
X0295326Y0189765D01*
X0295426Y0189655D01*
X0295522Y0189543D01*
X0295616Y0189428D01*
X0295707Y0189311D01*
X0295794Y0189192D01*
X0295878Y0189070D01*
X0295959Y0188946D01*
X0296036Y0188820D01*
X0296110Y0188692D01*
X0296181Y0188562D01*
X0296248Y0188430D01*
X0296311Y0188296D01*
X0296371Y0188161D01*
X0296427Y0188024D01*
X0296480Y0187885D01*
X0296528Y0187745D01*
X0296573Y0187604D01*
X0296614Y0187462D01*
X0296652Y0187319D01*
X0296685Y0187175D01*
X0296715Y0187030D01*
X0296741Y0186884D01*
X0296762Y0186738D01*
X0296780Y0186591D01*
X0296794Y0186444D01*
X0296804Y0186296D01*
X0296810Y0186148D01*
X0296812Y0186000D01*
X0296810Y0185852D01*
X0296804Y0185704D01*
X0296794Y0185556D01*
X0296780Y0185409D01*
X0296762Y0185262D01*
X0296741Y0185116D01*
X0296715Y0184970D01*
X0296685Y0184825D01*
X0296652Y0184681D01*
X0296614Y0184538D01*
X0296573Y0184396D01*
X0296528Y0184255D01*
X0296480Y0184115D01*
X0296427Y0183976D01*
X0296371Y0183839D01*
X0296311Y0183704D01*
X0296248Y0183570D01*
X0296181Y0183438D01*
X0296110Y0183308D01*
X0296036Y0183180D01*
X0295959Y0183054D01*
X0295878Y0182930D01*
X0295794Y0182808D01*
X0295707Y0182689D01*
X0295616Y0182572D01*
X0295522Y0182457D01*
X0295426Y0182345D01*
X0295326Y0182235D01*
X0295224Y0182129D01*
X0295118Y0182025D01*
X0295010Y0181924D01*
X0294899Y0181826D01*
X0294786Y0181730D01*
X0294670Y0181638D01*
X0294552Y0181549D01*
X0294431Y0181464D01*
X0294308Y0181381D01*
X0294183Y0181302D01*
X0294056Y0181226D01*
X0293927Y0181154D01*
X0293796Y0181085D01*
X0293663Y0181020D01*
X0293528Y0180959D01*
X0293392Y0180901D01*
X0293255Y0180846D01*
X0293116Y0180796D01*
X0292975Y0180749D01*
X0292834Y0180706D01*
X0292691Y0180666D01*
X0292547Y0180631D01*
X0292403Y0180599D01*
X0292257Y0180572D01*
X0292111Y0180548D01*
X0291964Y0180528D01*
X0291817Y0180512D01*
X0291670Y0180500D01*
X0291522Y0180492D01*
X0291374Y0180488D01*
X0291226Y0180488D01*
X0291078Y0180492D01*
X0290930Y0180500D01*
X0290783Y0180512D01*
X0290636Y0180528D01*
X0290489Y0180548D01*
X0290343Y0180572D01*
X0290197Y0180599D01*
X0290053Y0180631D01*
X0289909Y0180666D01*
X0289766Y0180706D01*
X0289625Y0180749D01*
X0289484Y0180796D01*
X0289345Y0180846D01*
X0289208Y0180901D01*
X0289072Y0180959D01*
X0288937Y0181020D01*
X0288804Y0181085D01*
X0288673Y0181154D01*
X0288544Y0181226D01*
X0288417Y0181302D01*
X0288292Y0181381D01*
X0288169Y0181464D01*
X0288048Y0181549D01*
X0287930Y0181638D01*
X0287814Y0181730D01*
X0287701Y0181826D01*
X0287590Y0181924D01*
X0287482Y0182025D01*
X0287376Y0182129D01*
X0287274Y0182235D01*
X0287174Y0182345D01*
X0287078Y0182457D01*
X0286984Y0182572D01*
X0286893Y0182689D01*
X0286806Y0182808D01*
X0286722Y0182930D01*
X0286641Y0183054D01*
X0286564Y0183180D01*
X0286490Y0183308D01*
X0286419Y0183438D01*
X0286352Y0183570D01*
X0286289Y0183704D01*
X0286229Y0183839D01*
X0286173Y0183976D01*
X0286120Y0184115D01*
X0286072Y0184255D01*
X0286027Y0184396D01*
X0285986Y0184538D01*
X0285948Y0184681D01*
X0285915Y0184825D01*
X0285885Y0184970D01*
X0285859Y0185116D01*
X0285838Y0185262D01*
X0285820Y0185409D01*
X0285806Y0185556D01*
X0285796Y0185704D01*
X0285790Y0185852D01*
X0285788Y0186000D01*
X0053505Y0186000D02*
X0053507Y0186148D01*
X0053513Y0186296D01*
X0053523Y0186444D01*
X0053537Y0186591D01*
X0053555Y0186738D01*
X0053576Y0186884D01*
X0053602Y0187030D01*
X0053632Y0187175D01*
X0053665Y0187319D01*
X0053703Y0187462D01*
X0053744Y0187604D01*
X0053789Y0187745D01*
X0053837Y0187885D01*
X0053890Y0188024D01*
X0053946Y0188161D01*
X0054006Y0188296D01*
X0054069Y0188430D01*
X0054136Y0188562D01*
X0054207Y0188692D01*
X0054281Y0188820D01*
X0054358Y0188946D01*
X0054439Y0189070D01*
X0054523Y0189192D01*
X0054610Y0189311D01*
X0054701Y0189428D01*
X0054795Y0189543D01*
X0054891Y0189655D01*
X0054991Y0189765D01*
X0055093Y0189871D01*
X0055199Y0189975D01*
X0055307Y0190076D01*
X0055418Y0190174D01*
X0055531Y0190270D01*
X0055647Y0190362D01*
X0055765Y0190451D01*
X0055886Y0190536D01*
X0056009Y0190619D01*
X0056134Y0190698D01*
X0056261Y0190774D01*
X0056390Y0190846D01*
X0056521Y0190915D01*
X0056654Y0190980D01*
X0056789Y0191041D01*
X0056925Y0191099D01*
X0057062Y0191154D01*
X0057201Y0191204D01*
X0057342Y0191251D01*
X0057483Y0191294D01*
X0057626Y0191334D01*
X0057770Y0191369D01*
X0057914Y0191401D01*
X0058060Y0191428D01*
X0058206Y0191452D01*
X0058353Y0191472D01*
X0058500Y0191488D01*
X0058647Y0191500D01*
X0058795Y0191508D01*
X0058943Y0191512D01*
X0059091Y0191512D01*
X0059239Y0191508D01*
X0059387Y0191500D01*
X0059534Y0191488D01*
X0059681Y0191472D01*
X0059828Y0191452D01*
X0059974Y0191428D01*
X0060120Y0191401D01*
X0060264Y0191369D01*
X0060408Y0191334D01*
X0060551Y0191294D01*
X0060692Y0191251D01*
X0060833Y0191204D01*
X0060972Y0191154D01*
X0061109Y0191099D01*
X0061245Y0191041D01*
X0061380Y0190980D01*
X0061513Y0190915D01*
X0061644Y0190846D01*
X0061773Y0190774D01*
X0061900Y0190698D01*
X0062025Y0190619D01*
X0062148Y0190536D01*
X0062269Y0190451D01*
X0062387Y0190362D01*
X0062503Y0190270D01*
X0062616Y0190174D01*
X0062727Y0190076D01*
X0062835Y0189975D01*
X0062941Y0189871D01*
X0063043Y0189765D01*
X0063143Y0189655D01*
X0063239Y0189543D01*
X0063333Y0189428D01*
X0063424Y0189311D01*
X0063511Y0189192D01*
X0063595Y0189070D01*
X0063676Y0188946D01*
X0063753Y0188820D01*
X0063827Y0188692D01*
X0063898Y0188562D01*
X0063965Y0188430D01*
X0064028Y0188296D01*
X0064088Y0188161D01*
X0064144Y0188024D01*
X0064197Y0187885D01*
X0064245Y0187745D01*
X0064290Y0187604D01*
X0064331Y0187462D01*
X0064369Y0187319D01*
X0064402Y0187175D01*
X0064432Y0187030D01*
X0064458Y0186884D01*
X0064479Y0186738D01*
X0064497Y0186591D01*
X0064511Y0186444D01*
X0064521Y0186296D01*
X0064527Y0186148D01*
X0064529Y0186000D01*
X0064527Y0185852D01*
X0064521Y0185704D01*
X0064511Y0185556D01*
X0064497Y0185409D01*
X0064479Y0185262D01*
X0064458Y0185116D01*
X0064432Y0184970D01*
X0064402Y0184825D01*
X0064369Y0184681D01*
X0064331Y0184538D01*
X0064290Y0184396D01*
X0064245Y0184255D01*
X0064197Y0184115D01*
X0064144Y0183976D01*
X0064088Y0183839D01*
X0064028Y0183704D01*
X0063965Y0183570D01*
X0063898Y0183438D01*
X0063827Y0183308D01*
X0063753Y0183180D01*
X0063676Y0183054D01*
X0063595Y0182930D01*
X0063511Y0182808D01*
X0063424Y0182689D01*
X0063333Y0182572D01*
X0063239Y0182457D01*
X0063143Y0182345D01*
X0063043Y0182235D01*
X0062941Y0182129D01*
X0062835Y0182025D01*
X0062727Y0181924D01*
X0062616Y0181826D01*
X0062503Y0181730D01*
X0062387Y0181638D01*
X0062269Y0181549D01*
X0062148Y0181464D01*
X0062025Y0181381D01*
X0061900Y0181302D01*
X0061773Y0181226D01*
X0061644Y0181154D01*
X0061513Y0181085D01*
X0061380Y0181020D01*
X0061245Y0180959D01*
X0061109Y0180901D01*
X0060972Y0180846D01*
X0060833Y0180796D01*
X0060692Y0180749D01*
X0060551Y0180706D01*
X0060408Y0180666D01*
X0060264Y0180631D01*
X0060120Y0180599D01*
X0059974Y0180572D01*
X0059828Y0180548D01*
X0059681Y0180528D01*
X0059534Y0180512D01*
X0059387Y0180500D01*
X0059239Y0180492D01*
X0059091Y0180488D01*
X0058943Y0180488D01*
X0058795Y0180492D01*
X0058647Y0180500D01*
X0058500Y0180512D01*
X0058353Y0180528D01*
X0058206Y0180548D01*
X0058060Y0180572D01*
X0057914Y0180599D01*
X0057770Y0180631D01*
X0057626Y0180666D01*
X0057483Y0180706D01*
X0057342Y0180749D01*
X0057201Y0180796D01*
X0057062Y0180846D01*
X0056925Y0180901D01*
X0056789Y0180959D01*
X0056654Y0181020D01*
X0056521Y0181085D01*
X0056390Y0181154D01*
X0056261Y0181226D01*
X0056134Y0181302D01*
X0056009Y0181381D01*
X0055886Y0181464D01*
X0055765Y0181549D01*
X0055647Y0181638D01*
X0055531Y0181730D01*
X0055418Y0181826D01*
X0055307Y0181924D01*
X0055199Y0182025D01*
X0055093Y0182129D01*
X0054991Y0182235D01*
X0054891Y0182345D01*
X0054795Y0182457D01*
X0054701Y0182572D01*
X0054610Y0182689D01*
X0054523Y0182808D01*
X0054439Y0182930D01*
X0054358Y0183054D01*
X0054281Y0183180D01*
X0054207Y0183308D01*
X0054136Y0183438D01*
X0054069Y0183570D01*
X0054006Y0183704D01*
X0053946Y0183839D01*
X0053890Y0183976D01*
X0053837Y0184115D01*
X0053789Y0184255D01*
X0053744Y0184396D01*
X0053703Y0184538D01*
X0053665Y0184681D01*
X0053632Y0184825D01*
X0053602Y0184970D01*
X0053576Y0185116D01*
X0053555Y0185262D01*
X0053537Y0185409D01*
X0053523Y0185556D01*
X0053513Y0185704D01*
X0053507Y0185852D01*
X0053505Y0186000D01*
X0030788Y0186000D02*
X0030790Y0186148D01*
X0030796Y0186296D01*
X0030806Y0186444D01*
X0030820Y0186591D01*
X0030838Y0186738D01*
X0030859Y0186884D01*
X0030885Y0187030D01*
X0030915Y0187175D01*
X0030948Y0187319D01*
X0030986Y0187462D01*
X0031027Y0187604D01*
X0031072Y0187745D01*
X0031120Y0187885D01*
X0031173Y0188024D01*
X0031229Y0188161D01*
X0031289Y0188296D01*
X0031352Y0188430D01*
X0031419Y0188562D01*
X0031490Y0188692D01*
X0031564Y0188820D01*
X0031641Y0188946D01*
X0031722Y0189070D01*
X0031806Y0189192D01*
X0031893Y0189311D01*
X0031984Y0189428D01*
X0032078Y0189543D01*
X0032174Y0189655D01*
X0032274Y0189765D01*
X0032376Y0189871D01*
X0032482Y0189975D01*
X0032590Y0190076D01*
X0032701Y0190174D01*
X0032814Y0190270D01*
X0032930Y0190362D01*
X0033048Y0190451D01*
X0033169Y0190536D01*
X0033292Y0190619D01*
X0033417Y0190698D01*
X0033544Y0190774D01*
X0033673Y0190846D01*
X0033804Y0190915D01*
X0033937Y0190980D01*
X0034072Y0191041D01*
X0034208Y0191099D01*
X0034345Y0191154D01*
X0034484Y0191204D01*
X0034625Y0191251D01*
X0034766Y0191294D01*
X0034909Y0191334D01*
X0035053Y0191369D01*
X0035197Y0191401D01*
X0035343Y0191428D01*
X0035489Y0191452D01*
X0035636Y0191472D01*
X0035783Y0191488D01*
X0035930Y0191500D01*
X0036078Y0191508D01*
X0036226Y0191512D01*
X0036374Y0191512D01*
X0036522Y0191508D01*
X0036670Y0191500D01*
X0036817Y0191488D01*
X0036964Y0191472D01*
X0037111Y0191452D01*
X0037257Y0191428D01*
X0037403Y0191401D01*
X0037547Y0191369D01*
X0037691Y0191334D01*
X0037834Y0191294D01*
X0037975Y0191251D01*
X0038116Y0191204D01*
X0038255Y0191154D01*
X0038392Y0191099D01*
X0038528Y0191041D01*
X0038663Y0190980D01*
X0038796Y0190915D01*
X0038927Y0190846D01*
X0039056Y0190774D01*
X0039183Y0190698D01*
X0039308Y0190619D01*
X0039431Y0190536D01*
X0039552Y0190451D01*
X0039670Y0190362D01*
X0039786Y0190270D01*
X0039899Y0190174D01*
X0040010Y0190076D01*
X0040118Y0189975D01*
X0040224Y0189871D01*
X0040326Y0189765D01*
X0040426Y0189655D01*
X0040522Y0189543D01*
X0040616Y0189428D01*
X0040707Y0189311D01*
X0040794Y0189192D01*
X0040878Y0189070D01*
X0040959Y0188946D01*
X0041036Y0188820D01*
X0041110Y0188692D01*
X0041181Y0188562D01*
X0041248Y0188430D01*
X0041311Y0188296D01*
X0041371Y0188161D01*
X0041427Y0188024D01*
X0041480Y0187885D01*
X0041528Y0187745D01*
X0041573Y0187604D01*
X0041614Y0187462D01*
X0041652Y0187319D01*
X0041685Y0187175D01*
X0041715Y0187030D01*
X0041741Y0186884D01*
X0041762Y0186738D01*
X0041780Y0186591D01*
X0041794Y0186444D01*
X0041804Y0186296D01*
X0041810Y0186148D01*
X0041812Y0186000D01*
X0041810Y0185852D01*
X0041804Y0185704D01*
X0041794Y0185556D01*
X0041780Y0185409D01*
X0041762Y0185262D01*
X0041741Y0185116D01*
X0041715Y0184970D01*
X0041685Y0184825D01*
X0041652Y0184681D01*
X0041614Y0184538D01*
X0041573Y0184396D01*
X0041528Y0184255D01*
X0041480Y0184115D01*
X0041427Y0183976D01*
X0041371Y0183839D01*
X0041311Y0183704D01*
X0041248Y0183570D01*
X0041181Y0183438D01*
X0041110Y0183308D01*
X0041036Y0183180D01*
X0040959Y0183054D01*
X0040878Y0182930D01*
X0040794Y0182808D01*
X0040707Y0182689D01*
X0040616Y0182572D01*
X0040522Y0182457D01*
X0040426Y0182345D01*
X0040326Y0182235D01*
X0040224Y0182129D01*
X0040118Y0182025D01*
X0040010Y0181924D01*
X0039899Y0181826D01*
X0039786Y0181730D01*
X0039670Y0181638D01*
X0039552Y0181549D01*
X0039431Y0181464D01*
X0039308Y0181381D01*
X0039183Y0181302D01*
X0039056Y0181226D01*
X0038927Y0181154D01*
X0038796Y0181085D01*
X0038663Y0181020D01*
X0038528Y0180959D01*
X0038392Y0180901D01*
X0038255Y0180846D01*
X0038116Y0180796D01*
X0037975Y0180749D01*
X0037834Y0180706D01*
X0037691Y0180666D01*
X0037547Y0180631D01*
X0037403Y0180599D01*
X0037257Y0180572D01*
X0037111Y0180548D01*
X0036964Y0180528D01*
X0036817Y0180512D01*
X0036670Y0180500D01*
X0036522Y0180492D01*
X0036374Y0180488D01*
X0036226Y0180488D01*
X0036078Y0180492D01*
X0035930Y0180500D01*
X0035783Y0180512D01*
X0035636Y0180528D01*
X0035489Y0180548D01*
X0035343Y0180572D01*
X0035197Y0180599D01*
X0035053Y0180631D01*
X0034909Y0180666D01*
X0034766Y0180706D01*
X0034625Y0180749D01*
X0034484Y0180796D01*
X0034345Y0180846D01*
X0034208Y0180901D01*
X0034072Y0180959D01*
X0033937Y0181020D01*
X0033804Y0181085D01*
X0033673Y0181154D01*
X0033544Y0181226D01*
X0033417Y0181302D01*
X0033292Y0181381D01*
X0033169Y0181464D01*
X0033048Y0181549D01*
X0032930Y0181638D01*
X0032814Y0181730D01*
X0032701Y0181826D01*
X0032590Y0181924D01*
X0032482Y0182025D01*
X0032376Y0182129D01*
X0032274Y0182235D01*
X0032174Y0182345D01*
X0032078Y0182457D01*
X0031984Y0182572D01*
X0031893Y0182689D01*
X0031806Y0182808D01*
X0031722Y0182930D01*
X0031641Y0183054D01*
X0031564Y0183180D01*
X0031490Y0183308D01*
X0031419Y0183438D01*
X0031352Y0183570D01*
X0031289Y0183704D01*
X0031229Y0183839D01*
X0031173Y0183976D01*
X0031120Y0184115D01*
X0031072Y0184255D01*
X0031027Y0184396D01*
X0030986Y0184538D01*
X0030948Y0184681D01*
X0030915Y0184825D01*
X0030885Y0184970D01*
X0030859Y0185116D01*
X0030838Y0185262D01*
X0030820Y0185409D01*
X0030806Y0185556D01*
X0030796Y0185704D01*
X0030790Y0185852D01*
X0030788Y0186000D01*
D11*
X0073957Y0196000D02*
X0073957Y0166000D01*
X0118957Y0166000D01*
X0118957Y0196000D01*
X0073957Y0196000D01*
X0076457Y0193500D02*
X0116457Y0193500D01*
X0116457Y0171000D01*
X0115457Y0171000D01*
X0123957Y0166000D02*
X0168957Y0166000D01*
X0168957Y0196000D01*
X0123957Y0196000D01*
X0123957Y0166000D01*
X0126457Y0171000D02*
X0127457Y0171000D01*
X0126457Y0171000D02*
X0126457Y0193500D01*
X0166457Y0193500D01*
X0166457Y0171000D01*
X0165457Y0171000D01*
X0165410Y0171112D02*
X0165223Y0170900D01*
X0165032Y0170692D01*
X0164835Y0170490D01*
X0164634Y0170292D01*
X0164428Y0170099D01*
X0164218Y0169910D01*
X0164003Y0169727D01*
X0163784Y0169549D01*
X0163560Y0169377D01*
X0163333Y0169210D01*
X0163102Y0169048D01*
X0162866Y0168892D01*
X0162628Y0168741D01*
X0162385Y0168597D01*
X0162139Y0168458D01*
X0161890Y0168325D01*
X0161638Y0168198D01*
X0161383Y0168077D01*
X0161125Y0167962D01*
X0160865Y0167854D01*
X0160602Y0167751D01*
X0160336Y0167656D01*
X0160069Y0167566D01*
X0159799Y0167483D01*
X0159527Y0167406D01*
X0159254Y0167336D01*
X0158979Y0167272D01*
X0158702Y0167215D01*
X0158424Y0167165D01*
X0158146Y0167121D01*
X0157866Y0167084D01*
X0157585Y0167054D01*
X0157304Y0167030D01*
X0157022Y0167013D01*
X0156740Y0167003D01*
X0156458Y0167000D01*
X0147457Y0171000D02*
X0145457Y0171000D01*
X0145410Y0171112D02*
X0145223Y0170900D01*
X0145032Y0170692D01*
X0144835Y0170490D01*
X0144634Y0170292D01*
X0144428Y0170099D01*
X0144218Y0169910D01*
X0144003Y0169727D01*
X0143784Y0169549D01*
X0143560Y0169377D01*
X0143333Y0169210D01*
X0143102Y0169048D01*
X0142866Y0168892D01*
X0142628Y0168741D01*
X0142385Y0168597D01*
X0142139Y0168458D01*
X0141890Y0168325D01*
X0141638Y0168198D01*
X0141383Y0168077D01*
X0141125Y0167962D01*
X0140865Y0167854D01*
X0140602Y0167751D01*
X0140336Y0167656D01*
X0140069Y0167566D01*
X0139799Y0167483D01*
X0139527Y0167406D01*
X0139254Y0167336D01*
X0138979Y0167272D01*
X0138702Y0167215D01*
X0138424Y0167165D01*
X0138146Y0167121D01*
X0137866Y0167084D01*
X0137585Y0167054D01*
X0137304Y0167030D01*
X0137022Y0167013D01*
X0136740Y0167003D01*
X0136458Y0167000D01*
X0136169Y0167004D01*
X0135880Y0167014D01*
X0135592Y0167032D01*
X0135304Y0167057D01*
X0135017Y0167088D01*
X0134731Y0167127D01*
X0134446Y0167173D01*
X0134162Y0167226D01*
X0133879Y0167285D01*
X0133598Y0167352D01*
X0133319Y0167425D01*
X0133041Y0167505D01*
X0132766Y0167592D01*
X0132493Y0167686D01*
X0132222Y0167787D01*
X0131954Y0167893D01*
X0131688Y0168007D01*
X0131425Y0168127D01*
X0131166Y0168253D01*
X0130909Y0168386D01*
X0130656Y0168525D01*
X0130406Y0168670D01*
X0130160Y0168821D01*
X0129918Y0168978D01*
X0129679Y0169141D01*
X0129445Y0169310D01*
X0129215Y0169485D01*
X0128989Y0169665D01*
X0128768Y0169850D01*
X0128551Y0170041D01*
X0128339Y0170237D01*
X0128132Y0170439D01*
X0127930Y0170645D01*
X0127733Y0170856D01*
X0127541Y0171072D01*
X0115410Y0171112D02*
X0115223Y0170900D01*
X0115032Y0170692D01*
X0114835Y0170490D01*
X0114634Y0170292D01*
X0114428Y0170099D01*
X0114218Y0169910D01*
X0114003Y0169727D01*
X0113784Y0169549D01*
X0113560Y0169377D01*
X0113333Y0169210D01*
X0113102Y0169048D01*
X0112866Y0168892D01*
X0112628Y0168741D01*
X0112385Y0168597D01*
X0112139Y0168458D01*
X0111890Y0168325D01*
X0111638Y0168198D01*
X0111383Y0168077D01*
X0111125Y0167962D01*
X0110865Y0167854D01*
X0110602Y0167751D01*
X0110336Y0167656D01*
X0110069Y0167566D01*
X0109799Y0167483D01*
X0109527Y0167406D01*
X0109254Y0167336D01*
X0108979Y0167272D01*
X0108702Y0167215D01*
X0108424Y0167165D01*
X0108146Y0167121D01*
X0107866Y0167084D01*
X0107585Y0167054D01*
X0107304Y0167030D01*
X0107022Y0167013D01*
X0106740Y0167003D01*
X0106458Y0167000D01*
X0097457Y0171000D02*
X0095457Y0171000D01*
X0095410Y0171112D02*
X0095223Y0170900D01*
X0095032Y0170692D01*
X0094835Y0170490D01*
X0094634Y0170292D01*
X0094428Y0170099D01*
X0094218Y0169910D01*
X0094003Y0169727D01*
X0093784Y0169549D01*
X0093560Y0169377D01*
X0093333Y0169210D01*
X0093102Y0169048D01*
X0092866Y0168892D01*
X0092628Y0168741D01*
X0092385Y0168597D01*
X0092139Y0168458D01*
X0091890Y0168325D01*
X0091638Y0168198D01*
X0091383Y0168077D01*
X0091125Y0167962D01*
X0090865Y0167854D01*
X0090602Y0167751D01*
X0090336Y0167656D01*
X0090069Y0167566D01*
X0089799Y0167483D01*
X0089527Y0167406D01*
X0089254Y0167336D01*
X0088979Y0167272D01*
X0088702Y0167215D01*
X0088424Y0167165D01*
X0088146Y0167121D01*
X0087866Y0167084D01*
X0087585Y0167054D01*
X0087304Y0167030D01*
X0087022Y0167013D01*
X0086740Y0167003D01*
X0086458Y0167000D01*
X0077457Y0171000D02*
X0076457Y0171000D01*
X0076457Y0193500D01*
X0077541Y0171072D02*
X0077733Y0170856D01*
X0077930Y0170645D01*
X0078132Y0170439D01*
X0078339Y0170237D01*
X0078551Y0170041D01*
X0078768Y0169850D01*
X0078989Y0169665D01*
X0079215Y0169485D01*
X0079445Y0169310D01*
X0079679Y0169141D01*
X0079918Y0168978D01*
X0080160Y0168821D01*
X0080406Y0168670D01*
X0080656Y0168525D01*
X0080909Y0168386D01*
X0081166Y0168253D01*
X0081425Y0168127D01*
X0081688Y0168007D01*
X0081954Y0167893D01*
X0082222Y0167787D01*
X0082493Y0167686D01*
X0082766Y0167592D01*
X0083041Y0167505D01*
X0083319Y0167425D01*
X0083598Y0167352D01*
X0083879Y0167285D01*
X0084162Y0167226D01*
X0084446Y0167173D01*
X0084731Y0167127D01*
X0085017Y0167088D01*
X0085304Y0167057D01*
X0085592Y0167032D01*
X0085880Y0167014D01*
X0086169Y0167004D01*
X0086458Y0167000D01*
X0097540Y0171072D02*
X0097732Y0170856D01*
X0097929Y0170645D01*
X0098131Y0170438D01*
X0098338Y0170237D01*
X0098550Y0170041D01*
X0098767Y0169850D01*
X0098988Y0169664D01*
X0099214Y0169484D01*
X0099444Y0169310D01*
X0099679Y0169141D01*
X0099917Y0168978D01*
X0100159Y0168821D01*
X0100406Y0168670D01*
X0100655Y0168525D01*
X0100909Y0168386D01*
X0101165Y0168253D01*
X0101425Y0168127D01*
X0101688Y0168007D01*
X0101953Y0167893D01*
X0102221Y0167786D01*
X0102492Y0167686D01*
X0102766Y0167592D01*
X0103041Y0167505D01*
X0103318Y0167425D01*
X0103598Y0167352D01*
X0103879Y0167285D01*
X0104161Y0167225D01*
X0104445Y0167173D01*
X0104731Y0167127D01*
X0105017Y0167088D01*
X0105304Y0167056D01*
X0105592Y0167032D01*
X0105880Y0167014D01*
X0106169Y0167004D01*
X0106457Y0167000D01*
X0147540Y0171072D02*
X0147732Y0170856D01*
X0147929Y0170645D01*
X0148131Y0170438D01*
X0148338Y0170237D01*
X0148550Y0170041D01*
X0148767Y0169850D01*
X0148988Y0169664D01*
X0149214Y0169484D01*
X0149444Y0169310D01*
X0149679Y0169141D01*
X0149917Y0168978D01*
X0150159Y0168821D01*
X0150406Y0168670D01*
X0150655Y0168525D01*
X0150909Y0168386D01*
X0151165Y0168253D01*
X0151425Y0168127D01*
X0151688Y0168007D01*
X0151953Y0167893D01*
X0152221Y0167786D01*
X0152492Y0167686D01*
X0152766Y0167592D01*
X0153041Y0167505D01*
X0153318Y0167425D01*
X0153598Y0167352D01*
X0153879Y0167285D01*
X0154161Y0167225D01*
X0154445Y0167173D01*
X0154731Y0167127D01*
X0155017Y0167088D01*
X0155304Y0167056D01*
X0155592Y0167032D01*
X0155880Y0167014D01*
X0156169Y0167004D01*
X0156457Y0167000D01*
X0183957Y0166000D02*
X0228957Y0166000D01*
X0228957Y0196000D01*
X0183957Y0196000D01*
X0183957Y0166000D01*
X0186457Y0171000D02*
X0187457Y0171000D01*
X0186457Y0171000D02*
X0186457Y0193500D01*
X0226457Y0193500D01*
X0226457Y0171000D01*
X0225457Y0171000D01*
X0233957Y0166000D02*
X0278957Y0166000D01*
X0278957Y0196000D01*
X0233957Y0196000D01*
X0233957Y0166000D01*
X0236457Y0171000D02*
X0237457Y0171000D01*
X0236457Y0171000D02*
X0236457Y0193500D01*
X0276457Y0193500D01*
X0276457Y0171000D01*
X0275457Y0171000D01*
X0275410Y0171112D02*
X0275223Y0170900D01*
X0275032Y0170692D01*
X0274835Y0170490D01*
X0274634Y0170292D01*
X0274428Y0170099D01*
X0274218Y0169910D01*
X0274003Y0169727D01*
X0273784Y0169549D01*
X0273560Y0169377D01*
X0273333Y0169210D01*
X0273102Y0169048D01*
X0272866Y0168892D01*
X0272628Y0168741D01*
X0272385Y0168597D01*
X0272139Y0168458D01*
X0271890Y0168325D01*
X0271638Y0168198D01*
X0271383Y0168077D01*
X0271125Y0167962D01*
X0270865Y0167854D01*
X0270602Y0167751D01*
X0270336Y0167656D01*
X0270069Y0167566D01*
X0269799Y0167483D01*
X0269527Y0167406D01*
X0269254Y0167336D01*
X0268979Y0167272D01*
X0268702Y0167215D01*
X0268424Y0167165D01*
X0268146Y0167121D01*
X0267866Y0167084D01*
X0267585Y0167054D01*
X0267304Y0167030D01*
X0267022Y0167013D01*
X0266740Y0167003D01*
X0266458Y0167000D01*
X0257457Y0171000D02*
X0255457Y0171000D01*
X0255410Y0171112D02*
X0255223Y0170900D01*
X0255032Y0170692D01*
X0254835Y0170490D01*
X0254634Y0170292D01*
X0254428Y0170099D01*
X0254218Y0169910D01*
X0254003Y0169727D01*
X0253784Y0169549D01*
X0253560Y0169377D01*
X0253333Y0169210D01*
X0253102Y0169048D01*
X0252866Y0168892D01*
X0252628Y0168741D01*
X0252385Y0168597D01*
X0252139Y0168458D01*
X0251890Y0168325D01*
X0251638Y0168198D01*
X0251383Y0168077D01*
X0251125Y0167962D01*
X0250865Y0167854D01*
X0250602Y0167751D01*
X0250336Y0167656D01*
X0250069Y0167566D01*
X0249799Y0167483D01*
X0249527Y0167406D01*
X0249254Y0167336D01*
X0248979Y0167272D01*
X0248702Y0167215D01*
X0248424Y0167165D01*
X0248146Y0167121D01*
X0247866Y0167084D01*
X0247585Y0167054D01*
X0247304Y0167030D01*
X0247022Y0167013D01*
X0246740Y0167003D01*
X0246458Y0167000D01*
X0246169Y0167004D01*
X0245880Y0167014D01*
X0245592Y0167032D01*
X0245304Y0167057D01*
X0245017Y0167088D01*
X0244731Y0167127D01*
X0244446Y0167173D01*
X0244162Y0167226D01*
X0243879Y0167285D01*
X0243598Y0167352D01*
X0243319Y0167425D01*
X0243041Y0167505D01*
X0242766Y0167592D01*
X0242493Y0167686D01*
X0242222Y0167787D01*
X0241954Y0167893D01*
X0241688Y0168007D01*
X0241425Y0168127D01*
X0241166Y0168253D01*
X0240909Y0168386D01*
X0240656Y0168525D01*
X0240406Y0168670D01*
X0240160Y0168821D01*
X0239918Y0168978D01*
X0239679Y0169141D01*
X0239445Y0169310D01*
X0239215Y0169485D01*
X0238989Y0169665D01*
X0238768Y0169850D01*
X0238551Y0170041D01*
X0238339Y0170237D01*
X0238132Y0170439D01*
X0237930Y0170645D01*
X0237733Y0170856D01*
X0237541Y0171072D01*
X0225410Y0171112D02*
X0225223Y0170900D01*
X0225032Y0170692D01*
X0224835Y0170490D01*
X0224634Y0170292D01*
X0224428Y0170099D01*
X0224218Y0169910D01*
X0224003Y0169727D01*
X0223784Y0169549D01*
X0223560Y0169377D01*
X0223333Y0169210D01*
X0223102Y0169048D01*
X0222866Y0168892D01*
X0222628Y0168741D01*
X0222385Y0168597D01*
X0222139Y0168458D01*
X0221890Y0168325D01*
X0221638Y0168198D01*
X0221383Y0168077D01*
X0221125Y0167962D01*
X0220865Y0167854D01*
X0220602Y0167751D01*
X0220336Y0167656D01*
X0220069Y0167566D01*
X0219799Y0167483D01*
X0219527Y0167406D01*
X0219254Y0167336D01*
X0218979Y0167272D01*
X0218702Y0167215D01*
X0218424Y0167165D01*
X0218146Y0167121D01*
X0217866Y0167084D01*
X0217585Y0167054D01*
X0217304Y0167030D01*
X0217022Y0167013D01*
X0216740Y0167003D01*
X0216458Y0167000D01*
X0207457Y0171000D02*
X0205457Y0171000D01*
X0205410Y0171112D02*
X0205223Y0170900D01*
X0205032Y0170692D01*
X0204835Y0170490D01*
X0204634Y0170292D01*
X0204428Y0170099D01*
X0204218Y0169910D01*
X0204003Y0169727D01*
X0203784Y0169549D01*
X0203560Y0169377D01*
X0203333Y0169210D01*
X0203102Y0169048D01*
X0202866Y0168892D01*
X0202628Y0168741D01*
X0202385Y0168597D01*
X0202139Y0168458D01*
X0201890Y0168325D01*
X0201638Y0168198D01*
X0201383Y0168077D01*
X0201125Y0167962D01*
X0200865Y0167854D01*
X0200602Y0167751D01*
X0200336Y0167656D01*
X0200069Y0167566D01*
X0199799Y0167483D01*
X0199527Y0167406D01*
X0199254Y0167336D01*
X0198979Y0167272D01*
X0198702Y0167215D01*
X0198424Y0167165D01*
X0198146Y0167121D01*
X0197866Y0167084D01*
X0197585Y0167054D01*
X0197304Y0167030D01*
X0197022Y0167013D01*
X0196740Y0167003D01*
X0196458Y0167000D01*
X0196169Y0167004D01*
X0195880Y0167014D01*
X0195592Y0167032D01*
X0195304Y0167057D01*
X0195017Y0167088D01*
X0194731Y0167127D01*
X0194446Y0167173D01*
X0194162Y0167226D01*
X0193879Y0167285D01*
X0193598Y0167352D01*
X0193319Y0167425D01*
X0193041Y0167505D01*
X0192766Y0167592D01*
X0192493Y0167686D01*
X0192222Y0167787D01*
X0191954Y0167893D01*
X0191688Y0168007D01*
X0191425Y0168127D01*
X0191166Y0168253D01*
X0190909Y0168386D01*
X0190656Y0168525D01*
X0190406Y0168670D01*
X0190160Y0168821D01*
X0189918Y0168978D01*
X0189679Y0169141D01*
X0189445Y0169310D01*
X0189215Y0169485D01*
X0188989Y0169665D01*
X0188768Y0169850D01*
X0188551Y0170041D01*
X0188339Y0170237D01*
X0188132Y0170439D01*
X0187930Y0170645D01*
X0187733Y0170856D01*
X0187541Y0171072D01*
X0207540Y0171072D02*
X0207732Y0170856D01*
X0207929Y0170645D01*
X0208131Y0170438D01*
X0208338Y0170237D01*
X0208550Y0170041D01*
X0208767Y0169850D01*
X0208988Y0169664D01*
X0209214Y0169484D01*
X0209444Y0169310D01*
X0209679Y0169141D01*
X0209917Y0168978D01*
X0210159Y0168821D01*
X0210406Y0168670D01*
X0210655Y0168525D01*
X0210909Y0168386D01*
X0211165Y0168253D01*
X0211425Y0168127D01*
X0211688Y0168007D01*
X0211953Y0167893D01*
X0212221Y0167786D01*
X0212492Y0167686D01*
X0212766Y0167592D01*
X0213041Y0167505D01*
X0213318Y0167425D01*
X0213598Y0167352D01*
X0213879Y0167285D01*
X0214161Y0167225D01*
X0214445Y0167173D01*
X0214731Y0167127D01*
X0215017Y0167088D01*
X0215304Y0167056D01*
X0215592Y0167032D01*
X0215880Y0167014D01*
X0216169Y0167004D01*
X0216457Y0167000D01*
X0257540Y0171072D02*
X0257732Y0170856D01*
X0257929Y0170645D01*
X0258131Y0170438D01*
X0258338Y0170237D01*
X0258550Y0170041D01*
X0258767Y0169850D01*
X0258988Y0169664D01*
X0259214Y0169484D01*
X0259444Y0169310D01*
X0259679Y0169141D01*
X0259917Y0168978D01*
X0260159Y0168821D01*
X0260406Y0168670D01*
X0260655Y0168525D01*
X0260909Y0168386D01*
X0261165Y0168253D01*
X0261425Y0168127D01*
X0261688Y0168007D01*
X0261953Y0167893D01*
X0262221Y0167786D01*
X0262492Y0167686D01*
X0262766Y0167592D01*
X0263041Y0167505D01*
X0263318Y0167425D01*
X0263598Y0167352D01*
X0263879Y0167285D01*
X0264161Y0167225D01*
X0264445Y0167173D01*
X0264731Y0167127D01*
X0265017Y0167088D01*
X0265304Y0167056D01*
X0265592Y0167032D01*
X0265880Y0167014D01*
X0266169Y0167004D01*
X0266457Y0167000D01*
X0386300Y0123343D02*
X0386300Y0078343D01*
X0416300Y0078343D01*
X0416300Y0123343D01*
X0386300Y0123343D01*
X0391300Y0120843D02*
X0391300Y0119843D01*
X0391300Y0120843D02*
X0413800Y0120843D01*
X0413800Y0080843D01*
X0391300Y0080843D01*
X0391300Y0081843D01*
X0391412Y0081890D02*
X0391200Y0082077D01*
X0390992Y0082268D01*
X0390790Y0082465D01*
X0390592Y0082666D01*
X0390399Y0082872D01*
X0390210Y0083082D01*
X0390027Y0083297D01*
X0389849Y0083516D01*
X0389677Y0083740D01*
X0389510Y0083967D01*
X0389348Y0084198D01*
X0389192Y0084434D01*
X0389041Y0084672D01*
X0388897Y0084915D01*
X0388758Y0085161D01*
X0388625Y0085410D01*
X0388498Y0085662D01*
X0388377Y0085917D01*
X0388262Y0086175D01*
X0388154Y0086435D01*
X0388051Y0086698D01*
X0387956Y0086964D01*
X0387866Y0087231D01*
X0387783Y0087501D01*
X0387706Y0087773D01*
X0387636Y0088046D01*
X0387572Y0088321D01*
X0387515Y0088598D01*
X0387465Y0088876D01*
X0387421Y0089154D01*
X0387384Y0089434D01*
X0387354Y0089715D01*
X0387330Y0089996D01*
X0387313Y0090278D01*
X0387303Y0090560D01*
X0387300Y0090842D01*
X0387300Y0090843D02*
X0387304Y0091131D01*
X0387314Y0091420D01*
X0387332Y0091708D01*
X0387356Y0091996D01*
X0387388Y0092283D01*
X0387427Y0092569D01*
X0387473Y0092855D01*
X0387525Y0093139D01*
X0387585Y0093421D01*
X0387652Y0093702D01*
X0387725Y0093982D01*
X0387805Y0094259D01*
X0387892Y0094534D01*
X0387986Y0094808D01*
X0388086Y0095079D01*
X0388193Y0095347D01*
X0388307Y0095612D01*
X0388427Y0095875D01*
X0388553Y0096135D01*
X0388686Y0096391D01*
X0388825Y0096645D01*
X0388970Y0096894D01*
X0389121Y0097141D01*
X0389278Y0097383D01*
X0389441Y0097621D01*
X0389610Y0097856D01*
X0389784Y0098086D01*
X0389964Y0098312D01*
X0390150Y0098533D01*
X0390341Y0098750D01*
X0390537Y0098962D01*
X0390738Y0099169D01*
X0390945Y0099371D01*
X0391156Y0099568D01*
X0391372Y0099760D01*
X0391300Y0099843D02*
X0391300Y0101843D01*
X0391412Y0101890D02*
X0391200Y0102077D01*
X0390992Y0102268D01*
X0390790Y0102465D01*
X0390592Y0102666D01*
X0390399Y0102872D01*
X0390210Y0103082D01*
X0390027Y0103297D01*
X0389849Y0103516D01*
X0389677Y0103740D01*
X0389510Y0103967D01*
X0389348Y0104198D01*
X0389192Y0104434D01*
X0389041Y0104672D01*
X0388897Y0104915D01*
X0388758Y0105161D01*
X0388625Y0105410D01*
X0388498Y0105662D01*
X0388377Y0105917D01*
X0388262Y0106175D01*
X0388154Y0106435D01*
X0388051Y0106698D01*
X0387956Y0106964D01*
X0387866Y0107231D01*
X0387783Y0107501D01*
X0387706Y0107773D01*
X0387636Y0108046D01*
X0387572Y0108321D01*
X0387515Y0108598D01*
X0387465Y0108876D01*
X0387421Y0109154D01*
X0387384Y0109434D01*
X0387354Y0109715D01*
X0387330Y0109996D01*
X0387313Y0110278D01*
X0387303Y0110560D01*
X0387300Y0110842D01*
X0387304Y0111131D01*
X0387314Y0111420D01*
X0387332Y0111708D01*
X0387357Y0111996D01*
X0387388Y0112283D01*
X0387427Y0112569D01*
X0387473Y0112854D01*
X0387526Y0113138D01*
X0387585Y0113421D01*
X0387652Y0113702D01*
X0387725Y0113981D01*
X0387805Y0114259D01*
X0387892Y0114534D01*
X0387986Y0114807D01*
X0388087Y0115078D01*
X0388193Y0115346D01*
X0388307Y0115612D01*
X0388427Y0115875D01*
X0388553Y0116134D01*
X0388686Y0116391D01*
X0388825Y0116644D01*
X0388970Y0116894D01*
X0389121Y0117140D01*
X0389278Y0117382D01*
X0389441Y0117621D01*
X0389610Y0117855D01*
X0389785Y0118085D01*
X0389965Y0118311D01*
X0390150Y0118532D01*
X0390341Y0118749D01*
X0390537Y0118961D01*
X0390739Y0119168D01*
X0390945Y0119370D01*
X0391156Y0119567D01*
X0391372Y0119759D01*
X0271300Y0066500D02*
X0271300Y0055000D01*
X0270300Y0054000D01*
X0232300Y0054000D01*
X0231300Y0055000D01*
X0231300Y0066500D01*
X0211300Y0066500D02*
X0211300Y0055000D01*
X0210300Y0054000D01*
X0172300Y0054000D01*
X0171300Y0055000D01*
X0171300Y0066500D01*
X0136300Y0076000D02*
X0136303Y0076245D01*
X0136312Y0076491D01*
X0136327Y0076736D01*
X0136348Y0076980D01*
X0136375Y0077224D01*
X0136408Y0077467D01*
X0136447Y0077710D01*
X0136492Y0077951D01*
X0136543Y0078191D01*
X0136600Y0078430D01*
X0136662Y0078667D01*
X0136731Y0078903D01*
X0136805Y0079137D01*
X0136885Y0079369D01*
X0136970Y0079599D01*
X0137061Y0079827D01*
X0137158Y0080052D01*
X0137260Y0080276D01*
X0137368Y0080496D01*
X0137481Y0080714D01*
X0137599Y0080929D01*
X0137723Y0081141D01*
X0137851Y0081350D01*
X0137985Y0081556D01*
X0138124Y0081758D01*
X0138268Y0081957D01*
X0138417Y0082152D01*
X0138570Y0082344D01*
X0138728Y0082532D01*
X0138890Y0082716D01*
X0139058Y0082895D01*
X0139229Y0083071D01*
X0139405Y0083242D01*
X0139584Y0083410D01*
X0139768Y0083572D01*
X0139956Y0083730D01*
X0140148Y0083883D01*
X0140343Y0084032D01*
X0140542Y0084176D01*
X0140744Y0084315D01*
X0140950Y0084449D01*
X0141159Y0084577D01*
X0141371Y0084701D01*
X0141586Y0084819D01*
X0141804Y0084932D01*
X0142024Y0085040D01*
X0142248Y0085142D01*
X0142473Y0085239D01*
X0142701Y0085330D01*
X0142931Y0085415D01*
X0143163Y0085495D01*
X0143397Y0085569D01*
X0143633Y0085638D01*
X0143870Y0085700D01*
X0144109Y0085757D01*
X0144349Y0085808D01*
X0144590Y0085853D01*
X0144833Y0085892D01*
X0145076Y0085925D01*
X0145320Y0085952D01*
X0145564Y0085973D01*
X0145809Y0085988D01*
X0146055Y0085997D01*
X0146300Y0086000D01*
X0146545Y0085997D01*
X0146791Y0085988D01*
X0147036Y0085973D01*
X0147280Y0085952D01*
X0147524Y0085925D01*
X0147767Y0085892D01*
X0148010Y0085853D01*
X0148251Y0085808D01*
X0148491Y0085757D01*
X0148730Y0085700D01*
X0148967Y0085638D01*
X0149203Y0085569D01*
X0149437Y0085495D01*
X0149669Y0085415D01*
X0149899Y0085330D01*
X0150127Y0085239D01*
X0150352Y0085142D01*
X0150576Y0085040D01*
X0150796Y0084932D01*
X0151014Y0084819D01*
X0151229Y0084701D01*
X0151441Y0084577D01*
X0151650Y0084449D01*
X0151856Y0084315D01*
X0152058Y0084176D01*
X0152257Y0084032D01*
X0152452Y0083883D01*
X0152644Y0083730D01*
X0152832Y0083572D01*
X0153016Y0083410D01*
X0153195Y0083242D01*
X0153371Y0083071D01*
X0153542Y0082895D01*
X0153710Y0082716D01*
X0153872Y0082532D01*
X0154030Y0082344D01*
X0154183Y0082152D01*
X0154332Y0081957D01*
X0154476Y0081758D01*
X0154615Y0081556D01*
X0154749Y0081350D01*
X0154877Y0081141D01*
X0155001Y0080929D01*
X0155119Y0080714D01*
X0155232Y0080496D01*
X0155340Y0080276D01*
X0155442Y0080052D01*
X0155539Y0079827D01*
X0155630Y0079599D01*
X0155715Y0079369D01*
X0155795Y0079137D01*
X0155869Y0078903D01*
X0155938Y0078667D01*
X0156000Y0078430D01*
X0156057Y0078191D01*
X0156108Y0077951D01*
X0156153Y0077710D01*
X0156192Y0077467D01*
X0156225Y0077224D01*
X0156252Y0076980D01*
X0156273Y0076736D01*
X0156288Y0076491D01*
X0156297Y0076245D01*
X0156300Y0076000D01*
X0156297Y0075755D01*
X0156288Y0075509D01*
X0156273Y0075264D01*
X0156252Y0075020D01*
X0156225Y0074776D01*
X0156192Y0074533D01*
X0156153Y0074290D01*
X0156108Y0074049D01*
X0156057Y0073809D01*
X0156000Y0073570D01*
X0155938Y0073333D01*
X0155869Y0073097D01*
X0155795Y0072863D01*
X0155715Y0072631D01*
X0155630Y0072401D01*
X0155539Y0072173D01*
X0155442Y0071948D01*
X0155340Y0071724D01*
X0155232Y0071504D01*
X0155119Y0071286D01*
X0155001Y0071071D01*
X0154877Y0070859D01*
X0154749Y0070650D01*
X0154615Y0070444D01*
X0154476Y0070242D01*
X0154332Y0070043D01*
X0154183Y0069848D01*
X0154030Y0069656D01*
X0153872Y0069468D01*
X0153710Y0069284D01*
X0153542Y0069105D01*
X0153371Y0068929D01*
X0153195Y0068758D01*
X0153016Y0068590D01*
X0152832Y0068428D01*
X0152644Y0068270D01*
X0152452Y0068117D01*
X0152257Y0067968D01*
X0152058Y0067824D01*
X0151856Y0067685D01*
X0151650Y0067551D01*
X0151441Y0067423D01*
X0151229Y0067299D01*
X0151014Y0067181D01*
X0150796Y0067068D01*
X0150576Y0066960D01*
X0150352Y0066858D01*
X0150127Y0066761D01*
X0149899Y0066670D01*
X0149669Y0066585D01*
X0149437Y0066505D01*
X0149203Y0066431D01*
X0148967Y0066362D01*
X0148730Y0066300D01*
X0148491Y0066243D01*
X0148251Y0066192D01*
X0148010Y0066147D01*
X0147767Y0066108D01*
X0147524Y0066075D01*
X0147280Y0066048D01*
X0147036Y0066027D01*
X0146791Y0066012D01*
X0146545Y0066003D01*
X0146300Y0066000D01*
X0146055Y0066003D01*
X0145809Y0066012D01*
X0145564Y0066027D01*
X0145320Y0066048D01*
X0145076Y0066075D01*
X0144833Y0066108D01*
X0144590Y0066147D01*
X0144349Y0066192D01*
X0144109Y0066243D01*
X0143870Y0066300D01*
X0143633Y0066362D01*
X0143397Y0066431D01*
X0143163Y0066505D01*
X0142931Y0066585D01*
X0142701Y0066670D01*
X0142473Y0066761D01*
X0142248Y0066858D01*
X0142024Y0066960D01*
X0141804Y0067068D01*
X0141586Y0067181D01*
X0141371Y0067299D01*
X0141159Y0067423D01*
X0140950Y0067551D01*
X0140744Y0067685D01*
X0140542Y0067824D01*
X0140343Y0067968D01*
X0140148Y0068117D01*
X0139956Y0068270D01*
X0139768Y0068428D01*
X0139584Y0068590D01*
X0139405Y0068758D01*
X0139229Y0068929D01*
X0139058Y0069105D01*
X0138890Y0069284D01*
X0138728Y0069468D01*
X0138570Y0069656D01*
X0138417Y0069848D01*
X0138268Y0070043D01*
X0138124Y0070242D01*
X0137985Y0070444D01*
X0137851Y0070650D01*
X0137723Y0070859D01*
X0137599Y0071071D01*
X0137481Y0071286D01*
X0137368Y0071504D01*
X0137260Y0071724D01*
X0137158Y0071948D01*
X0137061Y0072173D01*
X0136970Y0072401D01*
X0136885Y0072631D01*
X0136805Y0072863D01*
X0136731Y0073097D01*
X0136662Y0073333D01*
X0136600Y0073570D01*
X0136543Y0073809D01*
X0136492Y0074049D01*
X0136447Y0074290D01*
X0136408Y0074533D01*
X0136375Y0074776D01*
X0136348Y0075020D01*
X0136327Y0075264D01*
X0136312Y0075509D01*
X0136303Y0075755D01*
X0136300Y0076000D01*
X0101300Y0076000D02*
X0101303Y0076245D01*
X0101312Y0076491D01*
X0101327Y0076736D01*
X0101348Y0076980D01*
X0101375Y0077224D01*
X0101408Y0077467D01*
X0101447Y0077710D01*
X0101492Y0077951D01*
X0101543Y0078191D01*
X0101600Y0078430D01*
X0101662Y0078667D01*
X0101731Y0078903D01*
X0101805Y0079137D01*
X0101885Y0079369D01*
X0101970Y0079599D01*
X0102061Y0079827D01*
X0102158Y0080052D01*
X0102260Y0080276D01*
X0102368Y0080496D01*
X0102481Y0080714D01*
X0102599Y0080929D01*
X0102723Y0081141D01*
X0102851Y0081350D01*
X0102985Y0081556D01*
X0103124Y0081758D01*
X0103268Y0081957D01*
X0103417Y0082152D01*
X0103570Y0082344D01*
X0103728Y0082532D01*
X0103890Y0082716D01*
X0104058Y0082895D01*
X0104229Y0083071D01*
X0104405Y0083242D01*
X0104584Y0083410D01*
X0104768Y0083572D01*
X0104956Y0083730D01*
X0105148Y0083883D01*
X0105343Y0084032D01*
X0105542Y0084176D01*
X0105744Y0084315D01*
X0105950Y0084449D01*
X0106159Y0084577D01*
X0106371Y0084701D01*
X0106586Y0084819D01*
X0106804Y0084932D01*
X0107024Y0085040D01*
X0107248Y0085142D01*
X0107473Y0085239D01*
X0107701Y0085330D01*
X0107931Y0085415D01*
X0108163Y0085495D01*
X0108397Y0085569D01*
X0108633Y0085638D01*
X0108870Y0085700D01*
X0109109Y0085757D01*
X0109349Y0085808D01*
X0109590Y0085853D01*
X0109833Y0085892D01*
X0110076Y0085925D01*
X0110320Y0085952D01*
X0110564Y0085973D01*
X0110809Y0085988D01*
X0111055Y0085997D01*
X0111300Y0086000D01*
X0111545Y0085997D01*
X0111791Y0085988D01*
X0112036Y0085973D01*
X0112280Y0085952D01*
X0112524Y0085925D01*
X0112767Y0085892D01*
X0113010Y0085853D01*
X0113251Y0085808D01*
X0113491Y0085757D01*
X0113730Y0085700D01*
X0113967Y0085638D01*
X0114203Y0085569D01*
X0114437Y0085495D01*
X0114669Y0085415D01*
X0114899Y0085330D01*
X0115127Y0085239D01*
X0115352Y0085142D01*
X0115576Y0085040D01*
X0115796Y0084932D01*
X0116014Y0084819D01*
X0116229Y0084701D01*
X0116441Y0084577D01*
X0116650Y0084449D01*
X0116856Y0084315D01*
X0117058Y0084176D01*
X0117257Y0084032D01*
X0117452Y0083883D01*
X0117644Y0083730D01*
X0117832Y0083572D01*
X0118016Y0083410D01*
X0118195Y0083242D01*
X0118371Y0083071D01*
X0118542Y0082895D01*
X0118710Y0082716D01*
X0118872Y0082532D01*
X0119030Y0082344D01*
X0119183Y0082152D01*
X0119332Y0081957D01*
X0119476Y0081758D01*
X0119615Y0081556D01*
X0119749Y0081350D01*
X0119877Y0081141D01*
X0120001Y0080929D01*
X0120119Y0080714D01*
X0120232Y0080496D01*
X0120340Y0080276D01*
X0120442Y0080052D01*
X0120539Y0079827D01*
X0120630Y0079599D01*
X0120715Y0079369D01*
X0120795Y0079137D01*
X0120869Y0078903D01*
X0120938Y0078667D01*
X0121000Y0078430D01*
X0121057Y0078191D01*
X0121108Y0077951D01*
X0121153Y0077710D01*
X0121192Y0077467D01*
X0121225Y0077224D01*
X0121252Y0076980D01*
X0121273Y0076736D01*
X0121288Y0076491D01*
X0121297Y0076245D01*
X0121300Y0076000D01*
X0121297Y0075755D01*
X0121288Y0075509D01*
X0121273Y0075264D01*
X0121252Y0075020D01*
X0121225Y0074776D01*
X0121192Y0074533D01*
X0121153Y0074290D01*
X0121108Y0074049D01*
X0121057Y0073809D01*
X0121000Y0073570D01*
X0120938Y0073333D01*
X0120869Y0073097D01*
X0120795Y0072863D01*
X0120715Y0072631D01*
X0120630Y0072401D01*
X0120539Y0072173D01*
X0120442Y0071948D01*
X0120340Y0071724D01*
X0120232Y0071504D01*
X0120119Y0071286D01*
X0120001Y0071071D01*
X0119877Y0070859D01*
X0119749Y0070650D01*
X0119615Y0070444D01*
X0119476Y0070242D01*
X0119332Y0070043D01*
X0119183Y0069848D01*
X0119030Y0069656D01*
X0118872Y0069468D01*
X0118710Y0069284D01*
X0118542Y0069105D01*
X0118371Y0068929D01*
X0118195Y0068758D01*
X0118016Y0068590D01*
X0117832Y0068428D01*
X0117644Y0068270D01*
X0117452Y0068117D01*
X0117257Y0067968D01*
X0117058Y0067824D01*
X0116856Y0067685D01*
X0116650Y0067551D01*
X0116441Y0067423D01*
X0116229Y0067299D01*
X0116014Y0067181D01*
X0115796Y0067068D01*
X0115576Y0066960D01*
X0115352Y0066858D01*
X0115127Y0066761D01*
X0114899Y0066670D01*
X0114669Y0066585D01*
X0114437Y0066505D01*
X0114203Y0066431D01*
X0113967Y0066362D01*
X0113730Y0066300D01*
X0113491Y0066243D01*
X0113251Y0066192D01*
X0113010Y0066147D01*
X0112767Y0066108D01*
X0112524Y0066075D01*
X0112280Y0066048D01*
X0112036Y0066027D01*
X0111791Y0066012D01*
X0111545Y0066003D01*
X0111300Y0066000D01*
X0111055Y0066003D01*
X0110809Y0066012D01*
X0110564Y0066027D01*
X0110320Y0066048D01*
X0110076Y0066075D01*
X0109833Y0066108D01*
X0109590Y0066147D01*
X0109349Y0066192D01*
X0109109Y0066243D01*
X0108870Y0066300D01*
X0108633Y0066362D01*
X0108397Y0066431D01*
X0108163Y0066505D01*
X0107931Y0066585D01*
X0107701Y0066670D01*
X0107473Y0066761D01*
X0107248Y0066858D01*
X0107024Y0066960D01*
X0106804Y0067068D01*
X0106586Y0067181D01*
X0106371Y0067299D01*
X0106159Y0067423D01*
X0105950Y0067551D01*
X0105744Y0067685D01*
X0105542Y0067824D01*
X0105343Y0067968D01*
X0105148Y0068117D01*
X0104956Y0068270D01*
X0104768Y0068428D01*
X0104584Y0068590D01*
X0104405Y0068758D01*
X0104229Y0068929D01*
X0104058Y0069105D01*
X0103890Y0069284D01*
X0103728Y0069468D01*
X0103570Y0069656D01*
X0103417Y0069848D01*
X0103268Y0070043D01*
X0103124Y0070242D01*
X0102985Y0070444D01*
X0102851Y0070650D01*
X0102723Y0070859D01*
X0102599Y0071071D01*
X0102481Y0071286D01*
X0102368Y0071504D01*
X0102260Y0071724D01*
X0102158Y0071948D01*
X0102061Y0072173D01*
X0101970Y0072401D01*
X0101885Y0072631D01*
X0101805Y0072863D01*
X0101731Y0073097D01*
X0101662Y0073333D01*
X0101600Y0073570D01*
X0101543Y0073809D01*
X0101492Y0074049D01*
X0101447Y0074290D01*
X0101408Y0074533D01*
X0101375Y0074776D01*
X0101348Y0075020D01*
X0101327Y0075264D01*
X0101312Y0075509D01*
X0101303Y0075755D01*
X0101300Y0076000D01*
X0083800Y0074500D02*
X0083800Y0067500D01*
X0083798Y0067440D01*
X0083793Y0067379D01*
X0083784Y0067320D01*
X0083771Y0067261D01*
X0083755Y0067202D01*
X0083735Y0067145D01*
X0083712Y0067090D01*
X0083685Y0067035D01*
X0083656Y0066983D01*
X0083623Y0066932D01*
X0083587Y0066883D01*
X0083549Y0066837D01*
X0083507Y0066793D01*
X0083463Y0066751D01*
X0083417Y0066713D01*
X0083368Y0066677D01*
X0083317Y0066644D01*
X0083265Y0066615D01*
X0083210Y0066588D01*
X0083155Y0066565D01*
X0083098Y0066545D01*
X0083039Y0066529D01*
X0082980Y0066516D01*
X0082921Y0066507D01*
X0082860Y0066502D01*
X0082800Y0066500D01*
X0081300Y0066500D01*
X0080800Y0067000D01*
X0061800Y0067000D01*
X0061300Y0066500D01*
X0059800Y0066500D01*
X0059740Y0066502D01*
X0059679Y0066507D01*
X0059620Y0066516D01*
X0059561Y0066529D01*
X0059502Y0066545D01*
X0059445Y0066565D01*
X0059390Y0066588D01*
X0059335Y0066615D01*
X0059283Y0066644D01*
X0059232Y0066677D01*
X0059183Y0066713D01*
X0059137Y0066751D01*
X0059093Y0066793D01*
X0059051Y0066837D01*
X0059013Y0066883D01*
X0058977Y0066932D01*
X0058944Y0066983D01*
X0058915Y0067035D01*
X0058888Y0067090D01*
X0058865Y0067145D01*
X0058845Y0067202D01*
X0058829Y0067261D01*
X0058816Y0067320D01*
X0058807Y0067379D01*
X0058802Y0067440D01*
X0058800Y0067500D01*
X0058800Y0074500D01*
X0058802Y0074560D01*
X0058807Y0074621D01*
X0058816Y0074680D01*
X0058829Y0074739D01*
X0058845Y0074798D01*
X0058865Y0074855D01*
X0058888Y0074910D01*
X0058915Y0074965D01*
X0058944Y0075017D01*
X0058977Y0075068D01*
X0059013Y0075117D01*
X0059051Y0075163D01*
X0059093Y0075207D01*
X0059137Y0075249D01*
X0059183Y0075287D01*
X0059232Y0075323D01*
X0059283Y0075356D01*
X0059335Y0075385D01*
X0059390Y0075412D01*
X0059445Y0075435D01*
X0059502Y0075455D01*
X0059561Y0075471D01*
X0059620Y0075484D01*
X0059679Y0075493D01*
X0059740Y0075498D01*
X0059800Y0075500D01*
X0061300Y0075500D01*
X0061800Y0075000D01*
X0080800Y0075000D01*
X0081300Y0075500D01*
X0082800Y0075500D01*
X0082860Y0075498D01*
X0082921Y0075493D01*
X0082980Y0075484D01*
X0083039Y0075471D01*
X0083098Y0075455D01*
X0083155Y0075435D01*
X0083210Y0075412D01*
X0083265Y0075385D01*
X0083317Y0075356D01*
X0083368Y0075323D01*
X0083417Y0075287D01*
X0083463Y0075249D01*
X0083507Y0075207D01*
X0083549Y0075163D01*
X0083587Y0075117D01*
X0083623Y0075068D01*
X0083656Y0075017D01*
X0083685Y0074965D01*
X0083712Y0074910D01*
X0083735Y0074855D01*
X0083755Y0074798D01*
X0083771Y0074739D01*
X0083784Y0074680D01*
X0083793Y0074621D01*
X0083798Y0074560D01*
X0083800Y0074500D01*
X0082800Y0065500D02*
X0081300Y0065500D01*
X0080800Y0065000D01*
X0061800Y0065000D01*
X0061300Y0065500D01*
X0059800Y0065500D01*
X0059740Y0065498D01*
X0059679Y0065493D01*
X0059620Y0065484D01*
X0059561Y0065471D01*
X0059502Y0065455D01*
X0059445Y0065435D01*
X0059390Y0065412D01*
X0059335Y0065385D01*
X0059283Y0065356D01*
X0059232Y0065323D01*
X0059183Y0065287D01*
X0059137Y0065249D01*
X0059093Y0065207D01*
X0059051Y0065163D01*
X0059013Y0065117D01*
X0058977Y0065068D01*
X0058944Y0065017D01*
X0058915Y0064965D01*
X0058888Y0064910D01*
X0058865Y0064855D01*
X0058845Y0064798D01*
X0058829Y0064739D01*
X0058816Y0064680D01*
X0058807Y0064621D01*
X0058802Y0064560D01*
X0058800Y0064500D01*
X0058800Y0057500D01*
X0058802Y0057440D01*
X0058807Y0057379D01*
X0058816Y0057320D01*
X0058829Y0057261D01*
X0058845Y0057202D01*
X0058865Y0057145D01*
X0058888Y0057090D01*
X0058915Y0057035D01*
X0058944Y0056983D01*
X0058977Y0056932D01*
X0059013Y0056883D01*
X0059051Y0056837D01*
X0059093Y0056793D01*
X0059137Y0056751D01*
X0059183Y0056713D01*
X0059232Y0056677D01*
X0059283Y0056644D01*
X0059335Y0056615D01*
X0059390Y0056588D01*
X0059445Y0056565D01*
X0059502Y0056545D01*
X0059561Y0056529D01*
X0059620Y0056516D01*
X0059679Y0056507D01*
X0059740Y0056502D01*
X0059800Y0056500D01*
X0061300Y0056500D01*
X0061800Y0057000D01*
X0080800Y0057000D01*
X0081300Y0056500D01*
X0082800Y0056500D01*
X0082860Y0056502D01*
X0082921Y0056507D01*
X0082980Y0056516D01*
X0083039Y0056529D01*
X0083098Y0056545D01*
X0083155Y0056565D01*
X0083210Y0056588D01*
X0083265Y0056615D01*
X0083317Y0056644D01*
X0083368Y0056677D01*
X0083417Y0056713D01*
X0083463Y0056751D01*
X0083507Y0056793D01*
X0083549Y0056837D01*
X0083587Y0056883D01*
X0083623Y0056932D01*
X0083656Y0056983D01*
X0083685Y0057035D01*
X0083712Y0057090D01*
X0083735Y0057145D01*
X0083755Y0057202D01*
X0083771Y0057261D01*
X0083784Y0057320D01*
X0083793Y0057379D01*
X0083798Y0057440D01*
X0083800Y0057500D01*
X0083800Y0064500D01*
X0083798Y0064560D01*
X0083793Y0064621D01*
X0083784Y0064680D01*
X0083771Y0064739D01*
X0083755Y0064798D01*
X0083735Y0064855D01*
X0083712Y0064910D01*
X0083685Y0064965D01*
X0083656Y0065017D01*
X0083623Y0065068D01*
X0083587Y0065117D01*
X0083549Y0065163D01*
X0083507Y0065207D01*
X0083463Y0065249D01*
X0083417Y0065287D01*
X0083368Y0065323D01*
X0083317Y0065356D01*
X0083265Y0065385D01*
X0083210Y0065412D01*
X0083155Y0065435D01*
X0083098Y0065455D01*
X0083039Y0065471D01*
X0082980Y0065484D01*
X0082921Y0065493D01*
X0082860Y0065498D01*
X0082800Y0065500D01*
X0061300Y0078657D02*
X0061300Y0123657D01*
X0031300Y0123657D01*
X0031300Y0078657D01*
X0061300Y0078657D01*
X0056300Y0081157D02*
X0056300Y0082157D01*
X0056300Y0081157D02*
X0033800Y0081157D01*
X0033800Y0121157D01*
X0056300Y0121157D01*
X0056300Y0120157D01*
X0056188Y0120110D02*
X0056400Y0119923D01*
X0056608Y0119732D01*
X0056810Y0119535D01*
X0057008Y0119334D01*
X0057201Y0119128D01*
X0057390Y0118918D01*
X0057573Y0118703D01*
X0057751Y0118484D01*
X0057923Y0118260D01*
X0058090Y0118033D01*
X0058252Y0117802D01*
X0058408Y0117566D01*
X0058559Y0117328D01*
X0058703Y0117085D01*
X0058842Y0116839D01*
X0058975Y0116590D01*
X0059102Y0116338D01*
X0059223Y0116083D01*
X0059338Y0115825D01*
X0059446Y0115565D01*
X0059549Y0115302D01*
X0059644Y0115036D01*
X0059734Y0114769D01*
X0059817Y0114499D01*
X0059894Y0114227D01*
X0059964Y0113954D01*
X0060028Y0113679D01*
X0060085Y0113402D01*
X0060135Y0113124D01*
X0060179Y0112846D01*
X0060216Y0112566D01*
X0060246Y0112285D01*
X0060270Y0112004D01*
X0060287Y0111722D01*
X0060297Y0111440D01*
X0060300Y0111158D01*
X0060300Y0111157D02*
X0060296Y0110869D01*
X0060286Y0110580D01*
X0060268Y0110292D01*
X0060244Y0110004D01*
X0060212Y0109717D01*
X0060173Y0109431D01*
X0060127Y0109145D01*
X0060075Y0108861D01*
X0060015Y0108579D01*
X0059948Y0108298D01*
X0059875Y0108018D01*
X0059795Y0107741D01*
X0059708Y0107466D01*
X0059614Y0107192D01*
X0059514Y0106921D01*
X0059407Y0106653D01*
X0059293Y0106388D01*
X0059173Y0106125D01*
X0059047Y0105865D01*
X0058914Y0105609D01*
X0058775Y0105355D01*
X0058630Y0105106D01*
X0058479Y0104859D01*
X0058322Y0104617D01*
X0058159Y0104379D01*
X0057990Y0104144D01*
X0057816Y0103914D01*
X0057636Y0103688D01*
X0057450Y0103467D01*
X0057259Y0103250D01*
X0057063Y0103038D01*
X0056862Y0102831D01*
X0056655Y0102629D01*
X0056444Y0102432D01*
X0056228Y0102240D01*
X0056300Y0102157D02*
X0056300Y0100157D01*
X0056188Y0100110D02*
X0056400Y0099923D01*
X0056608Y0099732D01*
X0056810Y0099535D01*
X0057008Y0099334D01*
X0057201Y0099128D01*
X0057390Y0098918D01*
X0057573Y0098703D01*
X0057751Y0098484D01*
X0057923Y0098260D01*
X0058090Y0098033D01*
X0058252Y0097802D01*
X0058408Y0097566D01*
X0058559Y0097328D01*
X0058703Y0097085D01*
X0058842Y0096839D01*
X0058975Y0096590D01*
X0059102Y0096338D01*
X0059223Y0096083D01*
X0059338Y0095825D01*
X0059446Y0095565D01*
X0059549Y0095302D01*
X0059644Y0095036D01*
X0059734Y0094769D01*
X0059817Y0094499D01*
X0059894Y0094227D01*
X0059964Y0093954D01*
X0060028Y0093679D01*
X0060085Y0093402D01*
X0060135Y0093124D01*
X0060179Y0092846D01*
X0060216Y0092566D01*
X0060246Y0092285D01*
X0060270Y0092004D01*
X0060287Y0091722D01*
X0060297Y0091440D01*
X0060300Y0091158D01*
X0060296Y0090869D01*
X0060286Y0090580D01*
X0060268Y0090292D01*
X0060243Y0090004D01*
X0060212Y0089717D01*
X0060173Y0089431D01*
X0060127Y0089146D01*
X0060074Y0088862D01*
X0060015Y0088579D01*
X0059948Y0088298D01*
X0059875Y0088019D01*
X0059795Y0087741D01*
X0059708Y0087466D01*
X0059614Y0087193D01*
X0059513Y0086922D01*
X0059407Y0086654D01*
X0059293Y0086388D01*
X0059173Y0086125D01*
X0059047Y0085866D01*
X0058914Y0085609D01*
X0058775Y0085356D01*
X0058630Y0085106D01*
X0058479Y0084860D01*
X0058322Y0084618D01*
X0058159Y0084379D01*
X0057990Y0084145D01*
X0057815Y0083915D01*
X0057635Y0083689D01*
X0057450Y0083468D01*
X0057259Y0083251D01*
X0057063Y0083039D01*
X0056861Y0082832D01*
X0056655Y0082630D01*
X0056444Y0082433D01*
X0056228Y0082241D01*
X0069100Y0046705D02*
X0071235Y0044570D01*
X0073370Y0046705D01*
X0073370Y0040300D01*
X0075545Y0041368D02*
X0076613Y0040300D01*
X0078748Y0040300D01*
X0079816Y0041368D01*
X0079816Y0043503D01*
X0078748Y0044570D01*
X0076613Y0044570D01*
X0075545Y0043503D01*
X0075545Y0041368D01*
X0069100Y0040300D02*
X0069100Y0046705D01*
X0081991Y0044570D02*
X0084126Y0044570D01*
X0083059Y0045638D02*
X0083059Y0041368D01*
X0084126Y0040300D01*
X0086288Y0041368D02*
X0087356Y0040300D01*
X0089491Y0040300D01*
X0090558Y0041368D01*
X0090558Y0043503D01*
X0089491Y0044570D01*
X0087356Y0044570D01*
X0086288Y0043503D01*
X0086288Y0041368D01*
X0092733Y0042435D02*
X0094869Y0044570D01*
X0095936Y0044570D01*
X0098105Y0044570D02*
X0102375Y0040300D01*
X0100240Y0040300D02*
X0099172Y0040300D01*
X0098105Y0041368D01*
X0098105Y0042435D01*
X0100240Y0044570D01*
X0100240Y0045638D01*
X0099172Y0046705D01*
X0098105Y0045638D01*
X0098105Y0044570D01*
X0102375Y0042435D02*
X0100240Y0040300D01*
X0104550Y0041368D02*
X0105618Y0040300D01*
X0107753Y0040300D01*
X0108821Y0041368D01*
X0108821Y0042435D01*
X0107753Y0043503D01*
X0105618Y0043503D01*
X0104550Y0044570D01*
X0104550Y0045638D01*
X0105618Y0046705D01*
X0107753Y0046705D01*
X0108821Y0045638D01*
X0110996Y0043503D02*
X0112063Y0044570D01*
X0114198Y0044570D01*
X0115266Y0043503D01*
X0115266Y0042435D01*
X0110996Y0042435D01*
X0110996Y0041368D02*
X0110996Y0043503D01*
X0110996Y0041368D02*
X0112063Y0040300D01*
X0114198Y0040300D01*
X0117441Y0040300D02*
X0117441Y0044570D01*
X0120644Y0044570D01*
X0121712Y0043503D01*
X0121712Y0040300D01*
X0123887Y0040300D02*
X0127089Y0040300D01*
X0128157Y0041368D01*
X0127089Y0042435D01*
X0124954Y0042435D01*
X0123887Y0043503D01*
X0124954Y0044570D01*
X0128157Y0044570D01*
X0130332Y0043503D02*
X0130332Y0041368D01*
X0131400Y0040300D01*
X0133535Y0040300D01*
X0134603Y0041368D01*
X0134603Y0043503D01*
X0133535Y0044570D01*
X0131400Y0044570D01*
X0130332Y0043503D01*
X0136778Y0044570D02*
X0136778Y0040300D01*
X0136778Y0042435D02*
X0138913Y0044570D01*
X0139980Y0044570D01*
X0148594Y0043503D02*
X0151797Y0043503D01*
X0152865Y0042435D01*
X0152865Y0041368D01*
X0151797Y0040300D01*
X0148594Y0040300D01*
X0148594Y0046705D01*
X0151797Y0046705D01*
X0152865Y0045638D01*
X0152865Y0044570D01*
X0151797Y0043503D01*
X0155040Y0043503D02*
X0155040Y0041368D01*
X0156108Y0040300D01*
X0158243Y0040300D01*
X0159310Y0041368D01*
X0159310Y0043503D01*
X0158243Y0044570D01*
X0156108Y0044570D01*
X0155040Y0043503D01*
X0161485Y0041368D02*
X0162553Y0040300D01*
X0165756Y0040300D01*
X0165756Y0043503D01*
X0164688Y0044570D01*
X0162553Y0044570D01*
X0162553Y0042435D02*
X0165756Y0042435D01*
X0167931Y0042435D02*
X0170066Y0044570D01*
X0171134Y0044570D01*
X0173302Y0043503D02*
X0174370Y0044570D01*
X0177573Y0044570D01*
X0177573Y0046705D02*
X0177573Y0040300D01*
X0174370Y0040300D01*
X0173302Y0041368D01*
X0173302Y0043503D01*
X0167931Y0044570D02*
X0167931Y0040300D01*
X0162553Y0042435D02*
X0161485Y0041368D01*
X0171300Y0033500D02*
X0173800Y0036000D01*
X0188800Y0036000D01*
X0191300Y0033500D01*
X0191300Y0028500D01*
X0193800Y0026000D01*
X0208800Y0026000D01*
X0211300Y0023500D01*
X0211300Y0018500D01*
X0213800Y0016000D01*
X0211300Y0013500D01*
X0211300Y0008500D01*
X0213800Y0006000D01*
X0228800Y0006000D01*
X0231300Y0008500D01*
X0231300Y0013500D01*
X0233800Y0016000D01*
X0248800Y0016000D01*
X0251300Y0013500D01*
X0251300Y0008500D01*
X0253800Y0006000D01*
X0268800Y0006000D01*
X0271300Y0008500D01*
X0271300Y0013500D01*
X0268800Y0016000D01*
X0253800Y0016000D01*
X0251300Y0013500D01*
X0251300Y0008500D01*
X0248800Y0006000D01*
X0233800Y0006000D01*
X0231300Y0008500D01*
X0231300Y0013500D01*
X0228800Y0016000D01*
X0213800Y0016000D01*
X0211300Y0018500D02*
X0208800Y0016000D01*
X0211300Y0013500D01*
X0211300Y0008500D01*
X0208800Y0006000D01*
X0193800Y0006000D01*
X0191300Y0008500D01*
X0191300Y0013500D01*
X0193800Y0016000D01*
X0208800Y0016000D01*
X0211300Y0018500D02*
X0211300Y0023500D01*
X0213800Y0026000D01*
X0228800Y0026000D01*
X0231300Y0023500D01*
X0231300Y0018500D01*
X0233800Y0016000D01*
X0231300Y0018500D02*
X0228800Y0016000D01*
X0231300Y0018500D02*
X0231300Y0023500D01*
X0233800Y0026000D01*
X0248800Y0026000D01*
X0251300Y0023500D01*
X0251300Y0018500D01*
X0253800Y0016000D01*
X0251300Y0018500D02*
X0248800Y0016000D01*
X0251300Y0018500D02*
X0251300Y0023500D01*
X0253800Y0026000D01*
X0268800Y0026000D01*
X0271300Y0023500D01*
X0271300Y0018500D01*
X0268800Y0016000D01*
X0268800Y0026000D02*
X0271300Y0028500D01*
X0271300Y0033500D01*
X0268800Y0036000D01*
X0253800Y0036000D01*
X0251300Y0033500D01*
X0251300Y0028500D01*
X0253800Y0026000D01*
X0251300Y0028500D02*
X0248800Y0026000D01*
X0251300Y0028500D02*
X0251300Y0033500D01*
X0248800Y0036000D01*
X0233800Y0036000D01*
X0231300Y0033500D01*
X0231300Y0028500D01*
X0233800Y0026000D01*
X0231300Y0028500D02*
X0228800Y0026000D01*
X0231300Y0028500D02*
X0231300Y0033500D01*
X0228800Y0036000D01*
X0213800Y0036000D01*
X0211300Y0033500D01*
X0211300Y0028500D01*
X0213800Y0026000D01*
X0211300Y0028500D02*
X0208800Y0026000D01*
X0211300Y0028500D02*
X0211300Y0033500D01*
X0208800Y0036000D01*
X0193800Y0036000D01*
X0191300Y0033500D01*
X0191300Y0028500D01*
X0188800Y0026000D01*
X0173800Y0026000D01*
X0171300Y0028500D01*
X0171300Y0033500D01*
X0170053Y0033003D02*
X0170053Y0031935D01*
X0165782Y0031935D01*
X0165782Y0030868D02*
X0165782Y0033003D01*
X0166850Y0034070D01*
X0168985Y0034070D01*
X0170053Y0033003D01*
X0168985Y0029800D02*
X0166850Y0029800D01*
X0165782Y0030868D01*
X0163607Y0029800D02*
X0163607Y0033003D01*
X0162540Y0034070D01*
X0159337Y0034070D01*
X0159337Y0029800D01*
X0157162Y0030868D02*
X0156094Y0031935D01*
X0153959Y0031935D01*
X0152891Y0033003D01*
X0153959Y0034070D01*
X0157162Y0034070D01*
X0157162Y0030868D02*
X0156094Y0029800D01*
X0152891Y0029800D01*
X0150716Y0031935D02*
X0146446Y0031935D01*
X0146446Y0030868D02*
X0146446Y0033003D01*
X0147514Y0034070D01*
X0149649Y0034070D01*
X0150716Y0033003D01*
X0150716Y0031935D01*
X0149649Y0029800D02*
X0147514Y0029800D01*
X0146446Y0030868D01*
X0144271Y0029800D02*
X0144271Y0033003D01*
X0143203Y0034070D01*
X0141068Y0034070D01*
X0140000Y0033003D01*
X0137825Y0034070D02*
X0134623Y0034070D01*
X0133555Y0033003D01*
X0133555Y0030868D01*
X0134623Y0029800D01*
X0137825Y0029800D01*
X0140000Y0029800D02*
X0140000Y0036205D01*
X0131380Y0034070D02*
X0131380Y0029800D01*
X0128177Y0029800D01*
X0127109Y0030868D01*
X0127109Y0034070D01*
X0124934Y0035138D02*
X0124934Y0030868D01*
X0123867Y0029800D01*
X0120664Y0029800D01*
X0120664Y0036205D01*
X0123867Y0036205D01*
X0124934Y0035138D01*
X0119570Y0025705D02*
X0116367Y0025705D01*
X0116367Y0019300D01*
X0116367Y0021435D02*
X0119570Y0021435D01*
X0120637Y0022503D01*
X0120637Y0024638D01*
X0119570Y0025705D01*
X0122812Y0022503D02*
X0123880Y0023570D01*
X0126015Y0023570D01*
X0127083Y0022503D01*
X0127083Y0020368D01*
X0126015Y0019300D01*
X0123880Y0019300D01*
X0122812Y0020368D01*
X0122812Y0022503D01*
X0120637Y0019300D02*
X0118502Y0021435D01*
X0129258Y0020368D02*
X0130326Y0019300D01*
X0133528Y0019300D01*
X0135703Y0019300D02*
X0135703Y0025705D01*
X0133528Y0023570D02*
X0130326Y0023570D01*
X0129258Y0022503D01*
X0129258Y0020368D01*
X0130306Y0015205D02*
X0126035Y0015205D01*
X0126035Y0012003D01*
X0128170Y0013070D01*
X0129238Y0013070D01*
X0130306Y0012003D01*
X0130306Y0009868D01*
X0129238Y0008800D01*
X0127103Y0008800D01*
X0126035Y0009868D01*
X0123860Y0008800D02*
X0119590Y0008800D01*
X0121725Y0008800D02*
X0121725Y0015205D01*
X0119590Y0013070D01*
X0117415Y0014138D02*
X0113144Y0009868D01*
X0114212Y0008800D01*
X0116347Y0008800D01*
X0117415Y0009868D01*
X0117415Y0014138D01*
X0116347Y0015205D01*
X0114212Y0015205D01*
X0113144Y0014138D01*
X0113144Y0009868D01*
X0110969Y0008800D02*
X0106699Y0008800D01*
X0110969Y0013070D01*
X0110969Y0014138D01*
X0109901Y0015205D01*
X0107766Y0015205D01*
X0106699Y0014138D01*
X0106692Y0019300D02*
X0106692Y0025705D01*
X0105624Y0025705D01*
X0103449Y0022503D02*
X0102382Y0023570D01*
X0100247Y0023570D01*
X0099179Y0022503D01*
X0099179Y0020368D01*
X0100247Y0019300D01*
X0102382Y0019300D01*
X0103449Y0021435D02*
X0099179Y0021435D01*
X0097004Y0021435D02*
X0093801Y0021435D01*
X0092733Y0020368D01*
X0093801Y0019300D01*
X0097004Y0019300D01*
X0097004Y0022503D01*
X0095936Y0023570D01*
X0093801Y0023570D01*
X0090558Y0022503D02*
X0090558Y0019300D01*
X0090558Y0022503D02*
X0089491Y0023570D01*
X0087356Y0023570D01*
X0086288Y0022503D01*
X0084113Y0023570D02*
X0080910Y0023570D01*
X0079842Y0022503D01*
X0079842Y0020368D01*
X0080910Y0019300D01*
X0084113Y0019300D01*
X0086288Y0019300D02*
X0086288Y0025705D01*
X0085194Y0029800D02*
X0081991Y0029800D01*
X0083059Y0031935D02*
X0081991Y0033003D01*
X0083059Y0034070D01*
X0086261Y0034070D01*
X0085194Y0031935D02*
X0083059Y0031935D01*
X0085194Y0031935D02*
X0086261Y0030868D01*
X0085194Y0029800D01*
X0088436Y0030868D02*
X0088436Y0033003D01*
X0089504Y0034070D01*
X0091639Y0034070D01*
X0092707Y0033003D01*
X0092707Y0031935D01*
X0088436Y0031935D01*
X0088436Y0030868D02*
X0089504Y0029800D01*
X0091639Y0029800D01*
X0094882Y0029800D02*
X0098085Y0029800D01*
X0099152Y0030868D01*
X0099152Y0033003D01*
X0098085Y0034070D01*
X0094882Y0034070D01*
X0094882Y0027665D01*
X0101327Y0029800D02*
X0101327Y0036205D01*
X0102395Y0034070D02*
X0104530Y0034070D01*
X0105598Y0033003D01*
X0105598Y0029800D01*
X0102395Y0034070D02*
X0101327Y0033003D01*
X0092733Y0040300D02*
X0092733Y0044570D01*
X0073370Y0036205D02*
X0071235Y0036205D01*
X0072303Y0036205D02*
X0072303Y0030868D01*
X0071235Y0029800D01*
X0070168Y0029800D01*
X0069100Y0030868D01*
X0075545Y0030868D02*
X0075545Y0033003D01*
X0076613Y0034070D01*
X0078748Y0034070D01*
X0079816Y0033003D01*
X0079816Y0030868D01*
X0078748Y0029800D01*
X0076613Y0029800D01*
X0075545Y0030868D01*
X0076613Y0026773D02*
X0076613Y0025705D01*
X0076613Y0023570D02*
X0075545Y0023570D01*
X0076613Y0023570D02*
X0076613Y0019300D01*
X0075545Y0019300D02*
X0077681Y0019300D01*
X0073370Y0019300D02*
X0073370Y0025705D01*
X0071235Y0023570D01*
X0069100Y0025705D01*
X0069100Y0019300D01*
X0069100Y0015205D02*
X0071235Y0013070D01*
X0073370Y0015205D01*
X0073370Y0008800D01*
X0075545Y0009868D02*
X0076613Y0010935D01*
X0079816Y0010935D01*
X0079816Y0012003D02*
X0079816Y0008800D01*
X0076613Y0008800D01*
X0075545Y0009868D01*
X0076613Y0013070D02*
X0078748Y0013070D01*
X0079816Y0012003D01*
X0081991Y0013070D02*
X0081991Y0008800D01*
X0081991Y0010935D02*
X0084126Y0013070D01*
X0085194Y0013070D01*
X0087362Y0012003D02*
X0087362Y0009868D01*
X0088430Y0008800D01*
X0091633Y0008800D01*
X0093808Y0008800D02*
X0093808Y0015205D01*
X0094875Y0013070D02*
X0093808Y0012003D01*
X0094875Y0013070D02*
X0097010Y0013070D01*
X0098078Y0012003D01*
X0098078Y0008800D01*
X0091633Y0013070D02*
X0088430Y0013070D01*
X0087362Y0012003D01*
X0069100Y0008800D02*
X0069100Y0015205D01*
X0103449Y0021435D02*
X0103449Y0022503D01*
X0105624Y0019300D02*
X0107760Y0019300D01*
X0135703Y0021435D02*
X0138906Y0023570D01*
X0141075Y0023570D02*
X0141075Y0020368D01*
X0142142Y0019300D01*
X0143210Y0020368D01*
X0144277Y0019300D01*
X0145345Y0020368D01*
X0145345Y0023570D01*
X0147520Y0022503D02*
X0147520Y0020368D01*
X0148588Y0019300D01*
X0150723Y0019300D01*
X0151791Y0020368D01*
X0151791Y0022503D01*
X0150723Y0023570D01*
X0148588Y0023570D01*
X0147520Y0022503D01*
X0138906Y0019300D02*
X0135703Y0021435D01*
X0153966Y0020368D02*
X0155033Y0019300D01*
X0157168Y0019300D01*
X0158236Y0020368D01*
X0158236Y0022503D01*
X0157168Y0023570D01*
X0155033Y0023570D01*
X0153966Y0022503D01*
X0153966Y0020368D01*
X0160411Y0020368D02*
X0160411Y0022503D01*
X0161479Y0023570D01*
X0164682Y0023570D01*
X0164682Y0025705D02*
X0164682Y0019300D01*
X0161479Y0019300D01*
X0160411Y0020368D01*
X0171300Y0018500D02*
X0173800Y0016000D01*
X0188800Y0016000D01*
X0191300Y0018500D01*
X0191300Y0023500D01*
X0193800Y0026000D01*
X0191300Y0023500D02*
X0191300Y0018500D01*
X0193800Y0016000D01*
X0191300Y0013500D02*
X0188800Y0016000D01*
X0191300Y0013500D02*
X0191300Y0008500D01*
X0188800Y0006000D01*
X0173800Y0006000D01*
X0171300Y0008500D01*
X0171300Y0013500D01*
X0173800Y0016000D01*
X0171300Y0018500D02*
X0171300Y0023500D01*
X0173800Y0026000D01*
X0188800Y0026000D02*
X0191300Y0023500D01*
D12*
X0171277Y0021769D02*
X0169742Y0018700D01*
X0168208Y0021769D01*
X0166673Y0021002D02*
X0166673Y0019467D01*
X0165906Y0018700D01*
X0164371Y0018700D01*
X0163604Y0019467D01*
X0163604Y0021002D02*
X0165139Y0021769D01*
X0165906Y0021769D01*
X0166673Y0021002D01*
X0166673Y0023304D02*
X0163604Y0023304D01*
X0163604Y0021002D01*
X0162069Y0021002D02*
X0159000Y0021002D01*
X0160535Y0022537D02*
X0160535Y0019467D01*
X0164371Y0014071D02*
X0164371Y0013304D01*
X0164371Y0011769D02*
X0164371Y0008700D01*
X0163604Y0008700D02*
X0165139Y0008700D01*
X0166673Y0009467D02*
X0167441Y0008700D01*
X0169742Y0008700D01*
X0169742Y0007933D02*
X0169742Y0011769D01*
X0167441Y0011769D01*
X0166673Y0011002D01*
X0166673Y0009467D01*
X0168208Y0007165D02*
X0168975Y0007165D01*
X0169742Y0007933D01*
X0162069Y0009467D02*
X0161302Y0008700D01*
X0159767Y0008700D01*
X0159000Y0009467D01*
X0159767Y0011002D02*
X0161302Y0011002D01*
X0162069Y0010235D01*
X0162069Y0009467D01*
X0159767Y0011002D02*
X0159000Y0011769D01*
X0159000Y0012537D01*
X0159767Y0013304D01*
X0161302Y0013304D01*
X0162069Y0012537D01*
X0163604Y0011769D02*
X0164371Y0011769D01*
X0165510Y0028700D02*
X0166277Y0029467D01*
X0166277Y0032537D01*
X0165510Y0033304D01*
X0163208Y0033304D01*
X0163208Y0028700D01*
X0165510Y0028700D01*
X0161673Y0028700D02*
X0161673Y0033304D01*
X0158604Y0033304D02*
X0161673Y0028700D01*
X0158604Y0028700D02*
X0158604Y0033304D01*
X0157069Y0032537D02*
X0156302Y0033304D01*
X0154767Y0033304D01*
X0154000Y0032537D01*
X0154000Y0029467D01*
X0154767Y0028700D01*
X0156302Y0028700D01*
X0157069Y0029467D01*
X0157069Y0031002D01*
X0155535Y0031002D01*
X0149742Y0056200D02*
X0151277Y0057735D01*
X0151277Y0060804D01*
X0148208Y0060804D02*
X0148208Y0057735D01*
X0149742Y0056200D01*
X0146673Y0056967D02*
X0145906Y0056200D01*
X0144371Y0056200D01*
X0143604Y0056967D01*
X0143604Y0058502D02*
X0145139Y0059269D01*
X0145906Y0059269D01*
X0146673Y0058502D01*
X0146673Y0056967D01*
X0143604Y0058502D02*
X0143604Y0060804D01*
X0146673Y0060804D01*
X0142069Y0058502D02*
X0139000Y0058502D01*
X0140535Y0060037D02*
X0140535Y0056967D01*
X0122218Y0059269D02*
X0121450Y0059269D01*
X0119916Y0057735D01*
X0119916Y0059269D02*
X0119916Y0056200D01*
X0118381Y0057735D02*
X0115312Y0057735D01*
X0115312Y0058502D02*
X0116079Y0059269D01*
X0117614Y0059269D01*
X0118381Y0058502D01*
X0118381Y0057735D01*
X0117614Y0056200D02*
X0116079Y0056200D01*
X0115312Y0056967D01*
X0115312Y0058502D01*
X0113777Y0059269D02*
X0113777Y0056967D01*
X0113010Y0056200D01*
X0112242Y0056967D01*
X0111475Y0056200D01*
X0110708Y0056967D01*
X0110708Y0059269D01*
X0109173Y0058502D02*
X0108406Y0059269D01*
X0106871Y0059269D01*
X0106104Y0058502D01*
X0106104Y0056967D01*
X0106871Y0056200D01*
X0108406Y0056200D01*
X0109173Y0056967D01*
X0109173Y0058502D01*
X0104569Y0058502D02*
X0104569Y0060037D01*
X0103802Y0060804D01*
X0101500Y0060804D01*
X0101500Y0056200D01*
X0101500Y0057735D02*
X0103802Y0057735D01*
X0104569Y0058502D01*
X0047416Y0073502D02*
X0044346Y0073502D01*
X0042812Y0074269D02*
X0041277Y0074269D01*
X0042044Y0075037D02*
X0042044Y0071967D01*
X0042812Y0071200D01*
X0039742Y0071200D02*
X0038975Y0071967D01*
X0038975Y0075037D01*
X0038208Y0074269D02*
X0039742Y0074269D01*
X0036673Y0073502D02*
X0036673Y0071200D01*
X0034371Y0071200D01*
X0033604Y0071967D01*
X0034371Y0072735D01*
X0036673Y0072735D01*
X0036673Y0073502D02*
X0035906Y0074269D01*
X0034371Y0074269D01*
X0032069Y0074269D02*
X0031302Y0073502D01*
X0029000Y0073502D01*
X0029000Y0071200D02*
X0029000Y0075804D01*
X0031302Y0075804D01*
X0032069Y0075037D01*
X0032069Y0074269D01*
X0031302Y0073502D02*
X0032069Y0072735D01*
X0032069Y0071967D01*
X0031302Y0071200D01*
X0029000Y0071200D01*
X0045881Y0071967D02*
X0045881Y0075037D01*
X0106500Y0121200D02*
X0108802Y0121200D01*
X0109569Y0121967D01*
X0109569Y0125037D01*
X0108802Y0125804D01*
X0106500Y0125804D01*
X0106500Y0121200D01*
X0111104Y0121200D02*
X0111104Y0125804D01*
X0113406Y0125804D01*
X0114173Y0125037D01*
X0114173Y0123502D01*
X0113406Y0122735D01*
X0111104Y0122735D01*
X0112639Y0122735D02*
X0114173Y0121200D01*
X0115708Y0122735D02*
X0117242Y0121200D01*
X0118777Y0122735D01*
X0118777Y0125804D01*
X0120312Y0125037D02*
X0120312Y0124269D01*
X0121079Y0123502D01*
X0122614Y0123502D01*
X0123381Y0122735D01*
X0123381Y0121967D01*
X0122614Y0121200D01*
X0121079Y0121200D01*
X0120312Y0121967D01*
X0120312Y0122735D01*
X0121079Y0123502D01*
X0122614Y0123502D02*
X0123381Y0124269D01*
X0123381Y0125037D01*
X0122614Y0125804D01*
X0121079Y0125804D01*
X0120312Y0125037D01*
X0124916Y0125037D02*
X0124916Y0124269D01*
X0125683Y0123502D01*
X0127218Y0123502D01*
X0127985Y0122735D01*
X0127985Y0121967D01*
X0127218Y0121200D01*
X0125683Y0121200D01*
X0124916Y0121967D01*
X0124916Y0122735D01*
X0125683Y0123502D01*
X0127218Y0123502D02*
X0127985Y0124269D01*
X0127985Y0125037D01*
X0127218Y0125804D01*
X0125683Y0125804D01*
X0124916Y0125037D01*
X0129520Y0125037D02*
X0130287Y0125804D01*
X0131822Y0125804D01*
X0132589Y0125037D01*
X0132589Y0124269D01*
X0131822Y0123502D01*
X0132589Y0122735D01*
X0132589Y0121967D01*
X0131822Y0121200D01*
X0130287Y0121200D01*
X0129520Y0121967D01*
X0131054Y0123502D02*
X0131822Y0123502D01*
X0134124Y0125037D02*
X0134891Y0125804D01*
X0136426Y0125804D01*
X0137193Y0125037D01*
X0137193Y0124269D01*
X0136426Y0123502D01*
X0137193Y0122735D01*
X0137193Y0121967D01*
X0136426Y0121200D01*
X0134891Y0121200D01*
X0134124Y0121967D01*
X0135658Y0123502D02*
X0136426Y0123502D01*
X0115708Y0122735D02*
X0115708Y0125804D01*
X0113727Y0157165D02*
X0114495Y0157933D01*
X0114495Y0161769D01*
X0112193Y0161769D01*
X0111426Y0161002D01*
X0111426Y0159467D01*
X0112193Y0158700D01*
X0114495Y0158700D01*
X0116029Y0158700D02*
X0116029Y0163304D01*
X0116797Y0161769D02*
X0116029Y0161002D01*
X0116797Y0161769D02*
X0118331Y0161769D01*
X0119099Y0161002D01*
X0119099Y0158700D01*
X0121401Y0159467D02*
X0122168Y0158700D01*
X0121401Y0159467D02*
X0121401Y0162537D01*
X0122168Y0161769D02*
X0120633Y0161769D01*
X0113727Y0157165D02*
X0112960Y0157165D01*
X0109891Y0158700D02*
X0108356Y0158700D01*
X0109124Y0158700D02*
X0109124Y0161769D01*
X0108356Y0161769D01*
X0106822Y0161002D02*
X0106054Y0160235D01*
X0103752Y0160235D01*
X0105287Y0160235D02*
X0106822Y0158700D01*
X0106822Y0161002D02*
X0106822Y0162537D01*
X0106054Y0163304D01*
X0103752Y0163304D01*
X0103752Y0158700D01*
X0097614Y0158700D02*
X0095312Y0160235D01*
X0097614Y0161769D01*
X0095312Y0163304D02*
X0095312Y0158700D01*
X0093777Y0158700D02*
X0091475Y0158700D01*
X0090708Y0159467D01*
X0090708Y0161002D01*
X0091475Y0161769D01*
X0093777Y0161769D01*
X0089173Y0161002D02*
X0089173Y0158700D01*
X0086871Y0158700D01*
X0086104Y0159467D01*
X0086871Y0160235D01*
X0089173Y0160235D01*
X0089173Y0161002D02*
X0088406Y0161769D01*
X0086871Y0161769D01*
X0084569Y0161769D02*
X0083802Y0161002D01*
X0081500Y0161002D01*
X0081500Y0158700D02*
X0081500Y0163304D01*
X0083802Y0163304D01*
X0084569Y0162537D01*
X0084569Y0161769D01*
X0083802Y0161002D02*
X0084569Y0160235D01*
X0084569Y0159467D01*
X0083802Y0158700D01*
X0081500Y0158700D01*
X0109124Y0163304D02*
X0109124Y0164071D01*
X0131500Y0163304D02*
X0131500Y0158700D01*
X0131500Y0161002D02*
X0133035Y0161002D01*
X0131500Y0163304D02*
X0134569Y0163304D01*
X0136104Y0161769D02*
X0136104Y0158700D01*
X0136104Y0160235D02*
X0137639Y0161769D01*
X0138406Y0161769D01*
X0139941Y0161002D02*
X0139941Y0159467D01*
X0140708Y0158700D01*
X0142242Y0158700D01*
X0143010Y0159467D01*
X0143010Y0161002D01*
X0142242Y0161769D01*
X0140708Y0161769D01*
X0139941Y0161002D01*
X0144544Y0161769D02*
X0144544Y0158700D01*
X0147614Y0158700D02*
X0147614Y0161002D01*
X0146846Y0161769D01*
X0144544Y0161769D01*
X0149148Y0161769D02*
X0150683Y0161769D01*
X0149916Y0162537D02*
X0149916Y0159467D01*
X0150683Y0158700D01*
X0156822Y0158700D02*
X0156822Y0163304D01*
X0159124Y0163304D01*
X0159891Y0162537D01*
X0159891Y0161002D01*
X0159124Y0160235D01*
X0156822Y0160235D01*
X0158356Y0160235D02*
X0159891Y0158700D01*
X0161426Y0158700D02*
X0162960Y0158700D01*
X0162193Y0158700D02*
X0162193Y0161769D01*
X0161426Y0161769D01*
X0162193Y0163304D02*
X0162193Y0164071D01*
X0165262Y0161769D02*
X0164495Y0161002D01*
X0164495Y0159467D01*
X0165262Y0158700D01*
X0167564Y0158700D01*
X0167564Y0157933D02*
X0167564Y0161769D01*
X0165262Y0161769D01*
X0169099Y0161002D02*
X0169866Y0161769D01*
X0171401Y0161769D01*
X0172168Y0161002D01*
X0172168Y0158700D01*
X0174470Y0159467D02*
X0175237Y0158700D01*
X0174470Y0159467D02*
X0174470Y0162537D01*
X0173703Y0161769D02*
X0175237Y0161769D01*
X0169099Y0163304D02*
X0169099Y0158700D01*
X0167564Y0157933D02*
X0166797Y0157165D01*
X0166029Y0157165D01*
X0191500Y0158700D02*
X0191500Y0163304D01*
X0194569Y0163304D01*
X0196104Y0161769D02*
X0196104Y0158700D01*
X0196104Y0160235D02*
X0197639Y0161769D01*
X0198406Y0161769D01*
X0199941Y0161002D02*
X0200708Y0161769D01*
X0202242Y0161769D01*
X0203010Y0161002D01*
X0203010Y0159467D01*
X0202242Y0158700D01*
X0200708Y0158700D01*
X0199941Y0159467D01*
X0199941Y0161002D01*
X0204544Y0161769D02*
X0204544Y0158700D01*
X0207614Y0158700D02*
X0207614Y0161002D01*
X0206846Y0161769D01*
X0204544Y0161769D01*
X0209148Y0161769D02*
X0210683Y0161769D01*
X0209916Y0162537D02*
X0209916Y0159467D01*
X0210683Y0158700D01*
X0216822Y0158700D02*
X0219891Y0158700D01*
X0221426Y0159467D02*
X0222193Y0158700D01*
X0223727Y0158700D01*
X0224495Y0160235D02*
X0221426Y0160235D01*
X0221426Y0161002D02*
X0222193Y0161769D01*
X0223727Y0161769D01*
X0224495Y0161002D01*
X0224495Y0160235D01*
X0226029Y0161002D02*
X0227564Y0161002D01*
X0226797Y0162537D02*
X0226797Y0158700D01*
X0229866Y0159467D02*
X0230633Y0158700D01*
X0229866Y0159467D02*
X0229866Y0162537D01*
X0229099Y0161769D02*
X0230633Y0161769D01*
X0227564Y0163304D02*
X0226797Y0162537D01*
X0221426Y0161002D02*
X0221426Y0159467D01*
X0216822Y0158700D02*
X0216822Y0163304D01*
X0239000Y0163304D02*
X0239000Y0158700D01*
X0241302Y0158700D01*
X0242069Y0159467D01*
X0242069Y0160235D01*
X0241302Y0161002D01*
X0239000Y0161002D01*
X0239000Y0163304D02*
X0241302Y0163304D01*
X0242069Y0162537D01*
X0242069Y0161769D01*
X0241302Y0161002D01*
X0243604Y0159467D02*
X0244371Y0158700D01*
X0246673Y0158700D01*
X0246673Y0161002D01*
X0245906Y0161769D01*
X0244371Y0161769D01*
X0244371Y0160235D02*
X0246673Y0160235D01*
X0248208Y0161002D02*
X0248208Y0159467D01*
X0248975Y0158700D01*
X0251277Y0158700D01*
X0252812Y0158700D02*
X0252812Y0163304D01*
X0251277Y0161769D02*
X0248975Y0161769D01*
X0248208Y0161002D01*
X0244371Y0160235D02*
X0243604Y0159467D01*
X0252812Y0160235D02*
X0255114Y0158700D01*
X0252812Y0160235D02*
X0255114Y0161769D01*
X0261252Y0163304D02*
X0261252Y0158700D01*
X0264322Y0158700D01*
X0265856Y0159467D02*
X0266624Y0158700D01*
X0268158Y0158700D01*
X0268926Y0160235D02*
X0265856Y0160235D01*
X0265856Y0161002D02*
X0266624Y0161769D01*
X0268158Y0161769D01*
X0268926Y0161002D01*
X0268926Y0160235D01*
X0270460Y0161002D02*
X0271995Y0161002D01*
X0273529Y0161769D02*
X0275064Y0161769D01*
X0274297Y0162537D02*
X0274297Y0159467D01*
X0275064Y0158700D01*
X0271227Y0158700D02*
X0271227Y0162537D01*
X0271995Y0163304D01*
X0265856Y0161002D02*
X0265856Y0159467D01*
X0241426Y0125804D02*
X0242193Y0125037D01*
X0242193Y0124269D01*
X0241426Y0123502D01*
X0242193Y0122735D01*
X0242193Y0121967D01*
X0241426Y0121200D01*
X0239891Y0121200D01*
X0239124Y0121967D01*
X0237589Y0121967D02*
X0236822Y0121200D01*
X0235287Y0121200D01*
X0234520Y0121967D01*
X0232985Y0121967D02*
X0232218Y0121200D01*
X0230683Y0121200D01*
X0229916Y0121967D01*
X0229916Y0122735D01*
X0230683Y0123502D01*
X0232218Y0123502D01*
X0232985Y0122735D01*
X0232985Y0121967D01*
X0232218Y0123502D02*
X0232985Y0124269D01*
X0232985Y0125037D01*
X0232218Y0125804D01*
X0230683Y0125804D01*
X0229916Y0125037D01*
X0229916Y0124269D01*
X0230683Y0123502D01*
X0228381Y0124269D02*
X0227614Y0123502D01*
X0226079Y0123502D01*
X0225312Y0124269D01*
X0225312Y0125037D01*
X0226079Y0125804D01*
X0227614Y0125804D01*
X0228381Y0125037D01*
X0228381Y0124269D01*
X0227614Y0123502D02*
X0228381Y0122735D01*
X0228381Y0121967D01*
X0227614Y0121200D01*
X0226079Y0121200D01*
X0225312Y0121967D01*
X0225312Y0122735D01*
X0226079Y0123502D01*
X0223777Y0122735D02*
X0223777Y0125804D01*
X0220708Y0125804D02*
X0220708Y0122735D01*
X0222242Y0121200D01*
X0223777Y0122735D01*
X0219173Y0123502D02*
X0218406Y0122735D01*
X0216104Y0122735D01*
X0217639Y0122735D02*
X0219173Y0121200D01*
X0219173Y0123502D02*
X0219173Y0125037D01*
X0218406Y0125804D01*
X0216104Y0125804D01*
X0216104Y0121200D01*
X0214569Y0121967D02*
X0214569Y0125037D01*
X0213802Y0125804D01*
X0211500Y0125804D01*
X0211500Y0121200D01*
X0213802Y0121200D01*
X0214569Y0121967D01*
X0234520Y0125037D02*
X0235287Y0125804D01*
X0236822Y0125804D01*
X0237589Y0125037D01*
X0237589Y0124269D01*
X0236822Y0123502D01*
X0237589Y0122735D01*
X0237589Y0121967D01*
X0236822Y0123502D02*
X0236054Y0123502D01*
X0239124Y0125037D02*
X0239891Y0125804D01*
X0241426Y0125804D01*
X0241426Y0123502D02*
X0240658Y0123502D01*
X0193035Y0161002D02*
X0191500Y0161002D01*
X0047416Y0128502D02*
X0044346Y0128502D01*
X0042812Y0129269D02*
X0041277Y0129269D01*
X0042044Y0130037D02*
X0042044Y0126967D01*
X0042812Y0126200D01*
X0039742Y0126200D02*
X0038975Y0126967D01*
X0038975Y0130037D01*
X0038208Y0129269D02*
X0039742Y0129269D01*
X0036673Y0128502D02*
X0036673Y0126200D01*
X0034371Y0126200D01*
X0033604Y0126967D01*
X0034371Y0127735D01*
X0036673Y0127735D01*
X0036673Y0128502D02*
X0035906Y0129269D01*
X0034371Y0129269D01*
X0032069Y0129269D02*
X0031302Y0128502D01*
X0029000Y0128502D01*
X0029000Y0126200D02*
X0029000Y0130804D01*
X0031302Y0130804D01*
X0032069Y0130037D01*
X0032069Y0129269D01*
X0031302Y0128502D02*
X0032069Y0127735D01*
X0032069Y0126967D01*
X0031302Y0126200D01*
X0029000Y0126200D01*
X0303555Y0019269D02*
X0303555Y0016200D01*
X0303555Y0018502D02*
X0306624Y0018502D01*
X0306624Y0019269D02*
X0306624Y0016200D01*
X0308159Y0016200D02*
X0308159Y0019269D01*
X0308159Y0017735D02*
X0309693Y0019269D01*
X0310461Y0019269D01*
X0311995Y0018502D02*
X0312763Y0019269D01*
X0315065Y0019269D01*
X0316599Y0019269D02*
X0316599Y0016967D01*
X0317367Y0016200D01*
X0319668Y0016200D01*
X0319668Y0019269D01*
X0321203Y0019269D02*
X0321970Y0019269D01*
X0321970Y0016200D01*
X0321203Y0016200D02*
X0322738Y0016200D01*
X0324272Y0016200D02*
X0324272Y0019269D01*
X0326574Y0019269D01*
X0327342Y0018502D01*
X0327342Y0016200D01*
X0328876Y0016967D02*
X0329644Y0016200D01*
X0331178Y0016200D01*
X0331946Y0016967D01*
X0331946Y0018502D01*
X0331178Y0019269D01*
X0329644Y0019269D01*
X0328876Y0018502D01*
X0328876Y0016967D01*
X0321970Y0020804D02*
X0321970Y0021571D01*
X0315065Y0020804D02*
X0315065Y0016200D01*
X0312763Y0016200D01*
X0311995Y0016967D01*
X0311995Y0018502D01*
X0306624Y0019269D02*
X0305089Y0020804D01*
X0303555Y0019269D01*
X0338084Y0020804D02*
X0338084Y0016200D01*
X0341153Y0016200D02*
X0341153Y0020804D01*
X0343455Y0019269D02*
X0344990Y0019269D01*
X0345757Y0018502D01*
X0345757Y0016200D01*
X0343455Y0016200D01*
X0342688Y0016967D01*
X0343455Y0017735D01*
X0345757Y0017735D01*
X0347292Y0016200D02*
X0347292Y0019269D01*
X0349594Y0019269D01*
X0350361Y0018502D01*
X0350361Y0016200D01*
X0351896Y0016967D02*
X0352663Y0016200D01*
X0354198Y0016200D01*
X0354965Y0016967D01*
X0354965Y0018502D01*
X0354198Y0019269D01*
X0352663Y0019269D01*
X0351896Y0018502D01*
X0351896Y0016967D01*
X0341153Y0016200D02*
X0338084Y0020804D01*
X0394000Y0071967D02*
X0394767Y0071200D01*
X0396302Y0071200D01*
X0397069Y0071967D01*
X0397069Y0073502D01*
X0395535Y0073502D01*
X0397069Y0075037D02*
X0396302Y0075804D01*
X0394767Y0075804D01*
X0394000Y0075037D01*
X0394000Y0071967D01*
X0398604Y0071200D02*
X0398604Y0075804D01*
X0401673Y0071200D01*
X0401673Y0075804D01*
X0403208Y0075804D02*
X0405510Y0075804D01*
X0406277Y0075037D01*
X0406277Y0071967D01*
X0405510Y0071200D01*
X0403208Y0071200D01*
X0403208Y0075804D01*
X0403406Y0126200D02*
X0401871Y0126200D01*
X0401104Y0126967D01*
X0401104Y0128502D02*
X0402639Y0129269D01*
X0403406Y0129269D01*
X0404173Y0128502D01*
X0404173Y0126967D01*
X0403406Y0126200D01*
X0401104Y0128502D02*
X0401104Y0130804D01*
X0404173Y0130804D01*
X0405708Y0129269D02*
X0407242Y0126200D01*
X0408777Y0129269D01*
X0399569Y0128502D02*
X0396500Y0128502D01*
X0398035Y0130037D02*
X0398035Y0126967D01*
X0358777Y0156967D02*
X0358010Y0156200D01*
X0355708Y0156200D01*
X0355708Y0160804D01*
X0358010Y0160804D01*
X0358777Y0160037D01*
X0358777Y0156967D01*
X0354173Y0156200D02*
X0354173Y0160804D01*
X0351104Y0160804D02*
X0354173Y0156200D01*
X0351104Y0156200D02*
X0351104Y0160804D01*
X0349569Y0160037D02*
X0348802Y0160804D01*
X0347267Y0160804D01*
X0346500Y0160037D01*
X0346500Y0156967D01*
X0347267Y0156200D01*
X0348802Y0156200D01*
X0349569Y0156967D01*
X0349569Y0158502D01*
X0348035Y0158502D01*
X0348035Y0166200D02*
X0349569Y0167735D01*
X0349569Y0170804D01*
X0351104Y0170804D02*
X0352639Y0170804D01*
X0351871Y0170804D02*
X0351871Y0166200D01*
X0351104Y0166200D02*
X0352639Y0166200D01*
X0354173Y0166200D02*
X0354173Y0170804D01*
X0357242Y0166200D01*
X0357242Y0170804D01*
X0348035Y0166200D02*
X0346500Y0167735D01*
X0346500Y0170804D01*
D13*
X0270102Y0042353D02*
X0267633Y0042353D01*
X0266419Y0041119D02*
X0266419Y0038650D01*
X0267633Y0038650D02*
X0267633Y0039267D01*
X0270102Y0041736D01*
X0270102Y0042353D01*
X0266419Y0041119D02*
X0265184Y0042353D01*
X0263950Y0041119D01*
X0263950Y0038650D01*
X0263950Y0040502D02*
X0266419Y0040502D01*
X0260102Y0039884D02*
X0259485Y0040502D01*
X0257633Y0040502D01*
X0257633Y0039267D01*
X0258250Y0038650D01*
X0259485Y0038650D01*
X0260102Y0039267D01*
X0260102Y0039884D01*
X0258868Y0041736D02*
X0257633Y0040502D01*
X0256419Y0040502D02*
X0253950Y0040502D01*
X0253950Y0041119D02*
X0253950Y0038650D01*
X0253950Y0041119D02*
X0255184Y0042353D01*
X0256419Y0041119D01*
X0256419Y0038650D01*
X0258868Y0041736D02*
X0260102Y0042353D01*
X0250102Y0042353D02*
X0247633Y0042353D01*
X0247633Y0040502D01*
X0248868Y0041119D01*
X0249485Y0041119D01*
X0250102Y0040502D01*
X0250102Y0039267D01*
X0249485Y0038650D01*
X0248250Y0038650D01*
X0247633Y0039267D01*
X0246419Y0038650D02*
X0246419Y0041119D01*
X0245184Y0042353D01*
X0243950Y0041119D01*
X0243950Y0038650D01*
X0243950Y0040502D02*
X0246419Y0040502D01*
X0240102Y0040502D02*
X0237633Y0040502D01*
X0239485Y0042353D01*
X0239485Y0038650D01*
X0236419Y0038650D02*
X0236419Y0041119D01*
X0235184Y0042353D01*
X0233950Y0041119D01*
X0233950Y0038650D01*
X0233950Y0040502D02*
X0236419Y0040502D01*
X0230102Y0041119D02*
X0229485Y0040502D01*
X0230102Y0039884D01*
X0230102Y0039267D01*
X0229485Y0038650D01*
X0228250Y0038650D01*
X0227633Y0039267D01*
X0226419Y0038650D02*
X0226419Y0041119D01*
X0225184Y0042353D01*
X0223950Y0041119D01*
X0223950Y0038650D01*
X0223950Y0040502D02*
X0226419Y0040502D01*
X0227633Y0041736D02*
X0228250Y0042353D01*
X0229485Y0042353D01*
X0230102Y0041736D01*
X0230102Y0041119D01*
X0229485Y0040502D02*
X0228868Y0040502D01*
X0220102Y0041119D02*
X0220102Y0041736D01*
X0219485Y0042353D01*
X0218250Y0042353D01*
X0217633Y0041736D01*
X0216419Y0041119D02*
X0216419Y0038650D01*
X0217633Y0038650D02*
X0220102Y0041119D01*
X0220102Y0038650D02*
X0217633Y0038650D01*
X0216419Y0040502D02*
X0213950Y0040502D01*
X0213950Y0041119D02*
X0213950Y0038650D01*
X0213950Y0041119D02*
X0215184Y0042353D01*
X0216419Y0041119D01*
X0210102Y0038650D02*
X0207633Y0038650D01*
X0206419Y0038650D02*
X0206419Y0041119D01*
X0205184Y0042353D01*
X0203950Y0041119D01*
X0203950Y0038650D01*
X0203950Y0040502D02*
X0206419Y0040502D01*
X0207633Y0041119D02*
X0208868Y0042353D01*
X0208868Y0038650D01*
X0200102Y0039267D02*
X0199485Y0038650D01*
X0198250Y0038650D01*
X0197633Y0039267D01*
X0200102Y0041736D01*
X0200102Y0039267D01*
X0197633Y0039267D02*
X0197633Y0041736D01*
X0198250Y0042353D01*
X0199485Y0042353D01*
X0200102Y0041736D01*
X0196419Y0041119D02*
X0196419Y0038650D01*
X0196419Y0040502D02*
X0193950Y0040502D01*
X0193950Y0041119D02*
X0193950Y0038650D01*
X0193950Y0041119D02*
X0195184Y0042353D01*
X0196419Y0041119D01*
X0191285Y0038650D02*
X0188816Y0038650D01*
X0187602Y0038650D02*
X0185133Y0038650D01*
X0186368Y0038650D02*
X0186368Y0042353D01*
X0185133Y0041119D01*
X0183919Y0041736D02*
X0183302Y0042353D01*
X0181450Y0042353D01*
X0181450Y0038650D01*
X0183302Y0038650D01*
X0183919Y0039267D01*
X0183919Y0041736D01*
X0188816Y0041119D02*
X0190051Y0042353D01*
X0190051Y0038650D01*
X0178785Y0039267D02*
X0178168Y0038650D01*
X0176933Y0038650D01*
X0176316Y0039267D01*
X0178785Y0041736D01*
X0178785Y0039267D01*
X0176316Y0039267D02*
X0176316Y0041736D01*
X0176933Y0042353D01*
X0178168Y0042353D01*
X0178785Y0041736D01*
X0175102Y0038650D02*
X0172633Y0038650D01*
X0173868Y0038650D02*
X0173868Y0042353D01*
X0172633Y0041119D01*
X0171419Y0041736D02*
X0170802Y0042353D01*
X0168950Y0042353D01*
X0168950Y0038650D01*
X0170802Y0038650D01*
X0171419Y0039267D01*
X0171419Y0041736D01*
D14*
X0156300Y0068500D02*
X0156300Y0083500D01*
X0121300Y0083500D02*
X0121300Y0068500D01*
D15*
X0121113Y0068257D01*
X0120921Y0068019D01*
X0120722Y0067786D01*
X0120518Y0067558D01*
X0120309Y0067335D01*
X0120094Y0067117D01*
X0119874Y0066904D01*
X0119649Y0066697D01*
X0119418Y0066495D01*
X0119183Y0066299D01*
X0118943Y0066109D01*
X0118699Y0065925D01*
X0118450Y0065747D01*
X0118196Y0065575D01*
X0117939Y0065409D01*
X0117678Y0065249D01*
X0117413Y0065096D01*
X0117144Y0064950D01*
X0116871Y0064810D01*
X0116596Y0064677D01*
X0116317Y0064551D01*
X0116035Y0064431D01*
X0115750Y0064319D01*
X0115463Y0064214D01*
X0115173Y0064115D01*
X0114881Y0064024D01*
X0114586Y0063940D01*
X0114290Y0063863D01*
X0113992Y0063793D01*
X0113692Y0063731D01*
X0113391Y0063676D01*
X0113089Y0063629D01*
X0112785Y0063589D01*
X0112481Y0063556D01*
X0112176Y0063531D01*
X0111870Y0063513D01*
X0111564Y0063503D01*
X0111258Y0063500D01*
X0110952Y0063505D01*
X0110646Y0063517D01*
X0110340Y0063537D01*
X0110036Y0063564D01*
X0109731Y0063599D01*
X0109428Y0063641D01*
X0109126Y0063690D01*
X0108825Y0063747D01*
X0108526Y0063812D01*
X0108228Y0063883D01*
X0107933Y0063962D01*
X0107639Y0064048D01*
X0107347Y0064141D01*
X0107058Y0064242D01*
X0106771Y0064349D01*
X0106487Y0064464D01*
X0106206Y0064585D01*
X0105928Y0064713D01*
X0105653Y0064848D01*
X0105382Y0064990D01*
X0105114Y0065138D01*
X0104850Y0065293D01*
X0104590Y0065454D01*
X0104334Y0065621D01*
X0104081Y0065795D01*
X0103834Y0065975D01*
X0103590Y0066161D01*
X0103352Y0066352D01*
X0103118Y0066550D01*
X0102889Y0066753D01*
X0102665Y0066962D01*
X0102446Y0067176D01*
X0102233Y0067396D01*
X0102025Y0067620D01*
X0101822Y0067850D01*
X0101626Y0068084D01*
X0101435Y0068324D01*
X0101250Y0068567D01*
X0101071Y0068816D01*
X0100898Y0069068D01*
X0100731Y0069325D01*
X0100571Y0069586D01*
X0100417Y0069851D01*
X0100270Y0070119D01*
X0100129Y0070391D01*
X0099995Y0070666D01*
X0099868Y0070945D01*
X0099747Y0071226D01*
X0099634Y0071511D01*
X0099528Y0071798D01*
X0099428Y0072087D01*
X0099336Y0072379D01*
X0099251Y0072673D01*
X0099173Y0072969D01*
X0099102Y0073267D01*
X0099039Y0073567D01*
X0098983Y0073868D01*
X0098935Y0074170D01*
X0098894Y0074473D01*
X0098860Y0074777D01*
X0098834Y0075082D01*
X0098815Y0075388D01*
X0098804Y0075694D01*
X0098800Y0076000D01*
X0098804Y0076306D01*
X0098815Y0076612D01*
X0098834Y0076918D01*
X0098860Y0077223D01*
X0098894Y0077527D01*
X0098935Y0077830D01*
X0098983Y0078132D01*
X0099039Y0078433D01*
X0099102Y0078733D01*
X0099173Y0079031D01*
X0099251Y0079327D01*
X0099336Y0079621D01*
X0099428Y0079913D01*
X0099528Y0080202D01*
X0099634Y0080489D01*
X0099747Y0080774D01*
X0099868Y0081055D01*
X0099995Y0081334D01*
X0100129Y0081609D01*
X0100270Y0081881D01*
X0100417Y0082149D01*
X0100571Y0082414D01*
X0100731Y0082675D01*
X0100898Y0082932D01*
X0101071Y0083184D01*
X0101250Y0083433D01*
X0101435Y0083676D01*
X0101626Y0083916D01*
X0101822Y0084150D01*
X0102025Y0084380D01*
X0102233Y0084604D01*
X0102446Y0084824D01*
X0102665Y0085038D01*
X0102889Y0085247D01*
X0103118Y0085450D01*
X0103352Y0085648D01*
X0103590Y0085839D01*
X0103834Y0086025D01*
X0104081Y0086205D01*
X0104334Y0086379D01*
X0104590Y0086546D01*
X0104850Y0086707D01*
X0105114Y0086862D01*
X0105382Y0087010D01*
X0105653Y0087152D01*
X0105928Y0087287D01*
X0106206Y0087415D01*
X0106487Y0087536D01*
X0106771Y0087651D01*
X0107058Y0087758D01*
X0107347Y0087859D01*
X0107639Y0087952D01*
X0107933Y0088038D01*
X0108228Y0088117D01*
X0108526Y0088188D01*
X0108825Y0088253D01*
X0109126Y0088310D01*
X0109428Y0088359D01*
X0109731Y0088401D01*
X0110036Y0088436D01*
X0110340Y0088463D01*
X0110646Y0088483D01*
X0110952Y0088495D01*
X0111258Y0088500D01*
X0111564Y0088497D01*
X0111870Y0088487D01*
X0112176Y0088469D01*
X0112481Y0088444D01*
X0112785Y0088411D01*
X0113089Y0088371D01*
X0113391Y0088324D01*
X0113692Y0088269D01*
X0113992Y0088207D01*
X0114290Y0088137D01*
X0114586Y0088060D01*
X0114881Y0087976D01*
X0115173Y0087885D01*
X0115463Y0087786D01*
X0115750Y0087681D01*
X0116035Y0087569D01*
X0116317Y0087449D01*
X0116596Y0087323D01*
X0116871Y0087190D01*
X0117144Y0087050D01*
X0117413Y0086904D01*
X0117678Y0086751D01*
X0117939Y0086591D01*
X0118196Y0086425D01*
X0118450Y0086253D01*
X0118699Y0086075D01*
X0118943Y0085891D01*
X0119183Y0085701D01*
X0119418Y0085505D01*
X0119649Y0085303D01*
X0119874Y0085096D01*
X0120094Y0084883D01*
X0120309Y0084665D01*
X0120518Y0084442D01*
X0120722Y0084214D01*
X0120921Y0083981D01*
X0121113Y0083743D01*
X0121300Y0083500D01*
X0156300Y0083500D02*
X0156113Y0083743D01*
X0155921Y0083981D01*
X0155722Y0084214D01*
X0155518Y0084442D01*
X0155309Y0084665D01*
X0155094Y0084883D01*
X0154874Y0085096D01*
X0154649Y0085303D01*
X0154418Y0085505D01*
X0154183Y0085701D01*
X0153943Y0085891D01*
X0153699Y0086075D01*
X0153450Y0086253D01*
X0153196Y0086425D01*
X0152939Y0086591D01*
X0152678Y0086751D01*
X0152413Y0086904D01*
X0152144Y0087050D01*
X0151871Y0087190D01*
X0151596Y0087323D01*
X0151317Y0087449D01*
X0151035Y0087569D01*
X0150750Y0087681D01*
X0150463Y0087786D01*
X0150173Y0087885D01*
X0149881Y0087976D01*
X0149586Y0088060D01*
X0149290Y0088137D01*
X0148992Y0088207D01*
X0148692Y0088269D01*
X0148391Y0088324D01*
X0148089Y0088371D01*
X0147785Y0088411D01*
X0147481Y0088444D01*
X0147176Y0088469D01*
X0146870Y0088487D01*
X0146564Y0088497D01*
X0146258Y0088500D01*
X0145952Y0088495D01*
X0145646Y0088483D01*
X0145340Y0088463D01*
X0145036Y0088436D01*
X0144731Y0088401D01*
X0144428Y0088359D01*
X0144126Y0088310D01*
X0143825Y0088253D01*
X0143526Y0088188D01*
X0143228Y0088117D01*
X0142933Y0088038D01*
X0142639Y0087952D01*
X0142347Y0087859D01*
X0142058Y0087758D01*
X0141771Y0087651D01*
X0141487Y0087536D01*
X0141206Y0087415D01*
X0140928Y0087287D01*
X0140653Y0087152D01*
X0140382Y0087010D01*
X0140114Y0086862D01*
X0139850Y0086707D01*
X0139590Y0086546D01*
X0139334Y0086379D01*
X0139081Y0086205D01*
X0138834Y0086025D01*
X0138590Y0085839D01*
X0138352Y0085648D01*
X0138118Y0085450D01*
X0137889Y0085247D01*
X0137665Y0085038D01*
X0137446Y0084824D01*
X0137233Y0084604D01*
X0137025Y0084380D01*
X0136822Y0084150D01*
X0136626Y0083916D01*
X0136435Y0083676D01*
X0136250Y0083433D01*
X0136071Y0083184D01*
X0135898Y0082932D01*
X0135731Y0082675D01*
X0135571Y0082414D01*
X0135417Y0082149D01*
X0135270Y0081881D01*
X0135129Y0081609D01*
X0134995Y0081334D01*
X0134868Y0081055D01*
X0134747Y0080774D01*
X0134634Y0080489D01*
X0134528Y0080202D01*
X0134428Y0079913D01*
X0134336Y0079621D01*
X0134251Y0079327D01*
X0134173Y0079031D01*
X0134102Y0078733D01*
X0134039Y0078433D01*
X0133983Y0078132D01*
X0133935Y0077830D01*
X0133894Y0077527D01*
X0133860Y0077223D01*
X0133834Y0076918D01*
X0133815Y0076612D01*
X0133804Y0076306D01*
X0133800Y0076000D01*
X0133804Y0075694D01*
X0133815Y0075388D01*
X0133834Y0075082D01*
X0133860Y0074777D01*
X0133894Y0074473D01*
X0133935Y0074170D01*
X0133983Y0073868D01*
X0134039Y0073567D01*
X0134102Y0073267D01*
X0134173Y0072969D01*
X0134251Y0072673D01*
X0134336Y0072379D01*
X0134428Y0072087D01*
X0134528Y0071798D01*
X0134634Y0071511D01*
X0134747Y0071226D01*
X0134868Y0070945D01*
X0134995Y0070666D01*
X0135129Y0070391D01*
X0135270Y0070119D01*
X0135417Y0069851D01*
X0135571Y0069586D01*
X0135731Y0069325D01*
X0135898Y0069068D01*
X0136071Y0068816D01*
X0136250Y0068567D01*
X0136435Y0068324D01*
X0136626Y0068084D01*
X0136822Y0067850D01*
X0137025Y0067620D01*
X0137233Y0067396D01*
X0137446Y0067176D01*
X0137665Y0066962D01*
X0137889Y0066753D01*
X0138118Y0066550D01*
X0138352Y0066352D01*
X0138590Y0066161D01*
X0138834Y0065975D01*
X0139081Y0065795D01*
X0139334Y0065621D01*
X0139590Y0065454D01*
X0139850Y0065293D01*
X0140114Y0065138D01*
X0140382Y0064990D01*
X0140653Y0064848D01*
X0140928Y0064713D01*
X0141206Y0064585D01*
X0141487Y0064464D01*
X0141771Y0064349D01*
X0142058Y0064242D01*
X0142347Y0064141D01*
X0142639Y0064048D01*
X0142933Y0063962D01*
X0143228Y0063883D01*
X0143526Y0063812D01*
X0143825Y0063747D01*
X0144126Y0063690D01*
X0144428Y0063641D01*
X0144731Y0063599D01*
X0145036Y0063564D01*
X0145340Y0063537D01*
X0145646Y0063517D01*
X0145952Y0063505D01*
X0146258Y0063500D01*
X0146564Y0063503D01*
X0146870Y0063513D01*
X0147176Y0063531D01*
X0147481Y0063556D01*
X0147785Y0063589D01*
X0148089Y0063629D01*
X0148391Y0063676D01*
X0148692Y0063731D01*
X0148992Y0063793D01*
X0149290Y0063863D01*
X0149586Y0063940D01*
X0149881Y0064024D01*
X0150173Y0064115D01*
X0150463Y0064214D01*
X0150750Y0064319D01*
X0151035Y0064431D01*
X0151317Y0064551D01*
X0151596Y0064677D01*
X0151871Y0064810D01*
X0152144Y0064950D01*
X0152413Y0065096D01*
X0152678Y0065249D01*
X0152939Y0065409D01*
X0153196Y0065575D01*
X0153450Y0065747D01*
X0153699Y0065925D01*
X0153943Y0066109D01*
X0154183Y0066299D01*
X0154418Y0066495D01*
X0154649Y0066697D01*
X0154874Y0066904D01*
X0155094Y0067117D01*
X0155309Y0067335D01*
X0155518Y0067558D01*
X0155722Y0067786D01*
X0155921Y0068019D01*
X0156113Y0068257D01*
X0156300Y0068500D01*
D16*
X0171550Y0051954D02*
X0173051Y0051954D01*
X0172301Y0051954D02*
X0172301Y0047450D01*
X0173051Y0047450D02*
X0171550Y0047450D01*
X0174619Y0048201D02*
X0175370Y0047450D01*
X0176871Y0047450D01*
X0177622Y0048201D01*
X0179223Y0047450D02*
X0182226Y0050453D01*
X0182226Y0051203D01*
X0181475Y0051954D01*
X0179974Y0051954D01*
X0179223Y0051203D01*
X0177622Y0051203D02*
X0176871Y0051954D01*
X0175370Y0051954D01*
X0174619Y0051203D01*
X0174619Y0048201D01*
X0179223Y0047450D02*
X0182226Y0047450D01*
X0214046Y0033147D02*
X0218550Y0033147D01*
X0218550Y0031646D02*
X0218550Y0034649D01*
X0215547Y0031646D02*
X0214046Y0033147D01*
X0216298Y0030045D02*
X0216298Y0027042D01*
X0214797Y0025441D02*
X0217799Y0025441D01*
X0218550Y0024690D01*
X0218550Y0023189D01*
X0217799Y0022438D01*
X0214797Y0025441D01*
X0214046Y0024690D01*
X0214046Y0023189D01*
X0214797Y0022438D01*
X0217799Y0022438D01*
X0218550Y0020837D02*
X0214046Y0020837D01*
X0214046Y0017834D02*
X0218550Y0020837D01*
X0218550Y0017834D02*
X0214046Y0017834D01*
X0214046Y0016233D02*
X0214046Y0013230D01*
X0218550Y0013230D01*
X0218550Y0016233D01*
X0216298Y0014732D02*
X0216298Y0013230D01*
X0217049Y0011629D02*
X0217799Y0011629D01*
X0218550Y0010878D01*
X0218550Y0009377D01*
X0217799Y0008626D01*
X0216298Y0009377D02*
X0215547Y0008626D01*
X0214797Y0008626D01*
X0214046Y0009377D01*
X0214046Y0010878D01*
X0214797Y0011629D01*
X0216298Y0010878D02*
X0217049Y0011629D01*
X0216298Y0010878D02*
X0216298Y0009377D01*
X0234046Y0009377D02*
X0234797Y0008626D01*
X0235547Y0008626D01*
X0236298Y0009377D01*
X0236298Y0010878D01*
X0237049Y0011629D01*
X0237799Y0011629D01*
X0238550Y0010878D01*
X0238550Y0009377D01*
X0237799Y0008626D01*
X0234046Y0009377D02*
X0234046Y0010878D01*
X0234797Y0011629D01*
X0234046Y0013230D02*
X0238550Y0013230D01*
X0238550Y0016233D01*
X0238550Y0017834D02*
X0234046Y0017834D01*
X0238550Y0020837D01*
X0234046Y0020837D01*
X0234797Y0022438D02*
X0234046Y0023189D01*
X0234046Y0024690D01*
X0234797Y0025441D01*
X0235547Y0025441D01*
X0238550Y0022438D01*
X0238550Y0025441D01*
X0236298Y0027042D02*
X0236298Y0030045D01*
X0234797Y0031646D02*
X0234046Y0032397D01*
X0234046Y0033898D01*
X0234797Y0034649D01*
X0235547Y0034649D01*
X0236298Y0033898D01*
X0237049Y0034649D01*
X0237799Y0034649D01*
X0238550Y0033898D01*
X0238550Y0032397D01*
X0237799Y0031646D01*
X0236298Y0033147D02*
X0236298Y0033898D01*
X0254046Y0034649D02*
X0254046Y0031646D01*
X0256298Y0031646D01*
X0255547Y0033147D01*
X0255547Y0033898D01*
X0256298Y0034649D01*
X0257799Y0034649D01*
X0258550Y0033898D01*
X0258550Y0032397D01*
X0257799Y0031646D01*
X0256298Y0030045D02*
X0256298Y0027042D01*
X0256298Y0025441D02*
X0256298Y0022438D01*
X0254046Y0024690D01*
X0258550Y0024690D01*
X0258550Y0020837D02*
X0254046Y0020837D01*
X0254046Y0017834D02*
X0258550Y0020837D01*
X0258550Y0017834D02*
X0254046Y0017834D01*
X0254046Y0016233D02*
X0254046Y0013230D01*
X0258550Y0013230D01*
X0258550Y0016233D01*
X0256298Y0014732D02*
X0256298Y0013230D01*
X0257049Y0011629D02*
X0257799Y0011629D01*
X0258550Y0010878D01*
X0258550Y0009377D01*
X0257799Y0008626D01*
X0256298Y0009377D02*
X0255547Y0008626D01*
X0254797Y0008626D01*
X0254046Y0009377D01*
X0254046Y0010878D01*
X0254797Y0011629D01*
X0256298Y0010878D02*
X0257049Y0011629D01*
X0256298Y0010878D02*
X0256298Y0009377D01*
X0236298Y0013230D02*
X0236298Y0014732D01*
X0234046Y0016233D02*
X0234046Y0013230D01*
X0233051Y0047450D02*
X0231550Y0047450D01*
X0232301Y0047450D02*
X0232301Y0051954D01*
X0233051Y0051954D02*
X0231550Y0051954D01*
X0234619Y0051203D02*
X0234619Y0048201D01*
X0235370Y0047450D01*
X0236871Y0047450D01*
X0237622Y0048201D01*
X0239223Y0047450D02*
X0242226Y0047450D01*
X0240724Y0047450D02*
X0240724Y0051954D01*
X0239223Y0050453D01*
X0237622Y0051203D02*
X0236871Y0051954D01*
X0235370Y0051954D01*
X0234619Y0051203D01*
X0300300Y0010000D02*
X0300300Y0182000D01*
X0372300Y0182000D01*
X0372300Y0010000D01*
X0300300Y0010000D01*
X0409046Y0095039D02*
X0409797Y0094289D01*
X0409046Y0095039D02*
X0409046Y0096541D01*
X0409797Y0097291D01*
X0410547Y0097291D01*
X0413550Y0094289D01*
X0413550Y0097291D01*
X0383550Y0112635D02*
X0382799Y0111885D01*
X0383550Y0112635D02*
X0383550Y0114137D01*
X0382799Y0114887D01*
X0381298Y0114887D01*
X0380547Y0114137D01*
X0380547Y0113386D01*
X0381298Y0111885D01*
X0379046Y0111885D01*
X0379046Y0114887D01*
X0379046Y0116489D02*
X0382049Y0116489D01*
X0383550Y0117990D01*
X0382049Y0119491D01*
X0379046Y0119491D01*
X0409046Y0115190D02*
X0413550Y0115190D01*
X0413550Y0113689D02*
X0413550Y0116691D01*
X0410547Y0113689D02*
X0409046Y0115190D01*
X0271300Y0116000D02*
X0271300Y0096000D01*
X0191300Y0096000D01*
X0191300Y0146000D01*
X0271300Y0146000D01*
X0271300Y0136000D01*
X0271300Y0126000D01*
X0261300Y0126000D01*
X0261300Y0116000D01*
X0271300Y0116000D01*
X0271300Y0126000D01*
X0261300Y0126000D02*
X0261300Y0136000D01*
X0251300Y0136000D01*
X0251300Y0126000D01*
X0261300Y0126000D01*
X0251300Y0126000D02*
X0251300Y0116000D01*
X0261300Y0116000D01*
X0261300Y0136000D02*
X0271300Y0136000D01*
X0244314Y0168750D02*
X0241311Y0168750D01*
X0241311Y0173254D01*
X0239710Y0172503D02*
X0238959Y0173254D01*
X0236707Y0173254D01*
X0236707Y0168750D01*
X0238959Y0168750D01*
X0239710Y0169501D01*
X0239710Y0170251D01*
X0238959Y0171002D01*
X0236707Y0171002D01*
X0238959Y0171002D02*
X0239710Y0171753D01*
X0239710Y0172503D01*
X0239507Y0188750D02*
X0242510Y0188750D01*
X0241009Y0188750D02*
X0241009Y0193254D01*
X0239507Y0191753D01*
X0258907Y0192503D02*
X0259658Y0193254D01*
X0261159Y0193254D01*
X0261910Y0192503D01*
X0261910Y0191753D01*
X0258907Y0188750D01*
X0261910Y0188750D01*
X0211910Y0188750D02*
X0208907Y0188750D01*
X0211910Y0191753D01*
X0211910Y0192503D01*
X0211159Y0193254D01*
X0209658Y0193254D01*
X0208907Y0192503D01*
X0192510Y0188750D02*
X0189507Y0188750D01*
X0191009Y0188750D02*
X0191009Y0193254D01*
X0189507Y0191753D01*
X0189710Y0173254D02*
X0186707Y0173254D01*
X0186707Y0168750D01*
X0186707Y0171002D02*
X0188209Y0171002D01*
X0191311Y0173254D02*
X0191311Y0168750D01*
X0194314Y0168750D01*
X0166300Y0146000D02*
X0086300Y0146000D01*
X0086300Y0096000D01*
X0166300Y0096000D01*
X0166300Y0116000D01*
X0166300Y0126000D01*
X0156300Y0126000D01*
X0156300Y0116000D01*
X0166300Y0116000D01*
X0156300Y0116000D02*
X0146300Y0116000D01*
X0146300Y0126000D01*
X0156300Y0126000D01*
X0156300Y0136000D01*
X0146300Y0136000D01*
X0146300Y0126000D01*
X0156300Y0136000D02*
X0166300Y0136000D01*
X0166300Y0126000D01*
X0166300Y0136000D02*
X0166300Y0146000D01*
X0134314Y0168750D02*
X0132813Y0170251D01*
X0133563Y0170251D02*
X0131311Y0170251D01*
X0131311Y0168750D02*
X0131311Y0173254D01*
X0133563Y0173254D01*
X0134314Y0172503D01*
X0134314Y0171002D01*
X0133563Y0170251D01*
X0128209Y0171002D02*
X0126707Y0171002D01*
X0126707Y0168750D02*
X0126707Y0173254D01*
X0129710Y0173254D01*
X0129507Y0188750D02*
X0132510Y0188750D01*
X0131009Y0188750D02*
X0131009Y0193254D01*
X0129507Y0191753D01*
X0148907Y0192503D02*
X0149658Y0193254D01*
X0151159Y0193254D01*
X0151910Y0192503D01*
X0151910Y0191753D01*
X0148907Y0188750D01*
X0151910Y0188750D01*
X0101910Y0188750D02*
X0098907Y0188750D01*
X0101910Y0191753D01*
X0101910Y0192503D01*
X0101159Y0193254D01*
X0099658Y0193254D01*
X0098907Y0192503D01*
X0082510Y0188750D02*
X0079507Y0188750D01*
X0081009Y0188750D02*
X0081009Y0193254D01*
X0079507Y0191753D01*
X0078959Y0173254D02*
X0079710Y0172503D01*
X0079710Y0171753D01*
X0078959Y0171002D01*
X0076707Y0171002D01*
X0076707Y0168750D02*
X0076707Y0173254D01*
X0078959Y0173254D01*
X0078959Y0171002D02*
X0079710Y0170251D01*
X0079710Y0169501D01*
X0078959Y0168750D01*
X0076707Y0168750D01*
X0081311Y0168750D02*
X0081311Y0173254D01*
X0083563Y0173254D01*
X0084314Y0172503D01*
X0084314Y0171002D01*
X0083563Y0170251D01*
X0081311Y0170251D01*
X0082813Y0170251D02*
X0084314Y0168750D01*
X0038550Y0106610D02*
X0038550Y0103607D01*
X0035547Y0106610D01*
X0034797Y0106610D01*
X0034046Y0105859D01*
X0034046Y0104358D01*
X0034797Y0103607D01*
X0038550Y0087210D02*
X0038550Y0084207D01*
X0038550Y0085709D02*
X0034046Y0085709D01*
X0035547Y0084207D01*
X0064046Y0083659D02*
X0064046Y0081407D01*
X0068550Y0081407D01*
X0068550Y0083659D01*
X0067799Y0084410D01*
X0067049Y0084410D01*
X0066298Y0083659D01*
X0066298Y0081407D01*
X0066298Y0083659D02*
X0065547Y0084410D01*
X0064797Y0084410D01*
X0064046Y0083659D01*
X0065547Y0086011D02*
X0064046Y0087513D01*
X0065547Y0089014D01*
X0068550Y0089014D01*
X0066298Y0089014D02*
X0066298Y0086011D01*
X0065547Y0086011D02*
X0068550Y0086011D01*
X0064046Y0090615D02*
X0064046Y0093618D01*
X0064046Y0092117D02*
X0068550Y0092117D01*
X0074342Y0064754D02*
X0076594Y0064754D01*
X0077345Y0064003D01*
X0077345Y0062502D01*
X0076594Y0061751D01*
X0074342Y0061751D01*
X0074342Y0060250D02*
X0074342Y0064754D01*
X0075843Y0061751D02*
X0077345Y0060250D01*
X0078946Y0060250D02*
X0081949Y0063253D01*
X0081949Y0064003D01*
X0081198Y0064754D01*
X0079697Y0064754D01*
X0078946Y0064003D01*
X0078946Y0060250D02*
X0081949Y0060250D01*
X0080447Y0054754D02*
X0080447Y0050250D01*
X0078946Y0050250D02*
X0081949Y0050250D01*
X0078946Y0053253D02*
X0080447Y0054754D01*
X0077345Y0054003D02*
X0076594Y0054754D01*
X0074342Y0054754D01*
X0074342Y0050250D01*
X0074342Y0051751D02*
X0076594Y0051751D01*
X0077345Y0052502D01*
X0077345Y0054003D01*
X0075843Y0051751D02*
X0077345Y0050250D01*
D17*
X0173100Y0056400D03*
X0233100Y0056400D03*
D18*
X0234050Y0068500D03*
X0208550Y0068500D03*
X0174050Y0068500D03*
X0268550Y0068500D03*
D19*
X0261300Y0069500D03*
X0251300Y0069500D03*
X0241300Y0069500D03*
X0201300Y0069500D03*
X0191300Y0069500D03*
X0181300Y0069500D03*
D20*
X0186300Y0068500D03*
X0196300Y0068500D03*
X0246300Y0068500D03*
X0256300Y0068500D03*
D21*
X0085500Y0071000D03*
X0085500Y0061000D03*
X0057100Y0061000D03*
X0057100Y0071000D03*
M02*
