G75*
%MOIN*%
%OFA0B0*%
%FSLAX25Y25*%
%IPPOS*%
%LPD*%
%AMOC8*
5,1,8,0,0,1.08239X$1,22.5*
%
%ADD10C,0.11824*%
%ADD11OC8,0.06000*%
%ADD12C,0.09050*%
%ADD13C,0.06800*%
%ADD14OC8,0.06800*%
%ADD15R,0.07800X0.07800*%
%ADD16C,0.07800*%
%ADD17R,0.05950X0.05950*%
%ADD18OC8,0.05950*%
%ADD19C,0.04800*%
D10*
X0036300Y0011000D03*
X0059017Y0011000D03*
X0291300Y0011000D03*
X0406300Y0011000D03*
X0406300Y0186000D03*
X0291300Y0186000D03*
X0059017Y0186000D03*
X0036300Y0186000D03*
D11*
X0106300Y0076000D03*
X0116300Y0076000D03*
X0091300Y0071000D03*
X0091300Y0061000D03*
X0051300Y0061000D03*
X0051300Y0071000D03*
X0141300Y0076000D03*
X0151300Y0076000D03*
D12*
X0050425Y0091157D02*
X0042175Y0091157D01*
X0042175Y0110843D02*
X0050425Y0110843D01*
X0086457Y0176875D02*
X0086457Y0185125D01*
X0106143Y0185125D02*
X0106143Y0176875D01*
X0136457Y0176875D02*
X0136457Y0185125D01*
X0156143Y0185125D02*
X0156143Y0176875D01*
X0196457Y0176875D02*
X0196457Y0185125D01*
X0216143Y0185125D02*
X0216143Y0176875D01*
X0246457Y0176875D02*
X0246457Y0185125D01*
X0266143Y0185125D02*
X0266143Y0176875D01*
X0397175Y0110843D02*
X0405425Y0110843D01*
X0405425Y0091157D02*
X0397175Y0091157D01*
D13*
X0261300Y0064000D02*
X0261300Y0058000D01*
X0251300Y0058000D02*
X0251300Y0064000D01*
X0241300Y0064000D02*
X0241300Y0058000D01*
X0201300Y0058000D02*
X0201300Y0064000D01*
X0191300Y0064000D02*
X0191300Y0058000D01*
X0181300Y0058000D02*
X0181300Y0064000D01*
D14*
X0176300Y0031000D03*
X0186300Y0031000D03*
X0196300Y0031000D03*
X0206300Y0031000D03*
X0216300Y0031000D03*
X0226300Y0031000D03*
X0236300Y0031000D03*
X0246300Y0031000D03*
X0256300Y0031000D03*
X0266300Y0031000D03*
X0266300Y0021000D03*
X0256300Y0021000D03*
X0246300Y0021000D03*
X0236300Y0021000D03*
X0226300Y0021000D03*
X0216300Y0021000D03*
X0206300Y0021000D03*
X0196300Y0021000D03*
X0186300Y0021000D03*
X0176300Y0021000D03*
X0176300Y0011000D03*
X0186300Y0011000D03*
X0196300Y0011000D03*
X0206300Y0011000D03*
X0216300Y0011000D03*
X0226300Y0011000D03*
X0236300Y0011000D03*
X0246300Y0011000D03*
X0256300Y0011000D03*
X0266300Y0011000D03*
D15*
X0306300Y0166000D03*
D16*
X0306300Y0156000D03*
X0306300Y0146000D03*
X0306300Y0136000D03*
X0306300Y0126000D03*
X0306300Y0116000D03*
X0306300Y0106000D03*
X0306300Y0096000D03*
X0306300Y0086000D03*
X0306300Y0076000D03*
X0306300Y0066000D03*
X0306300Y0056000D03*
X0306300Y0046000D03*
X0306300Y0036000D03*
X0306300Y0026000D03*
X0366300Y0026000D03*
X0366300Y0036000D03*
X0366300Y0046000D03*
X0366300Y0056000D03*
X0366300Y0066000D03*
X0366300Y0076000D03*
X0366300Y0086000D03*
X0366300Y0096000D03*
X0366300Y0106000D03*
X0366300Y0116000D03*
X0366300Y0126000D03*
X0366300Y0136000D03*
X0366300Y0146000D03*
X0366300Y0156000D03*
X0366300Y0166000D03*
D17*
X0196300Y0141000D03*
X0196300Y0101000D03*
X0091300Y0101000D03*
X0091300Y0141000D03*
D18*
X0101300Y0141000D03*
X0111300Y0141000D03*
X0121300Y0141000D03*
X0131300Y0141000D03*
X0141300Y0141000D03*
X0151300Y0141000D03*
X0161300Y0141000D03*
X0206300Y0141000D03*
X0216300Y0141000D03*
X0226300Y0141000D03*
X0236300Y0141000D03*
X0246300Y0141000D03*
X0256300Y0141000D03*
X0266300Y0141000D03*
X0266300Y0101000D03*
X0256300Y0101000D03*
X0246300Y0101000D03*
X0236300Y0101000D03*
X0226300Y0101000D03*
X0216300Y0101000D03*
X0206300Y0101000D03*
X0161300Y0101000D03*
X0151300Y0101000D03*
X0141300Y0101000D03*
X0131300Y0101000D03*
X0121300Y0101000D03*
X0111300Y0101000D03*
X0101300Y0101000D03*
D19*
X0163800Y0071000D03*
X0176300Y0068500D03*
X0206300Y0071000D03*
X0196300Y0051000D03*
X0186300Y0048500D03*
X0201300Y0026000D03*
X0276300Y0051000D03*
X0291300Y0058500D03*
X0278800Y0063500D03*
X0286300Y0073500D03*
X0293800Y0086000D03*
X0248800Y0088500D03*
X0246300Y0068500D03*
X0293800Y0046000D03*
X0298800Y0031000D03*
X0221300Y0106000D03*
X0166300Y0126000D03*
X0196300Y0156000D03*
X0293800Y0146000D03*
X0311300Y0131000D03*
M02*
