%
M48
M72
T01C0.02400
T02C0.03150
T03C0.03200
T04C0.04000
T05C0.05500
T06C0.11024
%
T01
X163800Y71000
X176300Y68500
X206300Y71000
X196300Y51000
X186300Y48500
X201300Y26000
X276300Y51000
X291300Y58500
X278800Y63500
X286300Y73500
X293800Y86000
X248800Y88500
X246300Y68500
X293800Y46000
X298800Y31000
X221300Y106000
X166300Y126000
X196300Y156000
X293800Y146000
X311300Y131000
T02
X306300Y126000
X306300Y116000
X306300Y106000
X306300Y96000
X306300Y86000
X306300Y76000
X306300Y66000
X306300Y56000
X306300Y46000
X306300Y36000
X306300Y26000
X366300Y26000
X366300Y36000
X366300Y46000
X366300Y56000
X366300Y66000
X366300Y76000
X366300Y86000
X366300Y96000
X366300Y106000
X366300Y116000
X366300Y126000
X366300Y136000
X366300Y146000
X366300Y156000
X366300Y166000
X306300Y166000
X306300Y156000
X306300Y146000
X306300Y136000
X266300Y141000
X256300Y141000
X246300Y141000
X236300Y141000
X226300Y141000
X216300Y141000
X206300Y141000
X196300Y141000
X161300Y141000
X151300Y141000
X141300Y141000
X131300Y141000
X121300Y141000
X111300Y141000
X101300Y141000
X91300Y141000
X91300Y101000
X101300Y101000
X111300Y101000
X121300Y101000
X131300Y101000
X141300Y101000
X151300Y101000
X161300Y101000
X196300Y101000
X206300Y101000
X216300Y101000
X226300Y101000
X236300Y101000
X246300Y101000
X256300Y101000
X266300Y101000
T03
X151300Y76000
X141300Y76000
X116300Y76000
X106300Y76000
X91300Y71000
X91300Y61000
X51300Y61000
X51300Y71000
T04
X176300Y31000
X186300Y31000
X196300Y31000
X206300Y31000
X216300Y31000
X226300Y31000
X236300Y31000
X246300Y31000
X256300Y31000
X266300Y31000
X266300Y21000
X256300Y21000
X246300Y21000
X236300Y21000
X226300Y21000
X216300Y21000
X206300Y21000
X196300Y21000
X186300Y21000
X176300Y21000
X176300Y11000
X186300Y11000
X196300Y11000
X206300Y11000
X216300Y11000
X226300Y11000
X236300Y11000
X246300Y11000
X256300Y11000
X266300Y11000
X261300Y61000
X251300Y61000
X241300Y61000
X201300Y61000
X191300Y61000
X181300Y61000
T05
X46300Y91157
X46300Y110843
X86457Y181000
X106143Y181000
X136457Y181000
X156143Y181000
X196457Y181000
X216143Y181000
X246457Y181000
X266143Y181000
X401300Y110843
X401300Y91157
T06
X36300Y11000
X59017Y11000
X291300Y11000
X406300Y11000
X406300Y186000
X291300Y186000
X59017Y186000
X36300Y186000
M30
