G75*
%MOIN*%
%OFA0B0*%
%FSLAX25Y25*%
%IPPOS*%
%LPD*%
%AMOC8*
5,1,8,0,0,1.08239X$1,22.5*
%
%ADD10OC8,0.05200*%
%ADD11C,0.08250*%
%ADD12C,0.06000*%
%ADD13OC8,0.06000*%
%ADD14R,0.07000X0.07000*%
%ADD15C,0.07000*%
%ADD16R,0.05150X0.05150*%
%ADD17OC8,0.05150*%
%ADD18C,0.01000*%
%ADD19C,0.08000*%
%ADD20C,0.01200*%
%ADD21C,0.04000*%
%ADD22C,0.02400*%
D10*
X0051300Y0061000D03*
X0051300Y0071000D03*
X0091300Y0071000D03*
X0106300Y0076000D03*
X0116300Y0076000D03*
X0141300Y0076000D03*
X0151300Y0076000D03*
X0091300Y0061000D03*
D11*
X0050425Y0091157D02*
X0042175Y0091157D01*
X0042175Y0110843D02*
X0050425Y0110843D01*
X0086457Y0176875D02*
X0086457Y0185125D01*
X0106143Y0185125D02*
X0106143Y0176875D01*
X0136457Y0176875D02*
X0136457Y0185125D01*
X0156143Y0185125D02*
X0156143Y0176875D01*
X0196457Y0176875D02*
X0196457Y0185125D01*
X0216143Y0185125D02*
X0216143Y0176875D01*
X0246457Y0176875D02*
X0246457Y0185125D01*
X0266143Y0185125D02*
X0266143Y0176875D01*
X0397175Y0110843D02*
X0405425Y0110843D01*
X0405425Y0091157D02*
X0397175Y0091157D01*
D12*
X0261300Y0064000D02*
X0261300Y0058000D01*
X0251300Y0058000D02*
X0251300Y0064000D01*
X0241300Y0064000D02*
X0241300Y0058000D01*
X0201300Y0058000D02*
X0201300Y0064000D01*
X0191300Y0064000D02*
X0191300Y0058000D01*
X0181300Y0058000D02*
X0181300Y0064000D01*
X0196300Y0133500D02*
X0091300Y0133500D01*
X0101300Y0141000D02*
X0101300Y0148500D01*
X0203800Y0148500D01*
X0206300Y0141000D01*
X0196300Y0141000D02*
X0196300Y0133500D01*
D13*
X0196300Y0031000D03*
X0186300Y0031000D03*
X0176300Y0031000D03*
X0176300Y0021000D03*
X0186300Y0021000D03*
X0196300Y0021000D03*
X0206300Y0021000D03*
X0216300Y0021000D03*
X0226300Y0021000D03*
X0236300Y0021000D03*
X0246300Y0021000D03*
X0256300Y0021000D03*
X0266300Y0021000D03*
X0266300Y0031000D03*
X0256300Y0031000D03*
X0246300Y0031000D03*
X0236300Y0031000D03*
X0226300Y0031000D03*
X0216300Y0031000D03*
X0206300Y0031000D03*
X0206300Y0011000D03*
X0216300Y0011000D03*
X0226300Y0011000D03*
X0236300Y0011000D03*
X0246300Y0011000D03*
X0256300Y0011000D03*
X0266300Y0011000D03*
X0196300Y0011000D03*
X0186300Y0011000D03*
X0176300Y0011000D03*
D14*
X0306300Y0166000D03*
D15*
X0306300Y0156000D03*
X0306300Y0146000D03*
X0306300Y0136000D03*
X0306300Y0126000D03*
X0306300Y0116000D03*
X0306300Y0106000D03*
X0306300Y0096000D03*
X0306300Y0086000D03*
X0306300Y0076000D03*
X0306300Y0066000D03*
X0306300Y0056000D03*
X0306300Y0046000D03*
X0306300Y0036000D03*
X0306300Y0026000D03*
X0366300Y0026000D03*
X0366300Y0036000D03*
X0366300Y0046000D03*
X0366300Y0056000D03*
X0366300Y0066000D03*
X0366300Y0076000D03*
X0366300Y0086000D03*
X0366300Y0096000D03*
X0366300Y0106000D03*
X0366300Y0116000D03*
X0366300Y0126000D03*
X0366300Y0136000D03*
X0366300Y0146000D03*
X0366300Y0156000D03*
X0366300Y0166000D03*
D16*
X0196300Y0141000D03*
X0196300Y0101000D03*
X0091300Y0101000D03*
X0091300Y0141000D03*
D17*
X0101300Y0141000D03*
X0111300Y0141000D03*
X0121300Y0141000D03*
X0131300Y0141000D03*
X0141300Y0141000D03*
X0151300Y0141000D03*
X0161300Y0141000D03*
X0206300Y0141000D03*
X0216300Y0141000D03*
X0226300Y0141000D03*
X0236300Y0141000D03*
X0246300Y0141000D03*
X0256300Y0141000D03*
X0266300Y0141000D03*
X0266300Y0101000D03*
X0256300Y0101000D03*
X0246300Y0101000D03*
X0236300Y0101000D03*
X0226300Y0101000D03*
X0216300Y0101000D03*
X0206300Y0101000D03*
X0161300Y0101000D03*
X0151300Y0101000D03*
X0141300Y0101000D03*
X0131300Y0101000D03*
X0121300Y0101000D03*
X0111300Y0101000D03*
X0101300Y0101000D03*
D18*
X0091300Y0101000D02*
X0091300Y0111000D01*
X0091300Y0101000D02*
X0091300Y0071000D01*
X0111300Y0066000D02*
X0056300Y0066000D01*
X0051300Y0061000D01*
X0121300Y0101000D02*
X0138800Y0083500D01*
X0291300Y0083500D01*
X0293800Y0086000D01*
X0301300Y0091000D02*
X0306300Y0096000D01*
X0311300Y0098500D02*
X0311300Y0088500D01*
X0308800Y0088500D01*
X0306300Y0086000D01*
X0308800Y0081000D02*
X0158800Y0081000D01*
X0158800Y0066000D01*
X0166300Y0066000D01*
X0178800Y0053500D01*
X0193800Y0053500D01*
X0201300Y0061000D01*
X0208800Y0053500D01*
X0253800Y0053500D01*
X0261300Y0061000D01*
X0271300Y0051000D02*
X0276300Y0056000D01*
X0288800Y0056000D01*
X0291300Y0053500D01*
X0303800Y0053500D01*
X0306300Y0056000D01*
X0293800Y0061000D02*
X0291300Y0058500D01*
X0293800Y0061000D02*
X0361300Y0061000D01*
X0366300Y0066000D01*
X0351300Y0071000D02*
X0366300Y0086000D01*
X0383800Y0091000D02*
X0318800Y0091000D01*
X0308800Y0081000D01*
X0306300Y0076000D02*
X0303800Y0078500D01*
X0181300Y0078500D01*
X0173800Y0071000D01*
X0163800Y0071000D01*
X0176300Y0068500D02*
X0183800Y0076000D01*
X0286300Y0076000D01*
X0286300Y0073500D01*
X0281300Y0066000D02*
X0306300Y0066000D01*
X0303800Y0071000D02*
X0301300Y0068500D01*
X0246300Y0068500D01*
X0278800Y0063500D02*
X0281300Y0066000D01*
X0303800Y0071000D02*
X0351300Y0071000D01*
X0366300Y0056000D02*
X0361300Y0051000D01*
X0276300Y0051000D01*
X0271300Y0051000D02*
X0196300Y0051000D01*
X0188800Y0046000D02*
X0286300Y0046000D01*
X0286300Y0036000D01*
X0306300Y0036000D01*
X0298800Y0031000D02*
X0361300Y0031000D01*
X0366300Y0026000D01*
X0306300Y0046000D02*
X0293800Y0046000D01*
X0266300Y0031000D02*
X0256300Y0031000D01*
X0246300Y0031000D01*
X0236300Y0031000D01*
X0226300Y0031000D01*
X0216300Y0031000D01*
X0206300Y0031000D01*
X0196300Y0031000D01*
X0176300Y0031000D01*
X0176300Y0021000D02*
X0186300Y0021000D01*
X0196300Y0021000D01*
X0201300Y0021000D01*
X0206300Y0021000D01*
X0216300Y0021000D01*
X0226300Y0021000D01*
X0236300Y0021000D01*
X0246300Y0021000D01*
X0201300Y0021000D02*
X0201300Y0026000D01*
X0176300Y0011000D02*
X0168800Y0011000D01*
X0168800Y0048500D01*
X0186300Y0048500D01*
X0188800Y0046000D01*
X0248800Y0088500D02*
X0251300Y0091000D01*
X0301300Y0091000D01*
X0311300Y0098500D02*
X0308800Y0101000D01*
X0303800Y0101000D01*
X0298800Y0106000D01*
X0251300Y0106000D01*
X0246300Y0101000D01*
X0251300Y0096000D02*
X0256300Y0101000D01*
X0251300Y0096000D02*
X0156300Y0096000D01*
X0151300Y0101000D01*
X0146300Y0103500D02*
X0146300Y0093500D01*
X0258800Y0093500D01*
X0266300Y0101000D01*
X0233800Y0108500D02*
X0303800Y0108500D01*
X0306300Y0106000D01*
X0303800Y0111000D02*
X0361300Y0111000D01*
X0366300Y0106000D01*
X0366300Y0116000D02*
X0341300Y0141000D01*
X0298800Y0141000D01*
X0293800Y0146000D01*
X0311300Y0131000D02*
X0246300Y0131000D01*
X0246300Y0126000D01*
X0166300Y0126000D01*
X0156300Y0106000D02*
X0148800Y0106000D01*
X0146300Y0103500D01*
X0156300Y0106000D02*
X0161300Y0101000D01*
X0216300Y0101000D02*
X0216300Y0116000D01*
X0306300Y0116000D01*
X0303800Y0111000D02*
X0301300Y0113500D01*
X0228800Y0113500D01*
X0221300Y0106000D01*
X0226300Y0101000D02*
X0233800Y0108500D01*
X0196300Y0156000D02*
X0196300Y0161000D01*
X0373800Y0161000D01*
X0373800Y0133500D01*
X0366300Y0126000D01*
X0401300Y0110843D02*
X0401300Y0108500D01*
X0383800Y0091000D01*
X0046300Y0110843D02*
X0046300Y0111000D01*
D19*
X0091300Y0111000D01*
X0091300Y0133500D01*
X0091300Y0141000D01*
D20*
X0196300Y0133500D02*
X0288800Y0133500D01*
X0288800Y0151000D01*
X0361300Y0151000D01*
X0366300Y0156000D01*
X0158800Y0081000D02*
X0141300Y0081000D01*
X0141300Y0076000D01*
X0151300Y0076000D02*
X0151300Y0066000D01*
X0111300Y0066000D01*
D21*
X0163800Y0071000D03*
X0176300Y0068500D03*
X0206300Y0071000D03*
X0196300Y0051000D03*
X0186300Y0048500D03*
X0201300Y0026000D03*
X0276300Y0051000D03*
X0291300Y0058500D03*
X0278800Y0063500D03*
X0286300Y0073500D03*
X0293800Y0086000D03*
X0248800Y0088500D03*
X0246300Y0068500D03*
X0293800Y0046000D03*
X0298800Y0031000D03*
X0221300Y0106000D03*
X0166300Y0126000D03*
X0196300Y0156000D03*
X0293800Y0146000D03*
X0311300Y0131000D03*
D22*
X0206300Y0101000D02*
X0198800Y0111000D01*
X0108800Y0111000D01*
X0101300Y0101000D01*
X0183800Y0071000D02*
X0181300Y0061000D01*
X0183800Y0071000D02*
X0206300Y0071000D01*
X0233800Y0071000D01*
X0241300Y0061000D01*
M02*
